<svg width="599" height="352" viewBox="0 0 599 352" fill="none" xmlns="http://www.w3.org/2000/svg">
<path d="M305.752 349.21C306.965 342.845 310.731 337.011 316.019 333.285" stroke="#04D361" stroke-width="0.779" stroke-miterlimit="10"/>
<path d="M305.588 350.998C305.816 345.683 307.868 332.891 312.719 324.883" stroke="#04D361" stroke-width="0.779" stroke-miterlimit="10"/>
<path d="M305.66 350.341C306.499 340.863 306.426 330.389 304.949 320.984" stroke="#04D361" stroke-width="0.779" stroke-miterlimit="10"/>
<path d="M321.368 326.552C322.205 326.389 323.062 326.495 323.976 326.704C324.433 326.809 324.89 326.935 325.365 327.062C325.718 327.157 326.08 327.253 326.445 327.334L326.812 327.41L326.813 327.411C327.636 327.568 328.466 327.633 329.275 327.679C329.89 327.714 330.486 327.738 331.076 327.779L331.665 327.828C333.142 327.971 334.575 328.306 335.665 329.116L335.878 329.284L335.88 329.285C336.933 330.162 337.487 331.614 337.107 332.786L337.02 333.017L337.019 333.018C336.692 333.754 336.048 334.259 335.214 334.581C334.376 334.904 333.384 335.025 332.449 335.012L331.833 334.993C330.395 334.924 328.963 334.688 327.511 334.41C326.07 334.135 324.596 333.814 323.113 333.59L322.477 333.5C321.04 333.313 319.552 333.238 318.081 333.387L317.452 333.465H317.451C317.09 333.518 316.703 333.643 316.33 333.782C315.959 333.921 315.558 334.091 315.194 334.236C314.96 334.33 314.734 334.414 314.521 334.485C315.109 333.688 315.619 332.859 316.104 332.019L316.792 330.81L316.794 330.808C317.88 328.872 319.268 327.06 321.181 326.593L321.368 326.552Z" fill="#04D361" stroke="#04D361"/>
<path d="M322.938 309.998C324.382 309.594 325.885 309.61 327.456 309.75C328.8 309.87 330.25 310.088 331.667 310.172L332.272 310.199H332.274C333.022 310.218 333.791 310.19 334.509 310.186C335.24 310.181 335.948 310.199 336.644 310.303V310.304C337.943 310.499 339.186 311.057 339.87 312.028L339.999 312.228L340 312.229C340.5 313.068 340.527 314.096 340.184 315.085C339.84 316.076 339.137 316.982 338.256 317.54C336.445 318.687 334.12 318.768 331.84 318.516C330.676 318.387 329.592 318.194 328.396 318.042C327.378 317.913 326.339 317.823 325.286 317.866L324.834 317.894C321.758 318.132 318.904 319.587 316.547 321.471C315.592 322.231 314.744 323.228 313.936 324.142C313.323 324.834 312.731 325.48 312.107 326.003C312.138 325.824 312.184 325.615 312.248 325.38C312.467 324.574 312.855 323.545 313.299 322.483C314.188 320.358 315.26 318.193 315.571 317.514L315.57 317.513C317.081 314.234 319.386 311.149 322.622 310.094L322.938 309.998Z" fill="#04D361" stroke="#04D361"/>
<path d="M294.57 287.108C295.869 286.875 297.245 287.373 298.417 288.197L298.648 288.366L298.649 288.367C300.265 289.586 301.472 291.334 302.06 293.279L302.168 293.671C302.491 294.942 302.554 296.265 302.616 297.646C302.677 299.011 302.737 300.436 303.079 301.821V301.82C303.53 303.664 304.459 305.345 305.308 306.955C306.114 308.486 306.853 309.962 307.171 311.551L307.229 311.87V311.871C307.522 313.664 307.224 315.506 306.663 317.281C306.499 317.795 306.21 318.85 305.824 319.83C305.632 320.318 305.427 320.758 305.218 321.08C305.113 321.241 305.018 321.358 304.935 321.434C304.893 321.472 304.86 321.494 304.836 321.508L304.793 321.526H304.792C304.688 321.546 304.477 321.517 304.141 321.349C303.822 321.19 303.464 320.944 303.102 320.658C302.56 320.23 302.043 319.738 301.68 319.374L301.372 319.06C300.43 318.067 299.668 316.909 299.17 315.646L299.074 315.392L299.073 315.39L298.97 315.093C298.471 313.605 298.283 312.024 298.096 310.381C297.911 308.757 297.727 307.07 297.214 305.456L297.106 305.134L296.941 304.688C296.073 302.482 294.609 300.544 293.398 298.655C292.084 296.604 290.971 294.408 290.988 292.107C291.005 289.873 292.381 287.627 294.375 287.149L294.57 287.108Z" fill="#04D361" stroke="#04D361"/>
<path d="M305.569 349.448C304.949 341.075 302.797 331.615 298.119 324.648" stroke="#04D361" stroke-width="0.779" stroke-miterlimit="10"/>
<path d="M277.636 307.595C280.009 307.439 282.403 307.793 284.756 308.369L285.762 308.629C288.34 309.326 290.852 310.263 292.828 311.926V311.925C294.66 313.473 295.949 315.596 296.823 317.888L296.992 318.349L296.993 318.35C297.579 319.984 297.969 321.687 298.288 323.409L298.421 324.147V324.149C298.446 324.293 298.497 324.494 298.537 324.668C298.58 324.857 298.62 325.05 298.642 325.234C298.663 325.422 298.661 325.572 298.64 325.68C298.629 325.731 298.617 325.763 298.605 325.783L298.58 325.814C298.576 325.818 298.538 325.845 298.411 325.826C298.282 325.807 298.116 325.747 297.925 325.648C297.639 325.502 297.358 325.3 297.156 325.139L296.984 324.994C296.649 324.686 296.352 324.331 296.054 323.944C295.91 323.758 295.76 323.555 295.605 323.351L295.135 322.742H295.134C292.423 319.408 288.139 317.805 284.003 317.212C281.933 316.915 279.85 316.837 277.784 316.804C275.968 316.775 274.176 316.78 272.388 316.706L271.622 316.669L271.618 316.668L271.271 316.648C270.531 316.596 269.861 316.482 269.332 316.155L269.212 316.075C268.397 315.491 268.057 314.297 268.307 313.208C268.525 312.265 269.12 311.416 269.88 310.691L270.215 310.389C272.237 308.65 274.924 307.772 277.636 307.595Z" fill="#04D361" stroke="#04D361"/>
<path d="M305.396 350.344C305.031 343.039 301.748 335.917 296.441 330.895" stroke="#04D361" stroke-width="0.779" stroke-miterlimit="10"/>
<path d="M281.829 324.152C283.482 323.832 285.199 324.194 286.948 324.666L287.699 324.874C289.749 325.449 291.827 326.084 293.662 327.061V327.062L294.051 327.277L294.062 327.284C294.661 327.622 295.11 328.148 295.544 328.768L295.979 329.414C296.046 329.517 296.149 329.726 296.289 330.027C296.421 330.311 296.579 330.663 296.739 330.996C296.773 331.067 296.81 331.137 296.845 331.208C294.738 330.63 292.451 330.561 290.349 330.568L289.252 330.576C286.205 330.602 283.157 331.135 280.284 332.168L279.712 332.381L279.71 332.382C277.892 333.092 276.264 333.923 274.502 334.109L274.147 334.138C273.648 334.162 273.117 334.091 272.688 333.909C272.316 333.751 272.054 333.527 271.92 333.236L271.87 333.108C271.717 332.605 271.931 332.021 272.331 331.423L272.514 331.166L272.516 331.164C273.534 329.793 274.847 328.669 276.203 327.513C277.862 326.103 279.508 324.743 281.439 324.241L281.829 324.152Z" fill="#04D361" stroke="#04D361"/>
<path d="M534.203 309.278C536.311 308.264 538.757 309.246 540.847 310.592C541.87 311.251 542.969 312.028 544.117 312.614C545.205 313.169 546.383 313.58 547.677 313.588L547.938 313.584C549.044 313.545 550.111 313.202 551.103 312.879C552.117 312.548 553.055 312.235 554.007 312.167L554.008 312.168C556.293 312.013 558.316 313.274 560.237 314.767L561.055 315.417L561.056 315.418C562.529 316.607 563.925 317.794 564.496 319.4L564.599 319.728C565.152 321.737 564.228 324.129 562.575 325.701L562.234 326.004L562.233 326.005C560.494 327.464 558.218 328.124 555.964 328.245L555.514 328.262H555.513C554.435 328.288 553.149 328.236 551.979 328.4C550.86 328.557 549.753 328.918 548.879 329.781L548.707 329.961C547.831 330.931 547.529 332.151 547.309 333.293C547.08 334.476 546.936 335.559 546.453 336.506C545.479 338.398 543.19 339.42 541.046 339.411C538.888 339.402 536.855 338.578 534.766 337.739C532.835 336.964 530.738 336.154 528.504 336.143L528.056 336.151C526.068 336.237 524.151 336.99 522.331 337.774L520.544 338.546H520.543C519.507 338.982 518.075 339.571 516.712 339.796C515.414 340.011 514.351 339.871 513.7 339.164L513.576 339.015L513.574 339.013L513.476 338.869C513.258 338.518 513.139 338.058 513.113 337.496C513.083 336.856 513.176 336.126 513.344 335.366C513.679 333.845 514.293 332.293 514.701 331.245C515.754 328.558 517.484 326.05 519.868 324.595L520.101 324.457C521.267 323.792 522.551 323.381 523.885 322.857C525.109 322.377 526.346 321.808 527.378 320.864L527.582 320.671V320.67C529.302 318.958 529.94 316.487 530.64 314.402C531.36 312.258 532.384 310.158 534.204 309.279L534.203 309.278Z" fill="#04D361" stroke="#04D361"/>
<path d="M513.615 339.07C525.752 328.634 539.913 321.721 555.196 318.781" stroke="white" stroke-width="0.7047" stroke-miterlimit="10" stroke-linecap="round" stroke-linejoin="round"/>
<path d="M525.616 323.018C525.898 319.576 525.251 315.987 526.382 312.728C528.397 306.92 535.382 303.889 537.132 297.999C539.23 290.959 532.828 283.773 533.941 276.514C534.406 273.455 536.166 270.761 537.26 267.867C538.354 264.972 538.637 261.347 536.512 259.092C534.287 256.736 530.248 257.01 527.604 258.891C524.959 260.772 523.436 263.822 522.196 266.826C520.965 269.83 519.88 272.971 517.792 275.464C513.989 280.002 507.151 281.992 505.072 287.535C502.956 293.178 506.959 299.15 507.67 305.131C508.208 309.66 506.831 314.17 505.6 318.571C504.378 322.973 503.293 327.629 504.415 332.049C505.91 337.938 511.208 341.691 516.287 337.911C521.312 334.195 525.096 329.492 525.616 323.018Z" fill="#04D361"/>
<path d="M513.069 339.355C511.053 318.336 515.667 295.535 526.446 277.383" stroke="white" stroke-width="1.1364" stroke-miterlimit="10" stroke-linecap="round" stroke-linejoin="round"/>
<path d="M499.645 331.429C497.43 328.297 496.162 324.379 493.153 321.996C489.706 319.257 484.928 319.23 480.551 318.873C476.165 318.517 471.223 317.275 469.189 313.367C468.077 311.222 468.077 308.674 467.302 306.391C466.445 303.88 464.694 301.798 463.463 299.452C462.241 297.105 461.594 294.119 463.016 291.882C464.457 289.617 467.612 288.951 470.193 289.681C472.773 290.412 474.889 292.229 476.822 294.092C478.755 295.954 480.642 297.945 483.022 299.169C486.971 301.187 491.658 300.812 496.089 300.62C500.521 300.438 505.354 300.62 508.782 303.451C511.6 305.779 512.886 309.441 514.035 312.92C515.694 317.896 517.39 322.855 519.004 327.849C519.998 330.917 521.895 335.62 518.703 338.03C513.077 342.276 502.892 336.003 499.645 331.429Z" fill="#04D361"/>
<path d="M516.926 338.212C509.886 321.849 494.986 307.915 477.15 301.77" stroke="white" stroke-width="0.8174" stroke-miterlimit="10" stroke-linecap="round" stroke-linejoin="round"/>
<path d="M111.359 337.464C113.374 334.46 114.541 330.607 117.249 328.406C120.359 325.895 124.635 326.224 128.575 326.178C132.505 326.141 136.945 325.256 138.806 321.457C139.827 319.375 139.836 316.8 140.556 314.545C141.341 312.071 142.927 310.098 144.049 307.815C145.161 305.533 145.763 302.565 144.514 300.2C143.237 297.808 140.42 296.904 138.104 297.452C135.787 298 133.873 299.68 132.131 301.415C130.389 303.149 128.684 305.021 126.532 306.081C122.976 307.834 118.781 307.103 114.806 306.583C110.83 306.071 106.499 305.907 103.407 308.509C100.863 310.655 99.687 314.262 98.6201 317.686C97.0973 322.59 95.538 327.475 94.0517 332.396C93.1399 335.428 91.3982 340.03 94.2432 342.705C99.2311 347.435 108.413 341.847 111.359 337.464Z" fill="#04D361"/>
<path d="M95.8203 343.051C102.258 327.035 115.717 314.06 131.748 309.156" stroke="white" stroke-width="0.7781" stroke-miterlimit="10" stroke-linecap="round" stroke-linejoin="round"/>
<path d="M86.9944 329.052C86.7755 325.884 87.2862 322.588 86.3834 319.584C84.7695 314.242 79.1706 311.457 77.7664 306.042C76.0886 299.568 81.2132 292.957 80.3287 286.273C79.9548 283.461 78.5415 280.987 77.6661 278.32C76.7907 275.654 76.5627 272.321 78.2679 270.248C80.0551 268.075 83.2831 268.331 85.4078 270.066C87.5233 271.801 88.7451 274.604 89.7391 277.361C90.7239 280.119 91.5993 283.014 93.268 285.306C96.3136 289.478 101.794 291.305 103.453 296.409C105.149 301.604 101.94 307.092 101.374 312.598C100.946 316.771 102.049 320.917 103.034 324.962C104.019 329.007 104.885 333.289 103.982 337.362C102.788 342.776 98.5385 346.228 94.4716 342.758C90.4503 339.334 87.4138 335.006 86.9944 329.052Z" fill="#04D361"/>
<path d="M97.0425 344.072C98.6564 324.741 94.9543 303.767 86.3281 287.066" stroke="white" stroke-width="0.9754" stroke-miterlimit="10" stroke-linecap="round" stroke-linejoin="round"/>
<path d="M64.1377 303.135C66.6181 301.476 69.5594 300.326 72.1758 301.88V301.879C73.3058 302.554 74.2068 303.637 74.9434 304.94C75.5874 306.081 76.093 307.368 76.5117 308.653L76.6865 309.203V309.204C77.5898 312.106 78.3952 315.42 80.4697 317.812V317.811C81.7581 319.303 83.3403 320.223 84.9277 321.016C86.4375 321.77 87.9147 322.396 89.2744 323.291L89.5449 323.474C92.4523 325.486 94.6269 328.841 96.0283 332.442L96.2979 333.166C96.8108 334.606 97.5919 336.765 98.0361 338.867C98.2582 339.918 98.3919 340.934 98.3711 341.825C98.3527 342.61 98.2153 343.259 97.9482 343.746L97.8262 343.944L97.8242 343.946C97.0645 345.054 95.7109 345.2 94.0273 344.783C92.7822 344.475 91.4844 343.886 90.3818 343.328L89.3535 342.792H89.3525C87.9229 342.034 86.4315 341.167 84.9404 340.461C83.5336 339.795 82.0792 339.247 80.5762 339.031L80.2754 338.993C77.3918 338.667 74.7017 339.658 72.2402 340.622C69.7475 341.598 67.3178 342.562 64.7031 342.396C62.1913 342.238 59.4333 340.771 58.1094 338.19L57.9854 337.938C57.3622 336.585 57.1548 335.062 56.8545 333.469C56.5795 332.009 56.226 330.502 55.3301 329.232L55.1436 328.981C54.0829 327.624 52.6906 326.999 51.25 326.68C50.1914 326.445 49.06 326.369 48.0088 326.296L46.9902 326.218H46.9893C44.1846 325.969 41.2649 324.956 38.9805 322.817L38.7607 322.606V322.605L38.5449 322.388C36.4159 320.165 35.1063 316.796 35.6289 313.986L35.6875 313.708C36.1851 311.589 37.6185 310.084 39.2051 308.688L39.8926 308.095V308.094C42.3872 305.963 45.0022 303.929 48.0391 304.211L48.334 304.246H48.335C49.4961 304.409 50.6462 304.906 51.877 305.432C53.0041 305.913 54.201 306.418 55.4365 306.592L55.6836 306.622C57.3557 306.795 58.8629 306.319 60.2451 305.61C61.2704 305.085 62.2602 304.411 63.2061 303.766L64.1367 303.136L64.1377 303.135Z" fill="#04D361" stroke="#04D361"/>
<path d="M97.6999 343.853C82.8275 328.824 65.5843 318.396 47.0918 313.246" stroke="white" stroke-width="0.8986" stroke-miterlimit="10" stroke-linecap="round" stroke-linejoin="round"/>
<path d="M523.847 71.5967C523.847 74.4913 521.504 76.8379 518.613 76.8379C515.722 76.8379 513.379 74.4913 513.379 71.5967C513.379 68.7022 515.722 66.3555 518.613 66.3555C521.494 66.3555 523.847 68.7022 523.847 71.5967Z" stroke="#04D361" stroke-width="2" stroke-miterlimit="10" stroke-linecap="round" stroke-linejoin="round"/>
<path d="M522.396 75.2109L526.089 78.9175" stroke="#04D361" stroke-width="2" stroke-miterlimit="10" stroke-linecap="round" stroke-linejoin="round"/>
<path d="M319.068 1L324.575 6.51422" stroke="#04D361" stroke-width="2" stroke-miterlimit="10" stroke-linecap="round" stroke-linejoin="round"/>
<path d="M324.575 1L319.068 6.51422" stroke="#04D361" stroke-width="2" stroke-miterlimit="10" stroke-linecap="round" stroke-linejoin="round"/>
<path d="M397.996 318.461L403.503 323.975" stroke="#04D361" stroke-width="2" stroke-miterlimit="10" stroke-linecap="round" stroke-linejoin="round"/>
<path d="M403.503 318.461L397.996 323.975" stroke="#04D361" stroke-width="2" stroke-miterlimit="10" stroke-linecap="round" stroke-linejoin="round"/>
<path d="M48.5352 245.387V253.185" stroke="#04D361" stroke-width="2" stroke-miterlimit="10" stroke-linecap="round" stroke-linejoin="round"/>
<path d="M52.439 249.285H44.6426" stroke="#04D361" stroke-width="2" stroke-miterlimit="10" stroke-linecap="round" stroke-linejoin="round"/>
<path d="M31.5998 185.516C31.5998 188.128 29.4843 190.255 26.8673 190.255C24.2594 190.255 22.1348 188.137 22.1348 185.516C22.1348 182.905 24.2503 180.777 26.8673 180.777C29.4843 180.786 31.5998 182.905 31.5998 185.516Z" stroke="#04D361" stroke-width="2" stroke-miterlimit="10" stroke-linecap="round" stroke-linejoin="round"/>
<path d="M228.028 300.134C228.028 302.745 225.912 304.873 223.295 304.873C220.687 304.873 218.562 302.754 218.562 300.134C218.562 297.522 220.678 295.395 223.295 295.395C225.912 295.404 228.028 297.522 228.028 300.134Z" stroke="#04D361" stroke-width="2" stroke-miterlimit="10" stroke-linecap="round" stroke-linejoin="round"/>
<path d="M540.34 214.786C540.34 217.397 538.225 219.525 535.608 219.525C533 219.525 530.875 217.407 530.875 214.786C530.875 212.174 532.991 210.047 535.608 210.047C538.225 210.056 540.34 212.174 540.34 214.786Z" stroke="#04D361" stroke-width="2" stroke-miterlimit="10" stroke-linecap="round" stroke-linejoin="round"/>
<path d="M1.71387 101.246C2.38369 101.246 2.92773 101.79 2.92773 102.463C2.92749 103.135 2.38355 103.679 1.71387 103.679C1.04424 103.679 0.500242 103.135 0.5 102.463C0.5 101.791 1.0441 101.246 1.71387 101.246Z" fill="#8996EB" stroke="#8996EB"/>
<path d="M13.6865 101.246C14.3563 101.246 14.9004 101.79 14.9004 102.463C14.9001 103.135 14.3562 103.679 13.6865 103.679C13.0169 103.679 12.4729 103.135 12.4727 102.463C12.4727 101.791 13.0168 101.246 13.6865 101.246Z" fill="#8996EB" stroke="#8996EB"/>
<path d="M25.6494 101.246C26.3192 101.246 26.8633 101.79 26.8633 102.463C26.863 103.135 26.3191 103.679 25.6494 103.679C24.9798 103.679 24.4358 103.135 24.4355 102.463C24.4355 101.791 24.9796 101.246 25.6494 101.246Z" fill="#8996EB" stroke="#8996EB"/>
<path d="M37.6221 101.246C38.2919 101.246 38.8359 101.79 38.8359 102.463C38.8357 103.135 38.2918 103.679 37.6221 103.679C36.9524 103.679 36.4084 103.135 36.4082 102.463C36.4082 101.791 36.9523 101.246 37.6221 101.246Z" fill="#8996EB" stroke="#8996EB"/>
<path d="M49.5869 101.246C50.2567 101.246 50.8008 101.79 50.8008 102.463C50.8005 103.135 50.2566 103.679 49.5869 103.679C48.9173 103.679 48.3733 103.135 48.373 102.463C48.373 101.791 48.9171 101.246 49.5869 101.246Z" fill="#8996EB" stroke="#8996EB"/>
<path d="M61.5596 101.246C62.2294 101.246 62.7734 101.79 62.7734 102.463C62.7732 103.135 62.2293 103.679 61.5596 103.679C60.8899 103.679 60.3459 103.135 60.3457 102.463C60.3457 101.791 60.8898 101.246 61.5596 101.246Z" fill="#8996EB" stroke="#8996EB"/>
<path d="M1.71387 113.227C2.38369 113.227 2.92773 113.771 2.92773 114.443C2.92749 115.116 2.38354 115.659 1.71387 115.659C1.04425 115.659 0.500243 115.116 0.5 114.443C0.5 113.771 1.0441 113.227 1.71387 113.227Z" fill="#8996EB" stroke="#8996EB"/>
<path d="M13.6865 113.227C14.3564 113.227 14.9004 113.771 14.9004 114.443C14.9001 115.116 14.3562 115.659 13.6865 115.659C13.0169 115.659 12.4729 115.116 12.4727 114.443C12.4727 113.771 13.0168 113.227 13.6865 113.227Z" fill="#8996EB" stroke="#8996EB"/>
<path d="M25.6494 113.227C26.3192 113.227 26.8633 113.771 26.8633 114.443C26.863 115.116 26.3191 115.659 25.6494 115.659C24.9798 115.659 24.4358 115.116 24.4355 114.443C24.4355 113.771 24.9796 113.227 25.6494 113.227Z" fill="#8996EB" stroke="#8996EB"/>
<path d="M37.6221 113.227C38.2919 113.227 38.8359 113.771 38.8359 114.443C38.8357 115.116 38.2918 115.659 37.6221 115.659C36.9525 115.659 36.4084 115.116 36.4082 114.443C36.4082 113.771 36.9523 113.227 37.6221 113.227Z" fill="#8996EB" stroke="#8996EB"/>
<path d="M49.5869 113.227C50.2567 113.227 50.8008 113.771 50.8008 114.443C50.8005 115.116 50.2566 115.659 49.5869 115.659C48.9173 115.659 48.3733 115.116 48.373 114.443C48.373 113.771 48.9171 113.227 49.5869 113.227Z" fill="#8996EB" stroke="#8996EB"/>
<path d="M61.5596 113.227C62.2294 113.227 62.7734 113.771 62.7734 114.443C62.7732 115.116 62.2292 115.659 61.5596 115.659C60.89 115.659 60.3459 115.116 60.3457 114.443C60.3457 113.771 60.8898 113.227 61.5596 113.227Z" fill="#8996EB" stroke="#8996EB"/>
<path d="M1.71387 125.215C2.38369 125.215 2.92773 125.759 2.92773 126.432C2.92749 127.104 2.38355 127.647 1.71387 127.647C1.04424 127.647 0.500242 127.104 0.5 126.432C0.5 125.759 1.0441 125.215 1.71387 125.215Z" fill="#8996EB" stroke="#8996EB"/>
<path d="M13.6865 125.215C14.3563 125.215 14.9004 125.759 14.9004 126.432C14.9001 127.104 14.3562 127.647 13.6865 127.647C13.0169 127.647 12.4729 127.104 12.4727 126.432C12.4727 125.759 13.0168 125.215 13.6865 125.215Z" fill="#8996EB" stroke="#8996EB"/>
<path d="M25.6494 125.215C26.3192 125.215 26.8633 125.759 26.8633 126.432C26.863 127.104 26.3191 127.647 25.6494 127.647C24.9798 127.647 24.4358 127.104 24.4355 126.432C24.4355 125.759 24.9796 125.215 25.6494 125.215Z" fill="#8996EB" stroke="#8996EB"/>
<path d="M37.6221 125.215C38.2919 125.215 38.8359 125.759 38.8359 126.432C38.8357 127.104 38.2918 127.647 37.6221 127.647C36.9524 127.647 36.4084 127.104 36.4082 126.432C36.4082 125.759 36.9523 125.215 37.6221 125.215Z" fill="#8996EB" stroke="#8996EB"/>
<path d="M49.5869 125.215C50.2567 125.215 50.8008 125.759 50.8008 126.432C50.8005 127.104 50.2566 127.647 49.5869 127.647C48.9173 127.647 48.3733 127.104 48.373 126.432C48.373 125.759 48.9171 125.215 49.5869 125.215Z" fill="#8996EB" stroke="#8996EB"/>
<path d="M61.5596 125.215C62.2294 125.215 62.7734 125.759 62.7734 126.432C62.7732 127.104 62.2293 127.647 61.5596 127.647C60.8899 127.647 60.3459 127.104 60.3457 126.432C60.3457 125.759 60.8898 125.215 61.5596 125.215Z" fill="#8996EB" stroke="#8996EB"/>
<path d="M1.71387 137.195C2.38369 137.195 2.92773 137.74 2.92773 138.412C2.92749 139.084 2.38354 139.628 1.71387 139.628C1.04425 139.628 0.500241 139.084 0.5 138.412C0.5 137.74 1.0441 137.195 1.71387 137.195Z" fill="#8996EB" stroke="#8996EB"/>
<path d="M13.6865 137.195C14.3563 137.195 14.9004 137.74 14.9004 138.412C14.9001 139.084 14.3562 139.628 13.6865 139.628C13.0169 139.628 12.4729 139.084 12.4727 138.412C12.4727 137.74 13.0168 137.195 13.6865 137.195Z" fill="#8996EB" stroke="#8996EB"/>
<path d="M25.6494 137.195C26.3192 137.195 26.8633 137.74 26.8633 138.412C26.863 139.084 26.3191 139.628 25.6494 139.628C24.9798 139.628 24.4358 139.084 24.4355 138.412C24.4355 137.74 24.9796 137.195 25.6494 137.195Z" fill="#8996EB" stroke="#8996EB"/>
<path d="M37.6221 137.195C38.2919 137.195 38.8359 137.74 38.8359 138.412C38.8357 139.084 38.2918 139.628 37.6221 139.628C36.9525 139.628 36.4084 139.084 36.4082 138.412C36.4082 137.74 36.9523 137.195 37.6221 137.195Z" fill="#8996EB" stroke="#8996EB"/>
<path d="M49.5869 137.195C50.2567 137.195 50.8008 137.74 50.8008 138.412C50.8005 139.084 50.2566 139.628 49.5869 139.628C48.9173 139.628 48.3733 139.084 48.373 138.412C48.373 137.74 48.9171 137.195 49.5869 137.195Z" fill="#8996EB" stroke="#8996EB"/>
<path d="M61.5596 137.195C62.2294 137.195 62.7734 137.74 62.7734 138.412C62.7732 139.084 62.2292 139.628 61.5596 139.628C60.89 139.628 60.3459 139.084 60.3457 138.412C60.3457 137.74 60.8898 137.195 61.5596 137.195Z" fill="#8996EB" stroke="#8996EB"/>
<path d="M186.409 326.973C187.079 326.973 187.623 327.517 187.623 328.189C187.623 328.862 187.079 329.405 186.409 329.405C185.74 329.405 185.196 328.862 185.195 328.189C185.195 327.517 185.739 326.973 186.409 326.973Z" fill="#8996EB" stroke="#8996EB"/>
<path d="M198.382 326.973C199.052 326.973 199.596 327.517 199.596 328.189C199.595 328.862 199.052 329.405 198.382 329.405C197.712 329.405 197.168 328.862 197.168 328.189C197.168 327.517 197.712 326.973 198.382 326.973Z" fill="#8996EB" stroke="#8996EB"/>
<path d="M210.345 326.973C211.015 326.973 211.559 327.517 211.559 328.189C211.558 328.862 211.014 329.405 210.345 329.405C209.675 329.405 209.131 328.862 209.131 328.189C209.131 327.517 209.675 326.973 210.345 326.973Z" fill="#8996EB" stroke="#8996EB"/>
<path d="M222.317 326.973C222.987 326.973 223.531 327.517 223.531 328.189C223.531 328.862 222.987 329.405 222.317 329.405C221.648 329.405 221.104 328.862 221.104 328.189C221.104 327.517 221.648 326.973 222.317 326.973Z" fill="#8996EB" stroke="#8996EB"/>
<path d="M234.282 326.973C234.952 326.973 235.496 327.517 235.496 328.189C235.496 328.862 234.952 329.405 234.282 329.405C233.613 329.405 233.069 328.862 233.068 328.189C233.068 327.517 233.612 326.973 234.282 326.973Z" fill="#8996EB" stroke="#8996EB"/>
<path d="M186.409 338.961C187.079 338.961 187.623 339.505 187.623 340.178C187.623 340.85 187.079 341.394 186.409 341.394C185.74 341.393 185.196 340.85 185.195 340.178C185.195 339.505 185.739 338.961 186.409 338.961Z" fill="#8996EB" stroke="#8996EB"/>
<path d="M198.382 338.961C199.052 338.961 199.596 339.505 199.596 340.178C199.595 340.85 199.052 341.394 198.382 341.394C197.712 341.393 197.168 340.85 197.168 340.178C197.168 339.505 197.712 338.961 198.382 338.961Z" fill="#8996EB" stroke="#8996EB"/>
<path d="M210.345 338.961C211.015 338.961 211.559 339.505 211.559 340.178C211.558 340.85 211.014 341.394 210.345 341.394C209.675 341.393 209.131 340.85 209.131 340.178C209.131 339.505 209.675 338.961 210.345 338.961Z" fill="#8996EB" stroke="#8996EB"/>
<path d="M222.317 338.961C222.987 338.961 223.531 339.505 223.531 340.178C223.531 340.85 222.987 341.394 222.317 341.394C221.648 341.393 221.104 340.85 221.104 340.178C221.104 339.505 221.648 338.961 222.317 338.961Z" fill="#8996EB" stroke="#8996EB"/>
<path d="M234.282 338.961C234.952 338.961 235.496 339.505 235.496 340.178C235.496 340.85 234.952 341.394 234.282 341.394C233.613 341.393 233.069 340.85 233.068 340.178C233.068 339.505 233.612 338.961 234.282 338.961Z" fill="#8996EB" stroke="#8996EB"/>
<path d="M489.716 27.1797C490.386 27.1797 490.93 27.7241 490.93 28.3965C490.929 29.0687 490.385 29.6123 489.716 29.6123C489.046 29.6122 488.502 29.0686 488.502 28.3965C488.502 27.7241 489.046 27.1798 489.716 27.1797Z" fill="#8996EB" stroke="#8996EB"/>
<path d="M501.679 27.1797C502.349 27.1797 502.893 27.7241 502.893 28.3965C502.892 29.0687 502.348 29.6123 501.679 29.6123C501.009 29.6122 500.465 29.0686 500.465 28.3965C500.465 27.7241 501.009 27.1798 501.679 27.1797Z" fill="#8996EB" stroke="#8996EB"/>
<path d="M513.653 27.1797C514.323 27.1797 514.867 27.7241 514.867 28.3965C514.867 29.0687 514.323 29.6123 513.653 29.6123C512.984 29.6122 512.44 29.0686 512.439 28.3965C512.439 27.7241 512.984 27.1798 513.653 27.1797Z" fill="#8996EB" stroke="#8996EB"/>
<path d="M489.716 39.168C490.386 39.168 490.93 39.7123 490.93 40.3848C490.929 41.057 490.385 41.6006 489.716 41.6006C489.046 41.6005 488.502 41.0569 488.502 40.3848C488.502 39.7124 489.046 39.1681 489.716 39.168Z" fill="#8996EB" stroke="#8996EB"/>
<path d="M501.679 39.168C502.349 39.168 502.893 39.7124 502.893 40.3848C502.892 41.057 502.348 41.6006 501.679 41.6006C501.009 41.6005 500.465 41.0569 500.465 40.3848C500.465 39.7124 501.009 39.168 501.679 39.168Z" fill="#8996EB" stroke="#8996EB"/>
<path d="M513.651 39.168C514.321 39.168 514.865 39.7123 514.865 40.3848C514.865 41.057 514.321 41.6006 513.651 41.6006C512.982 41.6005 512.438 41.0569 512.438 40.3848C512.438 39.7124 512.982 39.168 513.651 39.168Z" fill="#8996EB" stroke="#8996EB"/>
<path d="M176.368 4.5C177.038 4.5 177.582 5.04437 177.582 5.7168C177.582 6.38901 177.038 6.93262 176.368 6.93262C175.699 6.93253 175.155 6.38894 175.154 5.7168C175.154 5.04445 175.698 4.50009 176.368 4.5Z" fill="#8996EB" stroke="#8996EB"/>
<path d="M188.331 4.5C189.001 4.5 189.545 5.04438 189.545 5.7168C189.545 6.389 189.001 6.93262 188.331 6.93262C187.661 6.93255 187.117 6.38896 187.117 5.7168C187.117 5.04443 187.661 4.50007 188.331 4.5Z" fill="#8996EB" stroke="#8996EB"/>
<path d="M200.304 4.5C200.974 4.5 201.518 5.04436 201.518 5.7168C201.517 6.38902 200.973 6.93262 200.304 6.93262C199.634 6.93255 199.09 6.38896 199.09 5.7168C199.09 5.04443 199.634 4.50007 200.304 4.5Z" fill="#8996EB" stroke="#8996EB"/>
<path d="M176.368 16.4883C177.038 16.4883 177.582 17.0327 177.582 17.7051C177.582 18.3773 177.038 18.9209 176.368 18.9209C175.699 18.9208 175.155 18.3772 175.154 17.7051C175.154 17.0327 175.698 16.4884 176.368 16.4883Z" fill="#8996EB" stroke="#8996EB"/>
<path d="M188.331 16.4883C189.001 16.4883 189.545 17.0327 189.545 17.7051C189.545 18.3773 189.001 18.9209 188.331 18.9209C187.661 18.9208 187.117 18.3772 187.117 17.7051C187.117 17.0327 187.661 16.4884 188.331 16.4883Z" fill="#8996EB" stroke="#8996EB"/>
<path d="M200.304 16.4883C200.974 16.4883 201.518 17.0326 201.518 17.7051C201.517 18.3773 200.973 18.9209 200.304 18.9209C199.634 18.9208 199.09 18.3772 199.09 17.7051C199.09 17.0327 199.634 16.4883 200.304 16.4883Z" fill="#8996EB" stroke="#8996EB"/>
<path d="M597.284 189.184C597.954 189.184 598.498 189.728 598.498 190.4C598.498 191.073 597.954 191.616 597.284 191.616C596.615 191.616 596.071 191.073 596.07 190.4C596.07 189.728 596.614 189.184 597.284 189.184Z" fill="#8996EB" stroke="#8996EB"/>
<path d="M597.284 201.172C597.954 201.172 598.498 201.716 598.498 202.389C598.498 203.061 597.954 203.604 597.284 203.604C596.615 203.604 596.071 203.061 596.07 202.389C596.07 201.716 596.614 201.172 597.284 201.172Z" fill="#8996EB" stroke="#8996EB"/>
<path d="M597.284 213.152C597.954 213.152 598.498 213.697 598.498 214.369C598.498 215.041 597.954 215.585 597.284 215.585C596.615 215.585 596.071 215.041 596.07 214.369C596.07 213.697 596.614 213.152 597.284 213.152Z" fill="#8996EB" stroke="#8996EB"/>
<path d="M597.284 225.141C597.954 225.141 598.498 225.685 598.498 226.357C598.498 227.03 597.954 227.573 597.284 227.573C596.615 227.573 596.071 227.03 596.07 226.357C596.07 225.685 596.614 225.141 597.284 225.141Z" fill="#8996EB" stroke="#8996EB"/>
<path d="M597.284 237.121C597.954 237.121 598.498 237.665 598.498 238.338C598.498 239.01 597.954 239.554 597.284 239.554C596.615 239.554 596.071 239.01 596.07 238.338C596.07 237.666 596.614 237.121 597.284 237.121Z" fill="#8996EB" stroke="#8996EB"/>
<path d="M597.284 249.109C597.954 249.109 598.498 249.654 598.498 250.326C598.498 250.998 597.954 251.542 597.284 251.542C596.615 251.542 596.071 250.998 596.07 250.326C596.07 249.654 596.614 249.109 597.284 249.109Z" fill="#8996EB" stroke="#8996EB"/>
<path d="M597.284 261.09C597.954 261.09 598.498 261.634 598.498 262.307C598.498 262.979 597.954 263.522 597.284 263.522C596.615 263.522 596.071 262.979 596.07 262.307C596.07 261.634 596.614 261.09 597.284 261.09Z" fill="#8996EB" stroke="#8996EB"/>
<path d="M585.312 189.184C585.981 189.184 586.525 189.728 586.525 190.4C586.525 191.073 585.981 191.616 585.312 191.616C584.642 191.616 584.098 191.073 584.098 190.4C584.098 189.728 584.642 189.184 585.312 189.184Z" fill="#8996EB" stroke="#8996EB"/>
<path d="M585.312 201.172C585.981 201.172 586.525 201.716 586.525 202.389C586.525 203.061 585.981 203.604 585.312 203.604C584.642 203.604 584.098 203.061 584.098 202.389C584.098 201.716 584.642 201.172 585.312 201.172Z" fill="#8996EB" stroke="#8996EB"/>
<path d="M585.312 213.152C585.981 213.152 586.525 213.697 586.525 214.369C586.525 215.041 585.981 215.585 585.312 215.585C584.642 215.585 584.098 215.041 584.098 214.369C584.098 213.697 584.642 213.152 585.312 213.152Z" fill="#8996EB" stroke="#8996EB"/>
<path d="M585.312 225.141C585.981 225.141 586.525 225.685 586.525 226.357C586.525 227.03 585.981 227.573 585.312 227.573C584.642 227.573 584.098 227.03 584.098 226.357C584.098 225.685 584.642 225.141 585.312 225.141Z" fill="#8996EB" stroke="#8996EB"/>
<path d="M585.312 237.121C585.981 237.121 586.525 237.665 586.525 238.338C586.525 239.01 585.981 239.554 585.312 239.554C584.642 239.554 584.098 239.01 584.098 238.338C584.098 237.666 584.642 237.121 585.312 237.121Z" fill="#8996EB" stroke="#8996EB"/>
<path d="M585.312 249.109C585.981 249.109 586.525 249.654 586.525 250.326C586.525 250.998 585.981 251.542 585.312 251.542C584.642 251.542 584.098 250.998 584.098 250.326C584.098 249.654 584.642 249.109 585.312 249.109Z" fill="#8996EB" stroke="#8996EB"/>
<path d="M585.312 261.09C585.981 261.09 586.525 261.634 586.525 262.307C586.525 262.979 585.981 263.522 585.312 263.522C584.642 263.522 584.098 262.979 584.098 262.307C584.098 261.634 584.642 261.09 585.312 261.09Z" fill="#8996EB" stroke="#8996EB"/>
<path d="M573.349 189.184C574.018 189.184 574.562 189.728 574.562 190.4C574.562 191.073 574.018 191.616 573.349 191.616C572.679 191.616 572.135 191.073 572.135 190.4C572.135 189.728 572.679 189.184 573.349 189.184Z" fill="#8996EB" stroke="#8996EB"/>
<path d="M573.349 201.172C574.018 201.172 574.562 201.716 574.562 202.389C574.562 203.061 574.018 203.604 573.349 203.604C572.679 203.604 572.135 203.061 572.135 202.389C572.135 201.716 572.679 201.172 573.349 201.172Z" fill="#8996EB" stroke="#8996EB"/>
<path d="M573.349 213.152C574.018 213.152 574.562 213.697 574.562 214.369C574.562 215.041 574.018 215.585 573.349 215.585C572.679 215.585 572.135 215.041 572.135 214.369C572.135 213.697 572.679 213.152 573.349 213.152Z" fill="#8996EB" stroke="#8996EB"/>
<path d="M573.349 225.141C574.018 225.141 574.562 225.685 574.562 226.357C574.562 227.03 574.018 227.573 573.349 227.573C572.679 227.573 572.135 227.03 572.135 226.357C572.135 225.685 572.679 225.141 573.349 225.141Z" fill="#8996EB" stroke="#8996EB"/>
<path d="M573.349 237.121C574.018 237.121 574.562 237.665 574.562 238.338C574.562 239.01 574.018 239.554 573.349 239.554C572.679 239.554 572.135 239.01 572.135 238.338C572.135 237.666 572.679 237.121 573.349 237.121Z" fill="#8996EB" stroke="#8996EB"/>
<path d="M573.349 249.109C574.018 249.109 574.562 249.654 574.562 250.326C574.562 250.998 574.018 251.542 573.349 251.542C572.679 251.542 572.135 250.998 572.135 250.326C572.135 249.654 572.679 249.109 573.349 249.109Z" fill="#8996EB" stroke="#8996EB"/>
<path d="M573.349 261.09C574.018 261.09 574.562 261.634 574.562 262.307C574.562 262.979 574.018 263.522 573.349 263.522C572.679 263.522 572.135 262.979 572.135 262.307C572.135 261.634 572.679 261.09 573.349 261.09Z" fill="#8996EB" stroke="#8996EB"/>
<path d="M561.376 189.184C562.046 189.184 562.59 189.728 562.59 190.4C562.59 191.073 562.046 191.616 561.376 191.616C560.706 191.616 560.162 191.073 560.162 190.4C560.162 189.728 560.706 189.184 561.376 189.184Z" fill="#8996EB" stroke="#8996EB"/>
<path d="M561.376 201.172C562.046 201.172 562.59 201.716 562.59 202.389C562.59 203.061 562.046 203.604 561.376 203.604C560.706 203.604 560.162 203.061 560.162 202.389C560.162 201.716 560.706 201.172 561.376 201.172Z" fill="#8996EB" stroke="#8996EB"/>
<path d="M561.376 213.152C562.046 213.152 562.59 213.697 562.59 214.369C562.59 215.041 562.046 215.585 561.376 215.585C560.706 215.585 560.162 215.041 560.162 214.369C560.162 213.697 560.706 213.152 561.376 213.152Z" fill="#8996EB" stroke="#8996EB"/>
<path d="M561.376 225.141C562.046 225.141 562.59 225.685 562.59 226.357C562.59 227.03 562.046 227.573 561.376 227.573C560.706 227.573 560.162 227.03 560.162 226.357C560.162 225.685 560.706 225.141 561.376 225.141Z" fill="#8996EB" stroke="#8996EB"/>
<path d="M561.376 237.121C562.046 237.121 562.59 237.665 562.59 238.338C562.59 239.01 562.046 239.554 561.376 239.554C560.706 239.554 560.162 239.01 560.162 238.338C560.162 237.666 560.706 237.121 561.376 237.121Z" fill="#8996EB" stroke="#8996EB"/>
<path d="M561.376 249.109C562.046 249.109 562.59 249.654 562.59 250.326C562.59 250.998 562.046 251.542 561.376 251.542C560.706 251.542 560.162 250.998 560.162 250.326C560.162 249.654 560.706 249.109 561.376 249.109Z" fill="#8996EB" stroke="#8996EB"/>
<path d="M561.376 261.09C562.046 261.09 562.59 261.634 562.59 262.307C562.59 262.979 562.046 263.522 561.376 263.522C560.706 263.522 560.162 262.979 560.162 262.307C560.162 261.634 560.706 261.09 561.376 261.09Z" fill="#8996EB" stroke="#8996EB"/>
<path d="M148.286 49.7617H459.059C464.669 49.7619 469.228 54.3564 469.228 60.0303V251.573C469.218 257.248 464.659 261.842 459.049 261.842H148.286C142.676 261.842 138.117 257.247 138.117 251.573V60.0303C138.117 54.5335 142.396 50.05 147.764 49.7754L148.286 49.7617Z" fill="#04D361" stroke="#04D361"/>
<path d="M458.599 253.267H148.732C143.926 253.267 140.023 249.359 140.023 244.547V60.0717C140.023 55.2597 143.926 51.3516 148.732 51.3516H458.599C463.405 51.3516 467.307 55.2597 467.307 60.0717V244.547C467.307 249.368 463.405 253.267 458.599 253.267Z" fill="white"/>
<path d="M356.692 68.6118V198.766C356.692 202.692 353.519 205.87 349.598 205.87H153.895C152.135 205.87 150.521 205.231 149.281 204.162C147.767 202.857 146.801 200.93 146.801 198.766V68.6118C146.801 64.6854 149.983 61.5078 153.895 61.5078H349.598C351.358 61.5078 352.981 62.147 354.212 63.2153C355.735 64.5211 356.692 66.4477 356.692 68.6118Z" fill="#F0F0F5"/>
<path d="M453.5 117.143H372.491C368.57 117.143 365.396 113.966 365.396 110.039V68.6118C365.396 64.6854 368.57 61.5078 372.491 61.5078H453.5C457.421 61.5078 460.594 64.6854 460.594 68.6118V110.039C460.594 113.966 457.412 117.143 453.5 117.143Z" fill="#F0F0F5"/>
<path d="M405.666 79.668L408.583 82.5846M416.749 82.5846C415.663 81.5197 414.2 80.9266 412.678 80.9343C411.157 80.942 409.7 81.5498 408.624 82.6257C407.548 83.7016 406.94 85.1585 406.932 86.68C406.925 88.2016 407.518 89.6646 408.583 90.7513M418.499 80.8346L406.833 92.5013M417.333 94.8346V94.8463M412.666 93.668V93.6796M416.166 90.168V90.1796M419.666 86.668V86.6796M413.833 98.3346V98.3463M420.833 91.3346V91.3463M424.333 87.8346V87.8463" stroke="#2E3DA3" stroke-width="2" stroke-linecap="round" stroke-linejoin="round"/>
<path d="M453.5 182.636H372.491C368.57 182.636 365.396 179.458 365.396 175.532V134.104C365.396 130.178 368.57 127 372.491 127H453.5C457.421 127 460.594 130.178 460.594 134.104V175.532C460.594 179.458 457.412 182.636 453.5 182.636Z" fill="#F0F0F5"/>
<path d="M453.5 244.691H372.491C368.57 244.691 365.396 241.513 365.396 237.587V200.104C365.396 196.178 368.57 193 372.491 193H453.5C457.421 193 460.594 196.178 460.594 200.104V237.587C460.594 241.513 457.412 244.691 453.5 244.691Z" fill="#F0F0F5"/>
<path d="M253.826 219.841H149.382C147.959 219.841 146.811 218.691 146.811 217.266C146.811 215.842 147.959 214.691 149.382 214.691H253.826C255.249 214.691 256.398 215.842 256.398 217.266C256.398 218.682 255.249 219.841 253.826 219.841Z" fill="#F0F0F5"/>
<path d="M259.854 244H149.485C147.982 244 146.768 242.884 146.768 241.501V231.499C146.768 230.116 147.982 229 149.485 229H259.854C261.357 229 262.571 230.116 262.571 231.499V241.501C262.571 242.884 261.357 244 259.854 244Z" fill="#F0F0F5"/>
<path d="M331.152 219.841H354.121C355.544 219.841 356.693 218.691 356.693 217.266C356.693 215.842 355.544 214.691 354.121 214.691H331.152C329.729 214.691 328.58 215.842 328.58 217.266C328.58 218.682 329.729 219.841 331.152 219.841Z" fill="#F0F0F5"/>
<path d="M292.187 219.841H315.156C316.579 219.841 317.728 218.691 317.728 217.266C317.728 215.842 316.579 214.691 315.156 214.691H292.187C290.764 214.691 289.615 215.842 289.615 217.266C289.606 218.682 290.764 219.841 292.187 219.841Z" fill="#F0F0F5"/>
<path d="M308.564 244.111H354.12C355.543 244.111 356.691 242.961 356.691 241.536V231.227C356.691 229.803 355.543 228.652 354.12 228.652H308.564C307.141 228.652 305.992 229.803 305.992 231.227V241.536C305.992 242.961 307.141 244.111 308.564 244.111Z" fill="#F0F0F5"/>
<path d="M354.212 63.2153L149.281 204.162C147.767 202.857 146.801 200.93 146.801 198.766V68.6118C146.801 64.6854 149.983 61.5078 153.895 61.5078H349.598C351.358 61.5078 352.981 62.147 354.212 63.2153Z" fill="#F5F5FA"/>
<path d="M410.667 157.665V155.332C410.667 154.713 410.913 154.12 411.351 153.682C411.788 153.245 412.382 152.999 413.001 152.999H422.334C422.953 152.999 423.546 152.753 423.984 152.315C424.421 151.878 424.667 151.284 424.667 150.665V147.165C424.667 146.547 424.421 145.953 423.984 145.515C423.546 145.078 422.953 144.832 422.334 144.832H420.001M403.667 141.332H417.667C418.956 141.332 420.001 142.377 420.001 143.665V145.999C420.001 147.287 418.956 148.332 417.667 148.332H403.667C402.379 148.332 401.334 147.287 401.334 145.999V143.665C401.334 142.377 402.379 141.332 403.667 141.332ZM409.501 157.665H411.834C412.478 157.665 413.001 158.188 413.001 158.832V163.499C413.001 164.143 412.478 164.665 411.834 164.665H409.501C408.856 164.665 408.334 164.143 408.334 163.499V158.832C408.334 158.188 408.856 157.665 409.501 157.665Z" stroke="#2E3DA3" stroke-width="2" stroke-linecap="round" stroke-linejoin="round"/>
<mask id="mask0_202_401" style="mask-type:alpha" maskUnits="userSpaceOnUse" x="147" y="32" width="210" height="175">
<path d="M356.947 40.8183V197.587C356.947 202.316 353.779 206.143 349.865 206.143H154.511C152.755 206.143 151.143 205.373 149.906 204.086C148.395 202.514 147.43 200.193 147.43 197.587V40.8183C147.43 36.0891 150.606 32.2617 154.511 32.2617H349.865C351.622 32.2617 353.242 33.0316 354.471 34.3184C355.991 35.8911 356.947 38.2117 356.947 40.8183Z" fill="#A3D1DE"/>
</mask>
<g mask="url(#mask0_202_401)">
<path d="M340.441 142.969C340.441 142.969 352.141 133.719 352.451 131.071C353.034 126.085 354.821 122.177 365.527 118.872C365.527 118.872 366.356 120.461 364.87 122.187C363.247 124.058 361.961 124.716 361.961 124.716C361.961 124.716 364.797 125.802 369.019 122.497C373.241 119.201 375.019 116.333 376.797 117.037C376.797 117.037 378.894 115.137 379.888 115.439C379.888 115.439 380.618 115.658 380.481 116.443C382.131 116.187 381.794 120.954 378.858 124.825C374.636 130.395 369.366 135.189 365.052 136.769C361.815 137.956 348.438 151.589 348.438 151.589L340.441 142.969Z" fill="#FFCAD0"/>
<path d="M304.313 190.157C299.206 191.883 270.875 148.254 270.875 148.254C259.923 135.635 269.753 94.0707 279.665 108.644C279.665 108.644 305.443 155.34 308.225 159.102C311.68 163.777 323.179 183.774 304.313 190.157Z" fill="#04D361"/>
<path d="M272.389 233.465H197.689C197.689 233.465 191.954 230.936 196.942 219.906C198.811 215.788 197.999 205.177 197.689 190.613C197.06 161.814 188.525 114.013 199.057 108.534C205.367 105.238 218.771 100.901 228.501 97.9331C229.085 97.7687 229.65 97.5952 230.206 97.4309C235.887 95.7325 239.945 94.6094 239.945 94.6094C239.945 94.6094 244.65 95.2942 254.206 98.1248C254.726 98.2801 255.264 98.4444 255.82 98.6088C258.31 99.3666 261.082 100.252 264.164 101.302C280.869 106.991 278.991 104.964 281.206 125.856C282.975 142.538 272.389 233.465 272.389 233.465Z" fill="#04D361"/>
<path d="M255.821 98.5996C255.602 102.142 254.015 105.274 251.599 107.566C249.146 109.913 245.817 111.337 242.188 111.337C234.702 111.337 228.647 105.338 228.492 97.9331C229.076 97.7687 229.641 97.5952 230.197 97.4309C235.878 95.7325 239.936 94.6094 239.936 94.6094C239.936 94.6094 244.641 95.2942 254.197 98.1248C254.717 98.2709 255.264 98.4353 255.821 98.5996Z" fill="#F5F5FA"/>
<path d="M254.18 68.697L253.003 91.4516L252.666 97.9438C252.529 100.701 251.316 103.158 249.438 104.929C247.578 106.701 245.061 107.778 242.307 107.778C236.48 107.778 231.784 102.966 231.939 97.1403L232.231 85.553L232.723 66.3047L254.18 68.697Z" fill="#FBD5D9"/>
<path d="M254.179 73.2413L253.003 94.6719C242.936 95.0736 235.595 90.9829 232.23 85.5225L232.723 70.8672L254.179 73.2413Z" fill="#FFA4AD"/>
<path d="M226.04 46.416C226.04 46.416 216.393 45.2107 217.496 57.3185C218.353 66.7053 231.092 79.2331 231.092 79.2331C231.092 79.2331 239.134 50.945 226.04 46.416Z" fill="#8F4A3F"/>
<path d="M265.44 55.1343C264.784 56.6318 263.772 57.9375 262.942 59.3437C262.121 60.7499 261.465 62.3569 261.647 63.9823C261.483 61.3434 259.741 59.1245 258.237 56.9605C256.732 54.7873 255.364 52.1575 256.085 49.6191C256.768 47.1811 261.173 43.3369 263.854 44.9166C266.835 46.6698 266.607 52.4771 265.44 55.1343Z" fill="#0E1235"/>
<path d="M262.166 55.6194C262.166 55.6194 262.914 63.0338 261.875 71.2426C260.671 80.7298 261.099 91.8697 247.139 92.6185C232.239 93.4129 227.306 76.7122 227.306 76.7122C227.306 76.7122 219.391 75.2329 218.853 69.8821C218.315 64.5222 223.841 64.2209 225.646 65.7275C225.646 65.7275 227.689 45.7578 246.118 45.7578C262.376 45.7396 262.166 55.6194 262.166 55.6194Z" fill="#FBD5D9"/>
<path d="M244.659 70.8618C244.659 71.6743 244.003 72.3408 243.182 72.3408C242.362 72.3408 241.705 71.6834 241.705 70.8618C241.705 70.0493 242.362 69.3828 243.182 69.3828C244.003 69.3828 244.659 70.0493 244.659 70.8618Z" fill="#9A5449"/>
<path d="M258.009 70.8618C258.009 71.6743 257.352 72.3408 256.532 72.3408C255.711 72.3408 255.055 71.6834 255.055 70.8618C255.055 70.0493 255.711 69.3828 256.532 69.3828C257.352 69.3828 258.009 70.0493 258.009 70.8618Z" fill="#9A5449"/>
<path d="M237.811 65.7204C237.811 65.7204 239.999 62.1136 244.659 63.4102" stroke="#561E15" stroke-width="1.0274" stroke-miterlimit="10" stroke-linecap="round" stroke-linejoin="round"/>
<path d="M252.693 63.3553C252.693 63.3553 256.058 60.2781 259.368 63.6475" stroke="#561E15" stroke-width="1.0274" stroke-miterlimit="10" stroke-linecap="round" stroke-linejoin="round"/>
<path d="M249.738 67.0156C249.738 67.0156 251.334 71.0972 252.693 73.6356C254.051 76.1741 250.039 77.3063 250.039 77.3063" stroke="#D66D78" stroke-width="0.7706" stroke-miterlimit="10" stroke-linecap="round" stroke-linejoin="round"/>
<path d="M244.395 81.875C244.395 81.875 247.686 85.0709 251.917 83.1168" stroke="#D66D78" stroke-width="0.7706" stroke-miterlimit="10" stroke-linecap="round" stroke-linejoin="round"/>
<path d="M225.382 71.6002C225.382 71.6002 225.336 67.0081 221.908 68.2589" stroke="#D66D78" stroke-width="0.7706" stroke-miterlimit="10" stroke-linecap="round" stroke-linejoin="round"/>
<path d="M229.906 50.25C229.906 50.25 238.286 58.7967 233.7 62.0656C228.593 65.7089 227.8 70.8588 227.8 70.8588C227.8 70.8588 227.909 69.0417 225.639 65.718C223.368 62.3852 218.417 50.5696 229.906 50.25Z" fill="#8F4A3F"/>
<path d="M304.314 190.155C310.405 194.127 356.7 144.609 356.7 144.609L348.484 133.844C348.484 133.844 313.287 155.959 308.226 159.1C300.931 163.62 283.825 176.805 304.314 190.155Z" fill="#04D361"/>
<path d="M279.693 161.365C279.693 161.365 281.763 138.729 281.408 131.543C281.408 131.543 284.353 150.545 284.426 168.104L279.693 161.365Z" fill="#03A14A"/>
<path d="M201.465 153.65C201.465 153.65 212.307 107.164 200.708 107.712C200.708 107.712 196.924 108.168 189.52 119.674C184.34 127.718 178.669 141.661 168.328 164.343C163.441 175.063 157.331 189.572 168.675 190.348C174.812 190.768 181.249 187.408 185.043 180.349C191.991 167.42 201.465 153.65 201.465 153.65Z" fill="#04D361"/>
<path d="M211.168 211.515L270.174 197.59C270.165 197.59 251.609 211.515 211.168 211.515Z" fill="#03A14A"/>
<path d="M195.318 162.991C195.318 162.991 204.838 146.107 209.899 137.871L198.017 202.455C198.017 202.455 196.859 176.075 195.318 162.991Z" fill="#03A14A"/>
<path d="M233.262 184.989L197.973 201.489L199.787 184.523L233.262 184.989Z" fill="#03A14A"/>
<path d="M248.344 147.41H260.727C262.862 147.41 264.496 149.287 264.232 151.383L264.201 151.586V151.587L258.374 183.445C258.062 185.126 256.599 186.34 254.899 186.34H242.517C240.381 186.34 238.747 184.463 239.011 182.367L239.042 182.164L244.869 150.306V150.305C245.172 148.626 246.633 147.41 248.344 147.41Z" fill="#04D361" stroke="#04D361"/>
<path d="M256.431 188.192H244.048C241.531 188.192 239.625 185.909 240.081 183.425L245.908 151.567C246.255 149.65 247.923 148.262 249.875 148.262H262.258C264.774 148.262 266.68 150.544 266.224 153.028L260.398 184.886C260.051 186.804 258.382 188.192 256.431 188.192Z" fill="white"/>
<path d="M248.918 151.547H251.134C251.284 151.547 251.399 151.665 251.404 151.805L251.399 151.865L251.398 151.87L249.977 159.649L249.976 159.653C249.954 159.775 249.846 159.87 249.711 159.87H247.495C247.345 159.87 247.23 159.751 247.225 159.611L247.229 159.551L247.23 159.547L248.653 151.767V151.763C248.675 151.641 248.783 151.547 248.918 151.547Z" fill="#04D361" stroke="#04D361"/>
<path d="M221.627 170.96C221.627 170.96 227.663 170.759 232.287 169.344C234.274 168.732 238.214 168.02 239.518 166.13C240.831 164.222 240.712 160.103 242.025 159.93C243.037 159.793 245.062 163.016 244.542 165.189C244.031 167.317 243.785 168.495 243.01 169.445C242.755 169.764 251.262 170.367 256.651 169.18C260.344 168.367 259.25 172.029 256.743 173.179C256.743 173.179 257.636 175.416 255.019 176.174C255.019 176.174 255.047 179.16 252.548 179.297C252.265 179.991 251.782 181.47 249.621 182C246.475 182.776 241.724 183.068 236.937 182.639C234.502 182.42 223.268 184.392 223.268 184.392L221.627 170.96Z" fill="#FFCAD0"/>
<path d="M168.31 190.521C176.927 192.027 228.292 186.22 228.292 186.22L227.015 168.223C227.015 168.223 185.161 170.177 179.58 169.674C161.124 168.04 157.586 188.649 168.31 190.521Z" fill="#04D361"/>
<path d="M231.938 36.6812C232.823 35.7955 233.808 34.855 235.048 34.718C236.288 34.5811 237.701 35.7407 237.291 36.9277C241.513 35.0924 245.926 33.7227 250.44 32.8461C251.571 32.627 252.793 32.4444 253.841 32.9466C254.881 33.4488 255.528 34.9006 254.817 35.8046C257.005 36.6264 259.431 36.0877 261.756 35.8137C264.081 35.5398 266.735 35.6585 268.312 37.3843C269.78 38.9822 269.808 41.3928 269.762 43.566C269.689 46.5427 269.616 49.5377 268.942 52.4414C267.938 56.733 265.604 60.6959 262.331 63.6452C263.306 60.3033 261.565 56.5961 258.82 54.4503C256.084 52.2953 252.555 51.4461 249.099 51.0535C244.96 50.5787 240.747 50.6883 236.625 51.364C233.516 51.8753 229.075 54.0941 225.984 52.688C219.136 49.5834 229.294 39.3292 231.938 36.6812Z" fill="#8F4A3F"/>
</g>
<path d="M337.797 75.1556H294.922C291.639 75.1556 288.977 72.4893 288.977 69.2021V51.1956C288.977 47.9085 291.639 45.2422 294.922 45.2422H337.797C341.08 45.2422 343.743 47.9085 343.743 51.1956V69.2021C343.743 72.4893 341.08 75.1556 337.797 75.1556Z" fill="#04D361"/>
<path d="M298.15 73.2211V81.4208L306.922 72.6367L298.15 73.2211Z" fill="#04D361"/>
<path d="M301.57 63.6217C303.458 63.6217 304.989 62.0887 304.989 60.1976C304.989 58.3065 303.458 56.7734 301.57 56.7734C299.681 56.7734 298.15 58.3065 298.15 60.1976C298.15 62.0887 299.681 63.6217 301.57 63.6217Z" fill="#F0F0F5"/>
<path d="M316.361 63.6217C318.249 63.6217 319.78 62.0887 319.78 60.1976C319.78 58.3065 318.249 56.7734 316.361 56.7734C314.472 56.7734 312.941 58.3065 312.941 60.1976C312.941 62.0887 314.472 63.6217 316.361 63.6217Z" fill="#F0F0F5"/>
<path d="M331.15 63.6217C333.038 63.6217 334.569 62.0887 334.569 60.1976C334.569 58.3065 333.038 56.7734 331.15 56.7734C329.261 56.7734 327.73 58.3065 327.73 60.1976C327.73 62.0887 329.261 63.6217 331.15 63.6217Z" fill="#F0F0F5"/>
<path d="M406 225C405.735 225 405.48 225.105 405.293 225.293C405.105 225.48 405 225.735 405 226C405 226.796 405.316 227.559 405.879 228.121C406.441 228.684 407.204 229 408 229H413C413.265 229 413.52 228.895 413.707 228.707C413.895 228.52 414 228.265 414 228V226C414 225.735 413.895 225.48 413.707 225.293C413.52 225.105 413.265 225 413 225H406ZM406 225L408 217M416 217H407C406.47 217 405.961 216.789 405.586 216.414C405.211 216.039 405 215.53 405 215V211C405 210.47 405.211 209.961 405.586 209.586C405.961 209.211 406.47 209 407 209H416C416.265 209 416.52 209.105 416.707 209.293C416.895 209.48 417 209.735 417 210V216C417 216.265 416.895 216.52 416.707 216.707C416.52 216.895 416.265 217 416 217ZM416 217L415.19 220.242C415.136 220.458 415.011 220.651 414.835 220.788C414.66 220.925 414.443 221 414.22 221H411M417 211H420C420.265 211 420.52 211.105 420.707 211.293C420.895 211.48 421 211.735 421 212V214C421 214.265 420.895 214.52 420.707 214.707C420.52 214.895 420.265 215 420 215H417M421 213H425M410 225L412 217" stroke="#2E3DA3" stroke-width="2" stroke-linecap="round" stroke-linejoin="round"/>
<path d="M455.737 318.879L453.795 342.538H463.871L469.105 318.879H455.737Z" fill="#FEC9CF"/>
<path d="M464.965 337.588C464.965 337.588 469.342 344.664 466.06 345.925C462.777 347.185 441.166 347.294 435.832 346.5C430.497 345.696 447.731 338.382 451.671 337.232C455.619 336.081 456.886 342.08 464.965 337.588Z" fill="#2E3DA3"/>
<path d="M508.716 318.879L510.649 342.538H500.573L495.348 318.879H508.716Z" fill="#FEC9CF"/>
<path d="M499.479 337.588C499.479 337.588 495.102 344.664 498.385 345.925C501.668 347.185 523.279 347.294 528.613 346.5C533.947 345.696 516.713 338.382 512.774 337.232C508.835 336.081 507.558 342.08 499.479 337.588Z" fill="#2E3DA3"/>
<path d="M453.713 189.52L449.145 331.371H470.418L475.005 236.891L493.233 334.083L516.403 330.22C516.403 330.22 495.485 224.199 491.929 189.529H453.713V189.52Z" fill="#D8D8E3"/>
<path d="M474.502 236.902L474.027 243.398L473.304 228.098L474.502 236.902Z" fill="#194248" stroke="#E1E1E8"/>
<path d="M485.09 189.52L509.71 331.015" stroke="#E1E1E8" stroke-miterlimit="10" stroke-linecap="round" stroke-linejoin="round"/>
<path d="M479.965 84.9609C484.506 84.9701 489.33 87.3533 490.862 91.6357C492.047 94.9321 491.153 98.8219 492.813 101.908C494.035 104.191 496.479 105.661 497.582 107.999C499.862 112.856 495.421 118.627 496.834 123.795C498.138 128.58 504.056 131.319 504.549 136.259C504.868 139.409 502.652 142.432 499.798 143.802C496.953 145.18 493.615 145.171 490.497 144.651C482.846 143.363 475.643 139.163 467.892 139.565C464.7 139.729 461.363 140.66 458.409 139.428C456.302 138.551 454.779 136.698 453.439 134.853C451.898 132.735 450.421 130.324 450.567 127.713C450.776 123.878 454.251 121.193 456.33 117.97C458.454 114.673 459.348 110.555 458.755 106.675C455.937 88.2299 466.296 88.796 467.618 88.7686C468.831 88.7412 472.862 86.2667 474.457 85.801C476.263 85.2805 478.105 84.9609 479.965 84.9609Z" fill="#D38D00"/>
<path d="M431.299 162.345C426.913 158.848 409.077 147.032 408.904 145.379C408.576 142.275 407.49 139.818 400.843 137.7C400.843 137.7 400.314 138.686 401.235 139.773C402.229 140.951 403.031 141.362 403.031 141.362C403.031 141.362 401.262 142.019 398.655 139.937C396.047 137.855 394.962 136.056 393.849 136.486C393.849 136.486 392.554 135.289 391.934 135.472C391.934 135.472 391.478 135.6 391.56 136.093C390.53 135.92 390.712 138.887 392.509 141.325C395.098 144.822 399.667 147.489 402.348 148.502C404.354 149.26 417.512 168.746 426.329 170.855C428.864 171.439 433.342 163.97 431.299 162.345Z" fill="#FCDDC6"/>
<path d="M445.095 145.059C445.095 145.059 425.381 158.828 423.475 162.252C421.569 165.677 422.991 174.817 431.773 168.945C440.554 163.074 454.414 152.418 454.414 152.418L445.095 145.059Z" fill="#FCDDC6"/>
<path d="M455.226 132.523C455.226 132.523 449.81 133.893 446.199 138.194C443.171 141.801 438.293 147.608 438.293 147.608L453.247 159.241C453.257 159.232 456.904 138.084 455.226 132.523Z" fill="#5165E1"/>
<path d="M491.929 189.521H453.704C453.704 189.521 453.859 182.956 451.734 172.757C449.6 162.567 450.667 157.234 452.792 151.911C454.925 146.587 451.123 134.279 455.226 132.525C456.895 131.813 459.795 130.663 462.64 129.558C463.36 129.284 464.071 129.001 464.755 128.736C468.056 127.458 470.837 126.398 470.837 126.398H477.722C477.722 126.398 482.464 127.969 487.333 129.914C487.971 130.17 488.619 130.434 489.257 130.699C489.257 130.708 489.257 130.708 489.257 130.708C491.71 131.74 494.053 132.827 495.649 133.822C500.819 137.018 491.929 189.521 491.929 189.521Z" fill="#2E3DA3"/>
<path d="M468.521 109.46L469.251 123.631L469.461 127.676C469.552 129.393 470.3 130.927 471.467 132.032C472.625 133.137 474.193 133.803 475.908 133.803C479.537 133.803 482.455 130.808 482.364 127.183L482.181 119.97L481.871 107.98L468.521 109.46Z" fill="#FFDFC8"/>
<path d="M468.521 109.46L469.251 122.809C475.515 123.065 480.093 120.508 482.19 117.112L481.88 107.98L468.521 109.46Z" fill="#DA9F74"/>
<path d="M463.543 98.4825C463.543 98.4825 463.077 103.103 463.725 108.207C464.473 114.115 465.129 120.881 472.907 121.52C482.172 122.278 485.263 111.613 485.263 111.613C485.263 111.613 489.567 110.609 490.096 107.668C490.625 104.719 487.415 103.833 486.293 104.765C486.293 104.765 485.017 92.3281 473.546 92.3281C463.406 92.3281 463.543 98.4825 463.543 98.4825Z" fill="#FFDFC8"/>
<path d="M489.258 130.699C489.258 130.708 489.258 130.708 489.258 130.699C481.416 140.269 472.17 139.821 472.17 139.821C464.875 138.223 462.641 129.558 462.641 129.558C463.361 129.284 464.072 129.001 464.756 128.736C468.057 127.458 470.838 126.398 470.838 126.398H477.723C477.723 126.398 482.464 127.969 487.334 129.914C487.972 130.17 488.619 130.434 489.258 130.699Z" fill="#04D361"/>
<path d="M487.333 129.914C479.336 138.616 472.406 137.703 472.406 137.703C464.956 134.845 464.756 128.736 464.756 128.736C468.057 127.458 470.838 126.398 470.838 126.398H477.722C477.722 126.398 482.464 127.969 487.333 129.914Z" fill="#FCDDC6"/>
<path d="M467.536 89.6445C467.536 89.6445 468.603 98.6386 462.831 101.606C462.831 101.606 459.94 90.7129 467.536 89.6445Z" fill="#D38D00"/>
<path d="M465.785 90.5031C465.785 90.5031 467.837 98.3376 472.925 98.7941C478.013 99.2507 477.11 103.378 481.615 103.853C484.296 104.136 485.49 106.93 485.49 106.93C485.49 106.93 485.883 104.154 488.308 103.168C490.752 102.182 482.572 81.4451 465.785 90.5031Z" fill="#D38D00"/>
<path d="M474.422 109.358C474.422 109.851 474.814 110.244 475.306 110.244C475.799 110.244 476.191 109.851 476.191 109.358C476.191 108.865 475.799 108.473 475.306 108.473C474.823 108.473 474.422 108.874 474.422 109.358Z" fill="#60423D"/>
<path d="M466.416 109.358C466.416 109.851 466.808 110.244 467.3 110.244C467.793 110.244 468.185 109.851 468.185 109.358C468.185 108.865 467.784 108.473 467.3 108.473C466.808 108.473 466.416 108.874 466.416 109.358Z" fill="#60423D"/>
<path d="M478.534 106.271C478.534 106.271 477.221 104.107 474.422 104.883" stroke="#561E15" stroke-miterlimit="10" stroke-linecap="round" stroke-linejoin="round"/>
<path d="M469.606 104.856C469.606 104.856 467.582 103.012 465.604 105.03" stroke="#561E15" stroke-miterlimit="10" stroke-linecap="round" stroke-linejoin="round"/>
<path d="M471.376 107.059C471.376 107.059 470.418 109.506 469.607 111.031C468.795 112.555 471.202 113.231 471.202 113.231" stroke="#DA9F74" stroke-width="0.75" stroke-miterlimit="10" stroke-linecap="round" stroke-linejoin="round"/>
<path d="M476.682 114.965C476.682 114.965 475.123 117.238 472.406 116.59" stroke="#DA9F74" stroke-width="0.75" stroke-miterlimit="10" stroke-linecap="round" stroke-linejoin="round"/>
<path d="M486.266 108.737C486.266 108.737 486.293 105.98 488.344 106.737" stroke="#DA9F74" stroke-width="0.75" stroke-miterlimit="10" stroke-linecap="round" stroke-linejoin="round"/>
<path d="M454.489 180.407H419.473C418.78 180.407 418.215 179.841 418.215 179.147C418.215 178.453 418.78 177.887 419.473 177.887H454.489C455.182 177.887 455.747 178.453 455.747 179.147C455.738 179.85 455.182 180.407 454.489 180.407Z" fill="#04D361"/>
<path d="M416.838 148.949H448.379C448.96 148.949 449.468 149.319 449.648 149.855L449.68 149.965L449.681 149.967L456.475 177.396H422.171L415.535 150.621V150.619L415.505 150.461C415.411 149.728 415.943 149.047 416.677 148.959L416.838 148.949Z" fill="#04D361" stroke="#04D361"/>
<path d="M454.688 177.897H419.354L412.624 150.741C412.333 149.581 413.217 148.449 414.412 148.449H445.953C446.801 148.449 447.54 149.024 447.74 149.846L454.688 177.897Z" fill="white"/>
<path d="M481.589 180.409H455.09C454.443 180.409 453.914 179.88 453.914 179.232V179.076C453.914 178.428 454.443 177.898 455.09 177.898H481.589C482.236 177.898 482.765 178.428 482.765 179.076V179.232C482.774 179.889 482.245 180.409 481.589 180.409Z" fill="#04D361"/>
<path d="M431.588 159.78C432.473 159.439 433.719 160.004 434.359 161.35L434.479 161.63C435.071 163.166 434.518 164.575 433.569 164.947C432.626 165.308 431.273 164.635 430.681 163.097C430.088 161.558 430.644 160.144 431.588 159.78Z" fill="#04D361" stroke="#04D361"/>
<path d="M493.862 177.896L491.564 148.074L495.978 160.629L493.862 177.896Z" fill="#5165E1"/>
<path d="M494.164 151.107C494.164 151.107 499.617 180.454 500.967 185.257C501.842 188.362 508.207 190.48 510.204 186.371C510.641 185.467 510.541 183.961 510.495 182.427C510.185 172.939 503.556 148.797 503.556 148.797L494.164 151.107Z" fill="#FCDDC6"/>
<path d="M495.659 133.82C495.659 133.82 498.915 135.491 501.65 140.212C504.386 144.933 508.161 153.26 507.924 155.278C506.501 159.159 495.267 163.177 495.267 163.177C495.267 163.177 487.762 138.477 495.659 133.82Z" fill="#2E3DA3"/>
<path d="M501.96 179.583C501.96 179.583 484.644 179.2 481.361 177.246C476.911 174.589 475.881 175.739 473.3 175.1C469.16 174.068 469.616 174.908 469.616 174.908C469.616 174.908 469.808 177.31 473.008 177.611C474.622 177.766 477.039 178.451 476.528 178.844C476.528 178.844 463.689 180.186 461.108 180.414C458.528 180.643 459.786 182.633 461.756 183.09C461.756 183.09 462.932 184.578 464.838 184.122C464.838 184.122 464.419 184.962 469.361 184.962C474.303 184.962 479.264 182.332 481.771 183.473C484.279 184.615 497.82 189.865 506.41 188.651C510.513 188.066 510.54 186.094 510.54 184.012C510.54 180.405 507.878 179.949 501.96 179.583Z" fill="#FCDDC6"/>
<path d="M142.704 318.879L136.986 342.538H126.91L129.336 318.879H142.704Z" fill="#BC8567"/>
<path d="M125.817 337.588C125.817 337.588 121.44 344.664 124.723 345.925C128.005 347.185 149.617 347.294 154.951 346.5C160.285 345.696 143.051 338.382 139.112 337.232C135.173 336.081 133.896 342.08 125.817 337.588Z" fill="#2E3DA3"/>
<path d="M110.971 318.879L107.515 342.538H97.4395L97.6036 318.879H110.971Z" fill="#BC8567"/>
<path d="M96.3463 337.588C96.3463 337.588 91.9694 344.664 95.2521 345.925C98.5348 347.185 120.146 347.294 125.48 346.5C130.815 345.696 113.58 338.382 109.641 337.232C105.702 336.081 104.425 342.08 96.3463 337.588Z" fill="#2E3DA3"/>
<path d="M94.0391 204.457L94.7868 330.704H110.781L122.079 237.95L134.954 275.588L125.316 330.713H142.714C142.714 330.713 158.006 283.076 157.386 273.726C156.766 264.366 139.112 200.613 139.112 200.613L94.0391 204.457Z" fill="#E9E9F0"/>
<path d="M124.943 244.812L122.578 237.892L123.681 226.688L124.943 244.812Z" fill="#E1E1E8" stroke="#E1E1E8"/>
<path d="M103.066 202.934L102.145 330.714" stroke="#E1E1E8" stroke-miterlimit="10"/>
<path d="M152.042 146.641C152.042 146.641 162.373 166.208 162.601 172.217C162.829 178.225 156.218 176.883 152.799 171.468C149.379 166.044 143.908 150.667 143.908 150.667L152.042 146.641Z" fill="#BC8567"/>
<path d="M153.976 148.275C153.976 148.275 151.013 153.552 143.909 156.776C142.441 157.442 141.201 155.68 140.28 153.589C139.213 151.151 138.593 148.275 138.593 148.275C138.593 148.275 130.45 123.046 137.627 123.95C137.627 123.95 143.736 124.379 148.223 133.236C149.399 135.546 151.232 140.203 152.764 144.622C153.201 145.882 153.612 147.115 153.976 148.275Z" fill="#5165E1"/>
<path d="M153.977 148.274C153.977 148.274 151.014 153.551 143.91 156.775C142.442 157.441 141.202 155.679 140.281 153.588C143.062 152.337 148.324 149.524 152.765 144.621C153.202 145.881 153.613 147.114 153.977 148.274Z" fill="#04D361"/>
<path d="M139.478 201.995C134.965 207.126 105.247 206.368 94.0313 204.46C92.0617 204.122 90.1195 203.364 93.2289 196.498C94.3961 193.932 93.8945 187.33 93.6939 178.254C93.3018 160.311 87.9857 130.544 94.542 127.129C98.4721 125.074 106.816 122.372 112.879 120.527C113.244 120.427 113.6 120.317 113.946 120.208C117.484 119.148 120.01 118.445 120.01 118.445C120.01 118.445 122.937 118.874 128.892 120.637C129.211 120.728 129.557 120.838 129.904 120.938C131.454 121.413 133.177 121.961 135.101 122.618C138.831 123.887 141.566 124.664 142.232 125.905C144.01 129.165 143.326 134.945 143.436 143.273C143.582 153.728 143.472 197.466 139.478 201.995Z" fill="#2E3DA3"/>
<path d="M92.2988 157.936L98.7092 142.285L94.0405 182.544L92.2988 157.936Z" fill="#5165E1"/>
<path d="M129.903 120.945C129.766 123.154 128.772 125.099 127.276 126.524C125.745 127.985 123.675 128.87 121.422 128.87C116.763 128.87 112.988 125.136 112.896 120.515C113.261 120.415 113.617 120.305 113.963 120.196C117.501 119.137 120.027 118.434 120.027 118.434C120.027 118.434 122.954 118.863 128.909 120.625C129.219 120.744 129.556 120.844 129.903 120.945Z" fill="#04D361"/>
<path d="M133.789 86.4982C133.789 86.4982 130.413 83.2669 125.304 82.4982C117.831 81.3737 107.991 83.8085 106.031 95.2329C104.481 101.816 112.496 112.637 115.523 112.007C115.523 112.007 142.774 94.7329 133.789 86.4982Z" fill="#43302D"/>
<path d="M128.883 102.327L128.154 116.498L127.944 120.543C127.862 122.26 127.105 123.794 125.938 124.899C124.78 126.004 123.211 126.67 121.497 126.67C117.868 126.67 114.95 123.675 115.041 120.05L115.224 112.837L115.534 100.848L128.883 102.327Z" fill="#BC8567"/>
<path d="M128.882 105.151L128.152 118.501C121.888 118.756 117.31 116.2 115.213 112.803L115.523 103.672L128.882 105.151Z" fill="#765441"/>
<path d="M133.852 94.1739C133.852 94.1739 134.317 98.7942 133.67 103.898C132.922 109.806 133.186 116.746 124.487 117.212C115.205 117.705 112.132 107.304 112.132 107.304C112.132 107.304 107.198 106.382 106.861 103.049C106.524 99.7164 109.97 99.5247 111.092 100.456C111.092 100.456 112.369 88.0195 123.84 88.0195C133.989 88.0287 133.852 94.1739 133.852 94.1739Z" fill="#BC8567"/>
<path d="M123.238 103.106C123.238 103.617 122.828 104.028 122.317 104.028C121.807 104.028 121.396 103.617 121.396 103.106C121.396 102.594 121.807 102.184 122.317 102.184C122.819 102.184 123.238 102.594 123.238 103.106Z" fill="#60423D"/>
<path d="M132.109 102.629C132.109 103.14 131.699 103.551 131.188 103.551C130.678 103.551 130.268 103.14 130.268 102.629C130.268 102.118 130.678 101.707 131.188 101.707C131.699 101.707 132.109 102.118 132.109 102.629Z" fill="#60423D"/>
<path d="M118.688 100.466C118.688 100.466 120.046 98.2201 122.954 99.0326" stroke="#43302D" stroke-miterlimit="10" stroke-linecap="round" stroke-linejoin="round"/>
<path d="M127.953 98.9958C127.953 98.9958 130.05 97.0786 132.11 99.1784" stroke="#43302D" stroke-miterlimit="10" stroke-linecap="round" stroke-linejoin="round"/>
<path d="M126.119 101.277C126.119 101.277 127.113 103.816 127.961 105.405C128.809 106.984 126.302 107.687 126.302 107.687" stroke="#765441" stroke-width="0.75" stroke-miterlimit="10" stroke-linecap="round" stroke-linejoin="round"/>
<path d="M122.781 110.527C122.781 110.527 124.833 112.518 127.467 111.303" stroke="#765441" stroke-width="0.75" stroke-miterlimit="10" stroke-linecap="round" stroke-linejoin="round"/>
<path d="M110.946 104.125C110.946 104.125 110.919 101.268 108.785 102.044" stroke="#765441" stroke-width="0.75" stroke-miterlimit="10" stroke-linecap="round" stroke-linejoin="round"/>
<path d="M113.762 90.832C113.762 90.832 118.978 96.1554 116.124 98.1917C112.951 100.456 112.449 103.67 112.449 103.67C112.449 103.67 112.513 102.538 111.1 100.465C109.686 98.3926 106.604 91.0329 113.762 90.832Z" fill="#43302D"/>
<path d="M85.2037 147.691C85.2037 147.691 74.8724 167.259 74.6444 173.268C74.4165 179.276 81.0274 177.933 84.4469 172.519C87.8663 167.095 93.3375 151.718 93.3375 151.718L85.2037 147.691Z" fill="#BC8567"/>
<path d="M158.872 165.595C158.872 165.595 143.471 154.181 142.595 153.533C141.109 152.419 138.939 150.803 138.154 150.255C136.914 149.388 129.665 148.128 128.653 148.292C127.65 148.456 124.869 148.931 124.057 149.232C123.246 149.534 124.267 150.575 125.069 151.068C125.872 151.561 129.428 153.405 132.446 153.962C134.124 154.273 135.565 155.122 136.741 155.971C137.68 156.647 153.93 173.238 154.541 173.64L158.872 165.595Z" fill="#BC8567"/>
<path d="M139.806 151.59C139.806 151.59 134.006 146.157 133.14 146.239C132.283 146.321 132.894 147.545 135.173 149.399C135.949 150.029 136.778 151.024 137.471 151.353C138.83 151.992 139.806 151.59 139.806 151.59Z" fill="#BC8567"/>
<path d="M139.884 149.208C140.765 149.104 141.477 149.922 141.256 150.777L136.204 170.227C136.089 170.669 135.749 171.008 135.323 171.125L135.136 171.161L135.133 171.162L113.987 173.691C113.106 173.796 112.394 172.977 112.615 172.122L117.667 152.673C117.782 152.231 118.122 151.891 118.548 151.774L118.735 151.738L118.738 151.737L139.884 149.208Z" fill="#04D361" stroke="#04D361"/>
<path d="M136.132 172.307L114.986 174.836C113.755 174.982 112.761 173.841 113.071 172.645L118.123 153.195C118.305 152.492 118.898 151.972 119.618 151.89L140.764 149.36C141.995 149.214 142.989 150.356 142.679 151.552L137.627 171.001C137.445 171.695 136.852 172.215 136.132 172.307Z" fill="white"/>
<path d="M120.788 153.208C120.809 153.206 120.827 153.212 120.843 153.229C120.851 153.239 120.856 153.248 120.858 153.258L120.857 153.287V153.288L119.863 157.104L119.862 157.108C119.861 157.112 119.858 157.122 119.846 157.133C119.833 157.144 119.816 157.152 119.796 157.155L118.794 157.271V157.272C118.773 157.275 118.755 157.268 118.739 157.25C118.731 157.241 118.727 157.231 118.725 157.222V157.192L118.726 157.191L119.719 153.376L119.722 153.366C119.726 153.347 119.743 153.329 119.769 153.326L119.768 153.325L120.788 153.208Z" fill="#04D361" stroke="#04D361"/>
<path d="M78.5924 167.476C85.0484 167.732 105.228 167.312 107.9 166.399C109.048 166.006 111.875 165.412 112.596 164.289C113.325 163.148 113.945 161.413 114.702 161.285C115.286 161.185 115.149 163.066 114.976 163.751C114.647 164.983 114.428 165.622 113.991 166.188C113.845 166.38 118.814 167.092 121.933 166.298C124.076 165.75 123.675 167.467 122.234 168.188C122.234 168.188 122.808 169.686 121.295 170.179C121.295 170.179 121.559 171.841 120.1 171.968C119.945 172.379 119.489 173.119 118.231 173.475C116.407 173.986 113.243 173.977 110.836 174.078C109.413 174.133 81.9207 178.433 77.0605 177.21C75.0362 176.698 76.4951 167.394 78.5924 167.476Z" fill="#BC8567"/>
<path d="M97.121 150.319C97.121 150.319 96.6468 152.118 95.9447 153.971C95.1605 156.016 94.0936 158.117 93.0449 157.925C93.0449 157.925 78.7835 153.414 79.2577 151.953C79.6133 150.867 80.2242 149.451 80.9811 147.881C83.3428 142.968 87.0905 136.558 88.6042 134.075C93.7653 125.592 95.8808 126.669 95.8808 126.669C103.112 126.322 97.121 150.319 97.121 150.319Z" fill="#2E3DA3"/>
<path d="M95.9447 153.969C95.1605 156.015 94.0936 158.115 93.0449 157.923C93.0449 157.923 78.7835 153.412 79.2577 151.951C79.6133 150.865 80.2242 149.449 80.9811 147.879C83.6072 149.121 90.6924 152.381 95.9447 153.969Z" fill="#04D361"/>
<path d="M100.469 193.957C100.469 193.957 124.177 190.149 136.943 182.543C136.943 182.543 122.663 196.851 100.469 193.957Z" fill="#5165E1"/>
<path d="M396.148 284.438H334.497C331.461 284.438 329.008 281.973 329.008 278.941V249.11C329.008 246.07 331.47 243.613 334.497 243.613H396.148C399.184 243.613 401.637 246.079 401.637 249.11V278.932C401.646 281.973 399.184 284.438 396.148 284.438Z" fill="#2E3DA3"/>
<path d="M335.547 273.893C341.292 273.893 341.292 267.045 347.036 267.045C352.781 267.045 352.781 257.914 358.526 257.914C364.27 257.914 364.27 261.411 370.015 261.411C375.76 261.411 375.76 252.965 381.504 252.965C387.249 252.965 387.249 266.214 392.994 266.214" stroke="white" stroke-width="2" stroke-miterlimit="10" stroke-linecap="round" stroke-linejoin="round"/>
<path d="M337.224 273.893C337.224 272.971 336.476 272.223 335.555 272.223C334.634 272.223 333.887 272.971 333.887 273.893C333.887 274.815 334.634 275.564 335.555 275.564C336.476 275.564 337.224 274.815 337.224 273.893Z" fill="white"/>
<path d="M394.671 266.221C394.671 265.299 393.923 264.551 393.002 264.551C392.082 264.551 391.334 265.299 391.334 266.221C391.334 267.144 392.082 267.892 393.002 267.892C393.923 267.892 394.671 267.144 394.671 266.221Z" fill="white"/>
<path d="M39.6205 69.0453H101.198C105.32 69.0453 108.666 65.6942 108.666 61.567V42.7479C108.666 38.6206 105.32 35.2695 101.198 35.2695H39.6205C35.4989 35.2695 32.1523 38.6206 32.1523 42.7479V61.567C32.1523 65.7034 35.4989 69.0453 39.6205 69.0453Z" fill="#2E3DA3"/>
<path d="M99.4921 67.1078V75.3075L90.7109 66.5234L99.4921 67.1078Z" fill="#2E3DA3"/>
<path d="M39.2285 43.5586H56.2985" stroke="white" stroke-width="2.2165" stroke-miterlimit="10" stroke-linecap="round" stroke-linejoin="round"/>
<path d="M62.3809 43.5586H101.591" stroke="white" stroke-width="2.2165" stroke-miterlimit="10" stroke-linecap="round" stroke-linejoin="round"/>
<path d="M39.2285 52.1602H71.0523" stroke="white" stroke-width="2.2165" stroke-miterlimit="10" stroke-linecap="round" stroke-linejoin="round"/>
<path d="M75.9219 52.1602H85.3414" stroke="white" stroke-width="2.2165" stroke-miterlimit="10" stroke-linecap="round" stroke-linejoin="round"/>
<path d="M90.3926 52.1602H101.59" stroke="white" stroke-width="2.2165" stroke-miterlimit="10" stroke-linecap="round" stroke-linejoin="round"/>
<path d="M39.2285 60.7539H46.4322" stroke="white" stroke-width="2.2165" stroke-miterlimit="10" stroke-linecap="round" stroke-linejoin="round"/>
<path d="M50.8457 60.7539H76.8336" stroke="white" stroke-width="2.2165" stroke-miterlimit="10" stroke-linecap="round" stroke-linejoin="round"/>
<path d="M422.892 38.553H407.09C404.153 38.553 401.773 36.1698 401.773 33.2296V17.4054C401.773 14.4652 404.153 12.082 407.09 12.082H422.892C425.828 12.082 428.208 14.4652 428.208 17.4054V33.2296C428.208 36.1698 425.828 38.553 422.892 38.553Z" fill="#2E3DA3"/>
<path d="M423.987 23.9526L423.594 22.2177C423.521 21.8798 423.175 21.6698 422.838 21.7429L421.816 21.9803C421.552 22.0442 421.287 21.9163 421.141 21.6881C420.74 21.058 420.248 20.4919 419.683 20.0171C419.455 19.8253 419.382 19.5149 419.509 19.2501L420.02 18.2C420.175 17.8895 420.038 17.506 419.728 17.3599L418.123 16.5838C417.813 16.4286 417.43 16.5655 417.284 16.876L416.737 18.0174C416.619 18.2731 416.336 18.4009 416.062 18.3644C415.725 18.3187 415.369 18.2913 415.023 18.2913C414.667 18.2913 414.321 18.3187 413.983 18.3644C413.701 18.4009 413.427 18.2731 413.309 18.0174L412.762 16.876C412.607 16.5655 412.233 16.4286 411.923 16.5838L410.318 17.3599C410.008 17.5152 409.871 17.8895 410.026 18.2L410.537 19.2501C410.664 19.5149 410.582 19.8253 410.363 20.0171C409.798 20.501 409.296 21.058 408.904 21.6881C408.758 21.9163 408.494 22.0442 408.23 21.9803L407.208 21.7429C406.871 21.6698 406.534 21.8798 406.451 22.2177L406.059 23.9526C405.986 24.2904 406.196 24.6283 406.534 24.7105L407.828 25.0027C407.819 25.1853 407.801 25.3588 407.801 25.5414C407.801 26.4088 407.956 27.2489 408.239 28.0159C408.33 28.2716 408.266 28.5638 408.047 28.7373L407.546 29.139C407.272 29.3582 407.227 29.7508 407.445 30.0247L408.503 31.4218C408.722 31.6957 409.114 31.7414 409.388 31.5222L409.734 31.2392C409.971 31.0565 410.3 31.0657 410.527 31.2483C411.257 31.8144 412.087 32.2527 412.999 32.5175C413.272 32.5997 413.473 32.8371 413.473 33.1293V33.4945C413.473 33.8415 413.755 34.1246 414.102 34.1246H415.88C416.227 34.1246 416.509 33.8415 416.509 33.4945V33.1293C416.509 32.8371 416.71 32.5997 416.983 32.5175C417.895 32.2527 418.725 31.8236 419.455 31.2483C419.692 31.0657 420.02 31.0474 420.248 31.2392L420.594 31.5222C420.868 31.7414 421.26 31.6957 421.479 31.4218L422.591 30.0339C422.81 29.7599 422.765 29.3673 422.491 29.1482L421.99 28.7464C421.771 28.5729 421.707 28.2807 421.798 28.025C422.081 27.2489 422.236 26.418 422.236 25.5505C422.236 25.3679 422.217 25.1944 422.208 25.0118L423.503 24.7196C423.85 24.6283 424.059 24.2904 423.987 23.9526ZM414.996 30.0521C412.506 30.0521 410.491 28.0342 410.491 25.5414C410.491 23.0486 412.506 21.0306 414.996 21.0306C417.485 21.0306 419.5 23.0486 419.5 25.5414C419.5 28.0342 417.485 30.0521 414.996 30.0521Z" fill="white"/>
<path d="M563.141 143.352C564.76 133.371 557.993 123.969 548.026 122.35C538.058 120.732 528.666 127.511 527.047 137.491C525.428 147.472 532.195 156.874 542.163 158.493C552.13 160.111 561.522 153.332 563.141 143.352Z" fill="#2E3DA3"/>
<path d="M555.101 142.824C556.407 137.294 552.987 131.752 547.463 130.447C541.94 129.142 536.403 132.568 535.098 138.099C533.793 143.63 537.212 149.171 542.736 150.476C548.26 151.781 553.796 148.355 555.101 142.824Z" fill="#2E3DA3" stroke="white" stroke-width="2" stroke-miterlimit="10" stroke-linecap="round" stroke-linejoin="round"/>
<path d="M545.08 133.695V140.425L541.533 143.977" fill="#2E3DA3"/>
<path d="M545.08 133.695V140.425L541.533 143.977" stroke="white" stroke-width="2" stroke-miterlimit="10" stroke-linecap="round" stroke-linejoin="round"/>
<path d="M545.082 130.133V131.119" stroke="white" stroke-width="2" stroke-miterlimit="10" stroke-linecap="round" stroke-linejoin="round"/>
<path d="M545.082 149.738V150.715" stroke="white" stroke-width="2" stroke-miterlimit="10" stroke-linecap="round" stroke-linejoin="round"/>
<path d="M555.359 140.422H554.373" stroke="white" stroke-width="2" stroke-miterlimit="10" stroke-linecap="round" stroke-linejoin="round"/>
<path d="M535.79 140.422H534.805" stroke="white" stroke-width="2" stroke-miterlimit="10" stroke-linecap="round" stroke-linejoin="round"/>
</svg>
