<svg width="40" height="40" viewBox="0 0 40 40" fill="none" xmlns="http://www.w3.org/2000/svg">
<path d="M19.5498 10.8365C19.6996 10.8291 19.8497 10.8254 20 10.8254C20.1503 10.8254 20.3004 10.8291 20.4502 10.8365L20.9268 1.13387C20.6184 1.11872 20.3094 1.11111 20 1.11111C19.6906 1.11111 19.3816 1.11872 19.0732 1.13387L19.5498 10.8365Z" fill="url(#paint0_linear_3139_18692)"/>
<path d="M17.7707 11.1004C18.062 11.0274 18.3567 10.9688 18.6538 10.9247L17.2284 1.31556C16.6169 1.40628 16.0101 1.52697 15.4104 1.67719L17.7707 11.1004Z" fill="url(#paint1_linear_3139_18692)"/>
<path d="M21.3462 10.9247C21.6432 10.9688 21.9379 11.0274 22.2292 11.1004L24.5896 1.67719C23.9899 1.52697 23.3831 1.40628 22.7716 1.31556L21.3462 10.9247Z" fill="url(#paint2_linear_3139_18692)"/>
<path d="M16.489 11.5238C16.6278 11.4663 16.768 11.4122 16.9092 11.3617L13.6365 2.21528C13.3458 2.3193 13.0574 2.43054 12.7715 2.54895C12.4856 2.66735 12.2031 2.79264 11.9239 2.92465L16.0773 11.7063C16.2129 11.6421 16.3501 11.5813 16.489 11.5238Z" fill="url(#paint3_linear_3139_18692)"/>
<path d="M23.0908 11.3617C23.232 11.4122 23.3721 11.4663 23.511 11.5238C23.6498 11.5813 23.7871 11.6421 23.9226 11.7063L28.076 2.92465C27.7969 2.79264 27.5143 2.66735 27.2285 2.54895C26.9426 2.43054 26.6542 2.3193 26.3635 2.21528L23.0908 11.3617Z" fill="url(#paint4_linear_3139_18692)"/>
<path d="M14.5347 12.6309C14.7759 12.452 15.0257 12.2851 15.2833 12.1307L10.2892 3.79846C9.75884 4.11631 9.24447 4.46001 8.74786 4.8283L14.5347 12.6309Z" fill="url(#paint5_linear_3139_18692)"/>
<path d="M24.7167 12.1307C24.9742 12.2851 25.2241 12.452 25.4653 12.6309L31.2521 4.82831C30.7555 4.46001 30.2411 4.11632 29.7108 3.79847L24.7167 12.1307Z" fill="url(#paint6_linear_3139_18692)"/>
<path d="M13.5126 13.5126C13.6188 13.4063 13.7276 13.3028 13.8387 13.2021L7.31495 6.00426C7.08619 6.21162 6.86229 6.42477 6.64352 6.64355C6.42474 6.86232 6.21159 7.08622 6.00423 7.31498L13.202 13.8387C13.3027 13.7276 13.4063 13.6188 13.5126 13.5126Z" fill="url(#paint7_linear_3139_18692)"/>
<path d="M26.1613 13.2021C26.2724 13.3028 26.3812 13.4063 26.4874 13.5126C26.5937 13.6188 26.6972 13.7276 26.7979 13.8387L33.9957 7.31498C33.7884 7.08622 33.5752 6.86232 33.3564 6.64355C33.1377 6.42477 32.9138 6.21162 32.685 6.00426L26.1613 13.2021Z" fill="url(#paint8_linear_3139_18692)"/>
<path d="M12.1307 15.2833C12.285 15.0258 12.452 14.7759 12.6309 14.5347L4.82828 8.74789C4.45998 9.2445 4.11629 9.75887 3.79844 10.2892L12.1307 15.2833Z" fill="url(#paint9_linear_3139_18692)"/>
<path d="M27.3691 14.5347C27.548 14.7759 27.7149 15.0258 27.8693 15.2833L36.2015 10.2892C35.8837 9.75887 35.54 9.2445 35.1717 8.74789L27.3691 14.5347Z" fill="url(#paint10_linear_3139_18692)"/>
<path d="M11.5237 16.489C11.5813 16.3502 11.6421 16.2129 11.7062 16.0774L2.92462 11.924C2.79261 12.2031 2.66732 12.4857 2.54892 12.7715C2.43051 13.0574 2.31927 13.3458 2.21525 13.6365L11.3617 16.9092C11.4122 16.768 11.4662 16.6279 11.5237 16.489Z" fill="url(#paint11_linear_3139_18692)"/>
<path d="M28.2937 16.0774C28.3579 16.2129 28.4187 16.3502 28.4762 16.489C28.5337 16.6279 28.5878 16.768 28.6383 16.9092L37.7847 13.6366C37.6807 13.3458 37.5695 13.0574 37.451 12.7716C37.3326 12.4857 37.2073 12.2031 37.0753 11.924L28.2937 16.0774Z" fill="url(#paint12_linear_3139_18692)"/>
<path d="M10.9247 18.6538C10.9687 18.3568 11.0274 18.062 11.1003 17.7707L1.67716 15.4104C1.52694 16.0101 1.40625 16.6168 1.31553 17.2284L10.9247 18.6538Z" fill="url(#paint13_linear_3139_18692)"/>
<path d="M28.8996 17.7707C28.9726 18.062 29.0312 18.3568 29.0753 18.6538L38.6844 17.2284C38.5937 16.6169 38.473 16.0101 38.3228 15.4104L28.8996 17.7707Z" fill="url(#paint14_linear_3139_18692)"/>
<path d="M10.8254 20C10.8254 19.8497 10.8291 19.6996 10.8364 19.5498L1.13384 19.0732C1.11869 19.3816 1.11108 19.6906 1.11108 20C1.11108 22.4805 1.59966 24.9368 2.54892 27.2285C3.49817 29.5202 4.88952 31.6025 6.64352 33.3565C8.3975 35.1105 10.4798 36.5018 12.7715 37.4511C15.0632 38.4003 17.5194 38.8889 20 38.8889C22.4805 38.8889 24.9367 38.4003 27.2285 37.4511C29.5201 36.5018 31.6025 35.1105 33.3564 33.3565C35.1104 31.6025 36.5018 29.5202 37.451 27.2285C38.4003 24.9368 38.8889 22.4805 38.8889 20C38.8889 19.6906 38.8813 19.3816 38.8661 19.0732L29.1635 19.5498C29.1709 19.6996 29.1746 19.8497 29.1746 20C29.1746 21.2048 28.9373 22.3979 28.4762 23.511C28.0151 24.6241 27.3394 25.6355 26.4874 26.4874C25.6355 27.3394 24.6241 28.0152 23.511 28.4763C22.3978 28.9373 21.2048 29.1746 20 29.1746C18.7952 29.1746 17.6021 28.9373 16.489 28.4763C15.3759 28.0152 14.3645 27.3394 13.5126 26.4874C12.6606 25.6355 11.9848 24.6241 11.5237 23.511C11.0627 22.3979 10.8254 21.2048 10.8254 20Z" fill="url(#paint15_linear_3139_18692)"/>
<path d="M20.0013 10.8251C19.851 10.8251 19.7009 10.8288 19.5511 10.8362L19.3701 7.15153C19.7886 6.97104 20.2177 6.81036 20.6561 6.67075L20.4515 10.8362C20.3017 10.8288 20.1516 10.8251 20.0013 10.8251Z" fill="#2E3DA3"/>
<path d="M22.0321 6.30909L21.3475 10.9244C21.6446 10.9685 21.9393 11.0271 22.2305 11.1001L23.4868 6.08481C22.9939 6.13443 22.5086 6.20965 22.0321 6.30909Z" fill="#2E3DA3"/>
<path d="M25.0054 6.01425L23.0921 11.3614C23.2333 11.4119 23.3734 11.466 23.5123 11.5235C23.6511 11.581 23.7884 11.6418 23.9239 11.706L26.5697 6.11201C26.0563 6.05106 25.5343 6.01799 25.0054 6.01425Z" fill="#2E3DA3"/>
<path d="M28.1563 6.39392L24.718 12.1304C24.9756 12.2848 25.2254 12.4517 25.4666 12.6306L29.7378 6.8716C29.2241 6.68241 28.6963 6.52249 28.1563 6.39392Z" fill="#2E3DA3"/>
<path d="M31.2845 7.55063L26.1626 13.2018C26.2737 13.3025 26.3824 13.406 26.4887 13.5123C26.595 13.6185 26.6985 13.7273 26.7993 13.8384L32.7657 8.43073C32.292 8.10823 31.7974 7.81403 31.2845 7.55063Z" fill="#2E3DA3"/>
<path d="M34.1504 9.50601L27.3704 14.5344C27.5493 14.7756 27.7162 15.0254 27.8706 15.283L35.4082 10.7651C35.016 10.3194 34.5958 9.89873 34.1504 9.50601Z" fill="#2E3DA3"/>
<path d="M36.5096 12.1919L28.295 16.077C28.3592 16.2126 28.42 16.3499 28.4775 16.4887C28.5351 16.6276 28.5891 16.7677 28.6396 16.9089L37.4269 13.7647C37.1548 13.2192 36.848 12.694 36.5096 12.1919Z" fill="#2E3DA3"/>
<path d="M38.1359 15.4572L28.901 17.7704C28.9739 18.0618 29.0326 18.3565 29.0766 18.6535L38.6176 17.2382C38.4957 16.6293 38.3342 16.0348 38.1359 15.4572Z" fill="#2E3DA3"/>
<path d="M38.86 19.0732L29.1649 19.5495C29.1722 19.6993 29.1759 19.8494 29.1759 19.9997C29.1759 21.2045 28.9386 22.3976 28.4775 23.5107C28.0165 24.6238 27.3407 25.6352 26.4887 26.4871C25.6367 27.3391 24.6254 28.0149 23.5123 28.476C22.3992 28.937 21.2061 29.1743 20.0013 29.1743C18.7965 29.1743 17.6034 28.937 16.4903 28.476C15.3772 28.0149 14.3658 27.3391 13.5139 26.4871C12.6619 25.6352 11.9861 24.6238 11.5251 23.5107C11.3426 23.0703 11.1953 22.6175 11.0838 22.1564C12.1208 28.8565 17.9136 33.9855 24.9043 33.9855C32.6285 33.9855 38.8902 27.7239 38.8902 19.9997C38.8902 19.6884 38.88 19.3795 38.86 19.0732Z" fill="#2E3DA3"/>
<path d="M11.0837 17.8432C11.0896 17.8189 11.0956 17.7947 11.1017 17.7704L11.0955 17.7689C11.0915 17.7937 11.0876 17.8184 11.0837 17.8432Z" fill="#2E3DA3"/>
<path d="M11.2689 16.8752L11.363 16.9089C11.4135 16.7677 11.4676 16.6276 11.5251 16.4887C11.5826 16.3499 11.6434 16.2126 11.7076 16.077L11.5045 15.981C11.4164 16.2751 11.3377 16.5733 11.2689 16.8752Z" fill="#2E3DA3"/>
<path d="M11.8055 15.0873L12.132 15.283C12.2864 15.0254 12.4533 14.7756 12.6322 14.5344L12.1758 14.1959C12.0425 14.4878 11.919 14.7851 11.8055 15.0873Z" fill="#2E3DA3"/>
<path d="M12.6196 13.3093L13.2034 13.8384C13.3041 13.7273 13.4076 13.6185 13.5139 13.5123C13.6201 13.406 13.7289 13.3025 13.84 13.2018L13.1415 12.431C12.9572 12.7168 12.7831 13.0097 12.6196 13.3093Z" fill="#2E3DA3"/>
<path d="M13.7464 11.566L14.536 12.6306C14.7772 12.4517 15.027 12.2848 15.2846 12.1304L14.4397 10.7207C14.1979 10.9932 13.9666 11.2752 13.7464 11.566Z" fill="#2E3DA3"/>
<path d="M15.2261 9.90339L16.0786 11.706C16.2142 11.6418 16.3515 11.581 16.4903 11.5235C16.6292 11.466 16.7693 11.4119 16.9105 11.3614L16.11 9.12424C15.8045 9.3716 15.5096 9.6316 15.2261 9.90339Z" fill="#2E3DA3"/>
<path d="M17.0946 8.39572L17.772 11.1001C18.0634 11.0271 18.3581 10.9685 18.6551 10.9244L18.1816 7.73259C17.8086 7.93743 17.446 8.15881 17.0946 8.39572Z" fill="#2E3DA3"/>
<defs>
<linearGradient id="paint0_linear_3139_18692" x1="-4.3667" y1="-3.23334" x2="36.7167" y2="38.8889" gradientUnits="userSpaceOnUse">
<stop offset="0.0363151" stop-color="#2E3DA3"/>
<stop offset="1" stop-color="#96A4FD"/>
</linearGradient>
<linearGradient id="paint1_linear_3139_18692" x1="-4.3667" y1="-3.23334" x2="36.7167" y2="38.8889" gradientUnits="userSpaceOnUse">
<stop offset="0.0363151" stop-color="#2E3DA3"/>
<stop offset="1" stop-color="#96A4FD"/>
</linearGradient>
<linearGradient id="paint2_linear_3139_18692" x1="-4.3667" y1="-3.23334" x2="36.7167" y2="38.8889" gradientUnits="userSpaceOnUse">
<stop offset="0.0363151" stop-color="#2E3DA3"/>
<stop offset="1" stop-color="#96A4FD"/>
</linearGradient>
<linearGradient id="paint3_linear_3139_18692" x1="-4.3667" y1="-3.23334" x2="36.7167" y2="38.8889" gradientUnits="userSpaceOnUse">
<stop offset="0.0363151" stop-color="#2E3DA3"/>
<stop offset="1" stop-color="#96A4FD"/>
</linearGradient>
<linearGradient id="paint4_linear_3139_18692" x1="-4.3667" y1="-3.23334" x2="36.7167" y2="38.8889" gradientUnits="userSpaceOnUse">
<stop offset="0.0363151" stop-color="#2E3DA3"/>
<stop offset="1" stop-color="#96A4FD"/>
</linearGradient>
<linearGradient id="paint5_linear_3139_18692" x1="-4.3667" y1="-3.23334" x2="36.7167" y2="38.8889" gradientUnits="userSpaceOnUse">
<stop offset="0.0363151" stop-color="#2E3DA3"/>
<stop offset="1" stop-color="#96A4FD"/>
</linearGradient>
<linearGradient id="paint6_linear_3139_18692" x1="-4.3667" y1="-3.23334" x2="36.7167" y2="38.8889" gradientUnits="userSpaceOnUse">
<stop offset="0.0363151" stop-color="#2E3DA3"/>
<stop offset="1" stop-color="#96A4FD"/>
</linearGradient>
<linearGradient id="paint7_linear_3139_18692" x1="-4.3667" y1="-3.23334" x2="36.7167" y2="38.8889" gradientUnits="userSpaceOnUse">
<stop offset="0.0363151" stop-color="#2E3DA3"/>
<stop offset="1" stop-color="#96A4FD"/>
</linearGradient>
<linearGradient id="paint8_linear_3139_18692" x1="-4.3667" y1="-3.23334" x2="36.7167" y2="38.8889" gradientUnits="userSpaceOnUse">
<stop offset="0.0363151" stop-color="#2E3DA3"/>
<stop offset="1" stop-color="#96A4FD"/>
</linearGradient>
<linearGradient id="paint9_linear_3139_18692" x1="-4.3667" y1="-3.23334" x2="36.7167" y2="38.8889" gradientUnits="userSpaceOnUse">
<stop offset="0.0363151" stop-color="#2E3DA3"/>
<stop offset="1" stop-color="#96A4FD"/>
</linearGradient>
<linearGradient id="paint10_linear_3139_18692" x1="-4.3667" y1="-3.23334" x2="36.7167" y2="38.8889" gradientUnits="userSpaceOnUse">
<stop offset="0.0363151" stop-color="#2E3DA3"/>
<stop offset="1" stop-color="#96A4FD"/>
</linearGradient>
<linearGradient id="paint11_linear_3139_18692" x1="-4.3667" y1="-3.23334" x2="36.7167" y2="38.8889" gradientUnits="userSpaceOnUse">
<stop offset="0.0363151" stop-color="#2E3DA3"/>
<stop offset="1" stop-color="#96A4FD"/>
</linearGradient>
<linearGradient id="paint12_linear_3139_18692" x1="-4.3667" y1="-3.23334" x2="36.7167" y2="38.8889" gradientUnits="userSpaceOnUse">
<stop offset="0.0363151" stop-color="#2E3DA3"/>
<stop offset="1" stop-color="#96A4FD"/>
</linearGradient>
<linearGradient id="paint13_linear_3139_18692" x1="-4.3667" y1="-3.23334" x2="36.7167" y2="38.8889" gradientUnits="userSpaceOnUse">
<stop offset="0.0363151" stop-color="#2E3DA3"/>
<stop offset="1" stop-color="#96A4FD"/>
</linearGradient>
<linearGradient id="paint14_linear_3139_18692" x1="-4.3667" y1="-3.23334" x2="36.7167" y2="38.8889" gradientUnits="userSpaceOnUse">
<stop offset="0.0363151" stop-color="#2E3DA3"/>
<stop offset="1" stop-color="#96A4FD"/>
</linearGradient>
<linearGradient id="paint15_linear_3139_18692" x1="-4.3667" y1="-3.23334" x2="36.7167" y2="38.8889" gradientUnits="userSpaceOnUse">
<stop offset="0.0363151" stop-color="#2E3DA3"/>
<stop offset="1" stop-color="#96A4FD"/>
</linearGradient>
</defs>
</svg>
