<svg width="197" height="63" viewBox="0 0 197 63" fill="none" xmlns="http://www.w3.org/2000/svg">
<path d="M28.2836 51.8948C25.1189 55.3783 19.5502 55.4117 16.3435 51.9663C14.9113 50.4274 16.0237 47.9622 18.1562 47.9495L26.4224 47.9C28.5549 47.8872 29.6971 50.3389 28.2836 51.8948Z" fill="white"/>
<path d="M22.2891 8.33859C34.5992 8.33859 44.5791 18.1847 44.5791 30.33C44.579 37.3429 41.2515 43.5894 36.0693 47.616C34.4004 48.9127 32.0433 48.4838 30.6305 46.9187L26.1415 41.946C24.3324 39.9421 21.1565 39.9422 19.3474 41.946L14.4892 47.3281C13.1119 48.8538 10.8316 49.3065 9.15908 48.1017C3.60716 44.1021 0.000143723 37.6316 0 30.33C0 18.1848 9.97913 8.33878 22.2891 8.33859ZM27.7162 28.1256C24.1719 27.0589 20.4073 27.0589 16.863 28.1256C14.9056 28.7148 14.2082 31.2139 15.5605 32.7928L19.7733 37.7117C21.1114 39.2739 23.4677 39.2739 24.8058 37.7117L29.0186 32.7928C30.3708 31.2139 29.6735 28.7148 27.7162 28.1256ZM12.3828 19.0704C10.5593 19.0705 9.08086 20.5489 9.08074 22.3725C9.08074 24.1961 10.5592 25.6744 12.3828 25.6745C14.2065 25.6745 15.6849 24.1962 15.6849 22.3725C15.6848 20.5488 14.2065 19.0704 12.3828 19.0704ZM32.1963 19.0704C30.3727 19.0704 28.8934 20.5488 28.8933 22.3725C28.8933 24.1962 30.3726 25.6745 32.1963 25.6745C34.0198 25.6743 35.4984 24.196 35.4984 22.3725C35.4983 20.549 34.0198 19.0706 32.1963 19.0704Z" fill="white"/>
<path d="M106.855 55.9627H96.9992L102.92 35.2524H97.9132L89.687 62.907H79.8314L96.1249 6.90343H105.98L100.417 26.5517H105.424L113.332 0H123.188L106.855 55.9627Z" fill="white"/>
<path d="M123.983 6.90343H142.78L139.959 15.7267H131.414L128.315 26.5108H136.899L134.196 35.2116H125.811L122.513 46.6084H131.653L128.354 55.9219H109.915L123.983 6.90343Z" fill="white"/>
<path d="M139.998 62.907H130.063L145.919 6.90343H163.962C166.108 6.90343 167.538 7.51616 168.293 8.78247C169.048 10.0488 169.168 11.4785 168.691 13.1124L163.922 29.7787C163.683 30.514 163.246 31.1676 162.571 31.7803C161.895 32.393 160.941 32.679 159.709 32.679C160.464 32.8015 161.1 33.2917 161.617 34.1495C162.133 35.0073 162.133 36.3145 161.617 38.071L156.49 55.9627H146.595L152.079 36.723C152.198 36.3145 152.238 35.9469 152.119 35.5792C152 35.2116 151.642 35.0482 151.046 35.0482H147.748L139.998 62.907ZM153.192 27.818C153.669 27.818 154.106 27.6954 154.543 27.4503C154.94 27.2052 155.258 26.7151 155.497 25.9389L158.12 16.8297C158.517 15.4817 158 14.7872 156.61 14.7872H153.51L149.774 27.818H153.192Z" fill="white"/>
<path d="M192.932 6.90343C194.482 6.90343 195.595 7.47531 196.31 8.61907C197.026 9.76284 197.185 11.07 196.787 12.4997L185.819 50.7749C185.223 52.8174 184.189 54.1654 182.759 54.9007C181.328 55.6359 179.778 55.9627 178.149 55.9627H166.386C165.551 55.9627 164.796 55.7993 164.081 55.5134C163.365 55.2275 162.809 54.7781 162.332 54.2062C161.855 53.6344 161.577 52.8991 161.418 52.0821C161.259 51.2651 161.339 50.3256 161.657 49.2635L172.426 11.6827C172.784 10.253 173.499 9.06841 174.572 8.21058C175.645 7.35276 176.996 6.90343 178.626 6.90343H192.932ZM182.6 14.7872C182.123 14.7872 181.765 14.9098 181.567 15.114C181.328 15.3591 181.209 15.6451 181.09 15.9718L172.307 46.5267C172.069 47.3437 172.387 47.7521 173.221 47.7521H175.764C176.599 47.7521 177.116 47.3437 177.354 46.5267L186.097 16.0127C186.296 15.1549 185.978 14.7464 185.103 14.7464H182.6V14.7872Z" fill="white"/>
<path d="M70.7625 12.2546H77.1607C77.9953 12.2546 78.5119 12.4997 78.7503 12.9491C78.9888 13.3984 79.0285 13.9294 78.8696 14.583L77.3594 19.8933C77.2799 20.2201 77.0812 20.5061 76.7633 20.7512C76.4454 21.0371 75.9685 21.1188 75.3724 21.1188C75.6903 21.1188 75.9288 21.2005 76.0877 21.323C76.2864 21.4456 76.4057 21.609 76.4851 21.8132C76.5646 22.0175 76.6044 22.2217 76.6044 22.4668C76.6044 22.7119 76.5646 22.957 76.5249 23.1612L75.0942 28.0222C74.9353 28.5941 74.6173 29.0435 74.2199 29.3702C73.8225 29.697 73.1867 29.8604 72.4316 29.8604H65.7155L70.7625 12.2546ZM71.3984 26.9602C71.5573 26.9602 71.7163 26.9193 71.8355 26.8785C71.9547 26.7968 72.074 26.6334 72.1534 26.3883L73.1867 22.8345C73.2662 22.5894 73.2662 22.426 73.1867 22.2626C73.1072 22.0992 72.9482 22.0583 72.7098 22.0583H71.5971L70.1664 27.001H71.3984V26.9602ZM73.3457 19.6891C73.5841 19.6891 73.7828 19.6483 73.902 19.5666C74.0212 19.4849 74.1405 19.3215 74.2199 19.0355L75.134 15.8493C75.2134 15.6042 75.2134 15.4408 75.1737 15.3183C75.0942 15.1957 74.9353 15.114 74.6968 15.114H73.5444L72.2329 19.6891H73.3457Z" fill="white"/>
<path d="M80.777 12.2546H87.5328L86.6188 15.4408H83.4396L82.3268 19.3215H85.4266L84.5126 22.4668H81.4128L80.2206 26.5517H83.5191L82.3268 29.9013H75.73L80.777 12.2546Z" fill="white"/>
<path d="M63.5696 32.9649L62.6556 36.1511H60.2314L56.1382 50.5707H52.6013L56.774 36.1103H54.3101L55.2241 32.9241H63.5696V32.9649Z" fill="white"/>
<path d="M68.3783 50.5731H64.8414L66.9476 43.1387H65.1593L63.0134 50.5731H59.4765L64.5235 32.9673H68.0604L66.0734 40.0342H67.8617L69.8884 32.9673H73.4253L68.3783 50.5731Z" fill="white"/>
<path d="M74.538 32.9673H81.2939L80.3799 36.1535H77.2006L76.0879 40.0342H79.1877L78.2736 43.1795H75.1739L73.9817 47.2644H77.2801L76.0879 50.614H69.491L74.538 32.9673Z" fill="white"/>
</svg>
