<svg width="45" height="47" viewBox="0 0 45 47" fill="none" xmlns="http://www.w3.org/2000/svg">
<path d="M28.5506 43.9674C25.356 47.4838 19.7348 47.5175 16.4978 44.0396C15.052 42.4862 16.175 39.9977 18.3276 39.9848L26.6719 39.9349C28.8245 39.922 29.9775 42.3968 28.5506 43.9674Z" fill="white"/>
<path d="M22.4995 0C34.9258 0 45 9.93907 45 22.199C44.9999 29.2782 41.6409 35.5836 36.4098 39.6482C34.7252 40.9572 32.3458 40.5243 30.9196 38.9444L26.3883 33.9247C24.5622 31.9019 21.3562 31.902 19.53 33.9247L14.626 39.3576C13.2357 40.8977 10.9338 41.3547 9.24555 40.1385C3.64122 36.1012 0.00014508 29.5696 0 22.199C0 9.9392 10.0733 0.00019834 22.4995 0ZM27.9778 19.9739C24.4001 18.897 20.5999 18.897 17.0222 19.9739C15.0463 20.5686 14.3423 23.0913 15.7074 24.6851L19.96 29.6504C21.3107 31.2273 23.6893 31.2274 25.04 29.6504L29.2926 24.6851C30.6575 23.0913 29.9536 20.5686 27.9778 19.9739ZM12.4997 10.8331C10.659 10.8332 9.16659 12.3256 9.16647 14.1664C9.16647 16.0072 10.6589 17.4995 12.4997 17.4996C14.3407 17.4996 15.833 16.0073 15.833 14.1664C15.8329 12.3255 14.3406 10.8331 12.4997 10.8331ZM32.5003 10.8331C30.6594 10.8331 29.1662 12.3255 29.166 14.1664C29.166 16.0073 30.6593 17.4996 32.5003 17.4996C34.341 17.4994 35.8335 16.0071 35.8335 14.1664C35.8334 12.3257 34.3409 10.8333 32.5003 10.8331Z" fill="white"/>
</svg>
