<svg preserveAspectRatio="none" width="100%" height="100%" overflow="visible" style="display: block;" viewBox="0 0 92.2392 111.403" fill="none" xmlns="http://www.w3.org/2000/svg">
<g id="Group">
<path id="Vector" d="M91.894 111.403C91.894 111.403 95.7609 49.105 77.6112 19.4199C59.4558 -10.2595 38.0288 0.6134 29.6938 12.9532C29.6938 12.9532 17.492 20.8867 5.88543 20.5956C5.88543 20.5956 11.2436 41.7536 34.4567 32.3532C34.4567 32.3532 54.3924 33.8201 58.2651 57.3296C62.132 80.8391 33.5665 111.403 33.5665 111.403H91.894Z" fill="var(--fill-0, #FF740C)"/>
<path id="Vector_2" d="M29.0927 13.33C40.2137 20.6927 34.4566 32.3533 34.4566 32.3533C11.2436 41.7594 5.88538 20.5957 5.88538 20.5957C15.9775 20.8525 26.5147 14.8881 29.0927 13.3242V13.33Z" fill="var(--fill-0, #FFF3DB)"/>
<path id="Vector_3" d="M70.9929 64.4756C81.0966 84.8117 82.3335 101.324 81.6688 111.403H33.5607C33.5607 111.403 62.1319 80.8392 58.2592 57.3297C54.3923 33.8202 34.4508 32.3533 34.4508 32.3533C34.4508 32.3533 53.9357 30.1502 70.9871 64.4756H70.9929Z" fill="var(--fill-0, #ED4714)"/>
<path id="Vector_4" d="M2.13996 21.6858C4.50404 24.2028 7.85653 24.9277 9.63103 23.301C11.3998 21.6801 10.9142 18.324 8.55014 15.807C6.18606 13.2899 2.83358 12.5708 1.06485 14.1917C-0.703874 15.8127 -0.218336 19.1687 2.14574 21.6858H2.13996Z" fill="var(--fill-0, #593A42)"/>
<path id="Vector_5" d="M50.5023 4.69442C50.9994 3.22757 58.7505 -1.01887 60.999 0.225386C63.2475 1.46964 67.0566 22.9758 64.1145 27.2736C61.1666 31.5657 53.5889 11.6177 52.4675 10.2365C51.3462 8.84954 51.7681 14.8082 50.5023 14.1119C49.2364 13.4213 49.3809 8.01623 50.5023 4.69442Z" fill="var(--fill-0, #593A42)"/>
<path id="Vector_6" d="M35.948 14.5399C35.948 16.1552 36.7803 17.4679 37.8092 17.4679C38.838 17.4679 39.6704 16.1552 39.6704 14.5399C39.6704 12.9247 38.838 11.6119 37.8092 11.6119C36.7803 11.6119 35.948 12.919 35.948 14.5399Z" fill="var(--fill-0, #593A42)"/>
<path id="Vector_7" d="M31.1273 22.1083C32.6764 25.5728 32.474 30.5269 27.8731 31.2575C27.1101 31.3774 26.7806 30.2244 27.5494 30.1046C31.3065 29.5053 31.3354 25.5271 30.0811 22.7133C29.7689 22.017 30.8151 21.4062 31.1273 22.1083Z" fill="var(--fill-0, #593A42)"/>
<g id="Group_2">
<path id="Vector_8" d="M5.20339 14.1575C5.74095 14.4543 6.22648 14.7797 6.65999 15.2191C7.75822 16.3264 5.96059 17.936 4.86814 16.8344C4.58492 16.549 4.23233 16.3664 3.88552 16.1723C2.52141 15.4189 3.84506 13.4098 5.20339 14.1632V14.1575Z" fill="var(--fill-0, #936170)"/>
<path id="Vector_9" d="M8.44015 16.6917C8.81586 16.9885 9.08174 17.2796 9.34763 17.6734C9.71178 18.2214 9.37653 19.009 8.83898 19.2887C8.20894 19.614 7.56735 19.3286 7.2032 18.7864C7.1743 18.7579 7.15118 18.7293 7.12228 18.7008C6.60785 18.2956 6.37664 17.6335 6.76391 17.0456C7.09915 16.5433 7.92572 16.2865 8.44015 16.6917Z" fill="var(--fill-0, #936170)"/>
</g>
</g>
</svg>
