<svg preserveAspectRatio="none" width="100%" height="100%" overflow="visible" style="display: block;" viewBox="0 0 87.7871 208.594" fill="none" xmlns="http://www.w3.org/2000/svg">
<g id="Group">
<path id="Vector" d="M54.431 42.6405C57.8991 43.2854 61.0319 23.4459 69.3842 21.1571C77.7365 18.8684 91.9442 15.8776 86.6264 11.0833C81.3145 6.2889 60.2227 4.17139 54.9397 11.7967C49.6624 19.4277 46.2926 41.1337 54.431 42.6462V42.6405Z" fill="var(--fill-0, #352328)"/>
<path id="Vector_2" d="M54.9388 11.7852C60.2161 4.15991 81.3136 6.28313 86.6256 11.0718C87.9261 12.2418 88.0475 13.3092 87.3886 14.2794C85.8568 14.2224 84.3135 14.2737 82.7298 14.4678C72.0134 15.4267 56.4995 22.8066 49.5575 32.3668C49.5113 25.1923 51.9043 16.1687 54.9388 11.7852Z" fill="var(--fill-0, #593A42)"/>
<g id="Group_2">
<path id="Vector_3" d="M36.5348 79.0548C40.9681 82.7762 47.9968 85.316 47.9968 85.316C47.2569 106.588 52.7365 132.324 59.2276 154.766C28.6391 115.943 36.5348 79.0605 36.5348 79.0605V79.0548Z" fill="var(--fill-0, #EFDCBD)"/>
<path id="Vector_4" d="M15.7036 61.5496C19.2469 43.8276 25.4547 26.3224 47.9279 30.4776C70.4011 34.6327 68.4417 56.955 67.777 56.955C67.1122 56.955 90.8224 82.3366 78.2679 89.7736C65.7134 97.2106 47.9973 85.3103 47.9973 85.3103C47.9973 85.3103 40.9686 82.7704 36.5353 79.049C36.5353 79.049 28.6396 115.931 59.2281 154.754C67.8579 184.571 78.2737 208.577 78.2737 208.577H0.195512C-1.79864 156.94 12.0506 79.8196 15.7094 61.5439L15.7036 61.5496Z" fill="var(--fill-0, #FFF3DB)"/>
</g>
<path id="Vector_5" d="M37.5752 69.6316C37.5752 69.6316 27.379 66.7207 25.3386 72.4226C23.2982 78.1302 39.9162 77.4681 39.9162 77.4681C39.9162 77.4681 37.8815 74.7399 37.5752 69.6316Z" fill="var(--fill-0, #FEB8AC)"/>
<path id="Vector_6" d="M85.3139 78.7751C85.3139 82.4622 81.5106 85.4472 76.8171 85.4472C72.1237 85.4472 68.3203 82.4622 68.3203 78.7751C68.3203 75.088 72.1237 72.1029 76.8171 72.1029C81.5106 72.1029 85.3139 75.0937 85.3139 78.7751Z" fill="var(--fill-0, #593A42)"/>
<path id="Vector_7" d="M50.4132 60.7794C52.8525 60.7794 54.7599 58.1425 54.7599 54.7807C54.7599 54.3527 54.4073 53.9988 53.968 53.9988C53.5287 53.9988 53.1762 54.347 53.1762 54.7807C53.1762 57.1893 51.9103 59.2212 50.4075 59.2212C48.9046 59.2212 47.6388 57.1893 47.6388 54.7807C47.6388 54.3527 47.2862 53.9988 46.8469 53.9988C46.4076 53.9988 46.055 54.347 46.055 54.7807C46.055 58.1425 47.9624 60.7794 50.4017 60.7794H50.4132Z" fill="var(--fill-0, #593A42)"/>
<path id="Vector_8" d="M64.7716 60.7794C67.2108 60.7794 69.1183 58.1425 69.1183 54.7807C69.1183 54.3526 68.7657 53.9988 68.3264 53.9988C67.8871 53.9988 67.5345 54.3469 67.5345 54.7807C67.5345 57.1893 66.2687 59.2212 64.7658 59.2212C63.263 59.2212 61.9971 57.1893 61.9971 54.7807C61.9971 54.3526 61.6445 53.9988 61.2053 53.9988C60.766 53.9988 60.4134 54.3469 60.4134 54.7807C60.4134 58.1425 62.3208 60.7794 64.76 60.7794H64.7716Z" fill="var(--fill-0, #593A42)"/>
<path id="Vector_9" d="M30.1658 73.1705C32.8767 72.9479 35.6974 73.1534 38.3563 73.7641C38.8996 73.8897 38.6684 74.7116 38.1251 74.586C35.5413 73.9867 32.8131 73.8041 30.1658 74.0209C29.6109 74.0666 29.6167 73.2162 30.1658 73.1705Z" fill="var(--fill-0, #FC8686)"/>
<g id="Group_3">
<path id="Vector_10" d="M73.904 73.2559C72.1063 73.7125 70.696 75.0252 70.0428 76.7261C69.592 77.919 71.5225 78.4326 71.9734 77.2512C72.3722 76.1953 73.3491 75.4362 74.4357 75.1622C75.6843 74.8426 75.1525 72.9362 73.904 73.2559Z" fill="var(--fill-0, #936170)"/>
<path id="Vector_11" d="M70.5978 77.9532C70.1065 77.8219 69.4649 78.113 69.3666 78.6438C69.3204 78.9063 69.251 79.1632 69.2048 79.42C69.1065 79.9451 69.3435 80.4816 69.9042 80.6357C70.3897 80.767 71.0371 80.4759 71.1354 79.9451C71.1816 79.6826 71.251 79.4257 71.2972 79.1689C71.3955 78.6438 71.1585 78.1073 70.6036 77.9532H70.5978Z" fill="var(--fill-0, #936170)"/>
</g>
<path id="Vector_12" d="M32.5411 43.1201C35.8993 42.0585 30.94 22.5728 37.1883 16.6426C43.4309 10.7067 52.6444 1.96272 45.662 0.239033C38.6796 -1.48466 19.1022 6.55732 18.1312 15.7465C17.1601 24.9357 24.657 45.6143 32.5411 43.1258V43.1201Z" fill="var(--fill-0, #352328)"/>
<g id="Group_4">
<path id="Vector_13" d="M38.6224 153.008C37.2179 142.94 44.6858 135.628 53.5294 132.7C55.2172 140.223 57.1709 147.66 59.2229 154.766C61.1072 161.284 63.084 167.528 65.0088 173.304C53.726 173.983 39.9461 163.498 38.6167 153.014L38.6224 153.008Z" fill="var(--fill-0, #593A42)"/>
<path id="Vector_14" d="M19.1264 80.3389C17.3288 88.0385 14.6005 94.8191 9.36949 97.8955C11.9821 81.1038 14.4445 67.8451 15.7045 61.5553C16.3403 58.3876 17.0571 55.2256 17.9414 52.1949C23.7736 60.7391 22.2245 68.1133 19.1264 80.3389Z" fill="var(--fill-0, #593A42)"/>
<path id="Vector_15" d="M33.3048 208.588H0.196118C-0.231613 197.441 0.0747313 185.102 0.860831 172.425C4.97629 173.053 9.32874 174.411 13.7737 176.112C28.4957 181.928 36.6746 194.199 33.3106 208.594L33.3048 208.588Z" fill="var(--fill-0, #593A42)"/>
</g>
<path id="Vector_16" d="M39.1306 65.0655C37.2347 69.2948 38.0843 73.4328 40.3386 77.3311C42.2981 80.7157 45.6679 82.4793 49.1244 84.0489C49.6273 84.2772 49.188 85.0135 48.6909 84.7852C44.6911 82.9759 41.4368 80.9497 39.2115 77.1028C36.9457 73.1817 36.5295 68.7869 38.3849 64.6432C38.6103 64.1409 39.356 64.5747 39.1306 65.0712V65.0655Z" fill="var(--fill-0, #593A42)"/>
<path id="Vector_17" d="M53.5288 132.7V132.712C53.9335 134.51 54.3496 136.296 54.7831 138.077C54.8641 138.408 54.945 138.739 55.0259 139.07C55.3669 140.457 55.7137 141.838 56.0663 143.208C56.1935 143.71 56.3264 144.207 56.4536 144.703C56.7773 145.948 57.1125 147.186 57.4478 148.419C57.5749 148.898 57.7079 149.378 57.8408 149.852C58.2975 151.501 58.7541 153.145 59.2223 154.76C54.1762 148.356 50.1821 142.004 47.0204 135.857C49.0088 134.527 51.2168 133.459 53.5231 132.695L53.5288 132.7Z" fill="var(--fill-0, #352328)"/>
<path id="Vector_18" d="M18.1313 15.7407C19.1024 6.55147 38.6798 -1.4848 45.6622 0.233182C47.6679 0.729741 48.3326 1.80277 48.1187 3.22395C42.0438 6.69416 36.3446 10.8778 32.0037 16.2772C24.8883 25.278 26.6628 34.2789 30.7263 43.2797C23.5473 42.4636 17.2354 24.2164 18.1313 15.7407Z" fill="var(--fill-0, #593A42)"/>
</g>
</svg>
