<svg preserveAspectRatio="none" width="100%" height="100%" overflow="visible" style="display: block;" viewBox="0 0 64.539 127.816" fill="none" xmlns="http://www.w3.org/2000/svg">
<g id="Group">
<g id="Group_2">
<path id="Vector" d="M9.29701 22.7906C7.86353 24.3202 6.50519 25.8726 5.29714 27.5107C6.9387 10.6391 13.0021 0.00589998 15.1812 0.000192402C17.8921 0.000192402 20.5567 9.99417 21.9266 16.0842C16.7823 16.7691 13.1408 18.7667 9.30278 22.7906H9.29701Z" fill="var(--fill-0, #FA9700)"/>
<path id="Vector_2" d="M9.29677 22.7904C13.1348 18.7665 16.7763 16.7746 21.9206 16.084C22.5217 18.7494 22.8743 20.6729 22.8743 20.6729L4.93275 33.0184C4.99634 31.1177 5.1235 29.2799 5.29112 27.5105C6.50495 25.8725 7.85751 24.32 9.29099 22.7904H9.29677Z" fill="var(--fill-0, #FF740C)"/>
<path id="Vector_3" d="M59.3758 28.9775C59.4799 30.2902 59.5608 31.6372 59.6071 33.0185L41.6655 20.673C41.6655 20.673 41.9834 18.9321 42.5325 16.4722C45.9428 17.5167 49.2953 19.7198 51.9773 21.4891C54.8442 23.4982 57.3759 26.0895 59.3701 28.9832L59.3758 28.9775Z" fill="var(--fill-0, #FF740C)"/>
<path id="Vector_4" d="M49.3643 0C51.6012 0 57.9536 11.2668 59.3755 28.9831C57.3814 26.0893 54.8497 23.4981 51.9827 21.489C49.3008 19.7254 45.9483 17.5166 42.538 16.4721C43.879 10.4277 46.5956 0 49.3701 0H49.3643Z" fill="var(--fill-0, #FA9700)"/>
</g>
<path id="Vector_5" d="M15.1746 4.56063C16.03 4.40652 20.053 19.7599 19.0762 20.9756C18.0993 22.1913 9.17477 29.1717 8.71236 28.1158C8.24995 27.0542 13.4868 4.86313 15.1803 4.56063H15.1746Z" fill="var(--fill-0, #FEB8AC)"/>
<path id="Vector_6" d="M49.3646 4.56059C48.5091 4.40648 44.4861 19.7599 45.463 20.9756C46.4398 22.1913 55.3644 29.1717 55.8268 28.1158C56.2892 27.0541 51.0524 4.86309 49.3588 4.56059H49.3646Z" fill="var(--fill-0, #FEB8AC)"/>
<path id="Vector_7" d="M8.11137 127.81C8.11137 127.81 -3.66856 69.3644 1.16364 44.3138C5.99584 19.2632 25.0241 16.5807 32.2724 16.5807C39.5207 16.5807 58.5489 19.2632 63.3753 44.3138C68.2075 69.3644 56.4276 127.81 56.4276 127.81H8.1056H8.11137Z" fill="var(--fill-0, #FFF3DB)"/>
<path id="Vector_8" d="M33.3702 16.6036C41.2774 16.8833 58.7681 20.4391 63.3749 44.3139C68.2071 69.3645 56.4272 127.81 56.4272 127.81H54.9937C66.3979 89.2383 64.4558 40.7809 33.3702 16.6036Z" fill="var(--fill-0, #FFF9EE)"/>
<g id="Group_3">
<path id="Vector_9" d="M34.8217 40.7296C31.6484 33.2926 33.7929 20.2166 31.6427 20.2166C29.4925 20.2166 31.6427 33.2926 28.4636 40.7296C26.0128 46.4828 10.2908 39.9819 3.28526 36.74C10.1058 18.7155 25.8278 16.5808 32.2669 16.5808C38.706 16.5808 54.139 18.6641 61.0636 36.2377C54.7517 39.2342 37.4055 46.791 34.8217 40.7296Z" fill="var(--fill-0, #FA9700)"/>
<path id="Vector_10" d="M0.071089 64.1534C1.9901 70.9341 5.0189 77.4635 8.71241 83.7533C16.0994 96.3727 24.8737 108.073 28.573 122.365C28.9718 123.843 29.5151 125.75 29.966 127.81H8.11127C8.11127 127.81 0.851409 91.7667 0.071089 64.1534Z" fill="var(--fill-0, #FA9700)"/>
<path id="Vector_11" d="M55.8263 83.7532C59.5198 77.4635 62.5486 70.9283 64.4676 64.1534C63.6873 91.761 56.4274 127.81 56.4274 127.81H34.5727C35.0293 125.75 35.5669 123.843 35.9657 122.365C39.6592 108.079 48.4335 96.3727 55.8263 83.7532Z" fill="var(--fill-0, #FA9700)"/>
<path id="Vector_12" d="M33.3705 16.5982C40.2835 16.8436 54.5142 19.6004 61.0631 36.238C58.9765 37.2311 55.6818 38.7151 52.1155 40.0449C47.6879 30.9642 41.5321 22.945 33.3647 16.5982H33.3705Z" fill="var(--fill-0, #FF9E10)"/>
<path id="Vector_13" d="M56.4274 127.81H54.9939C60.0284 110.773 62.4619 91.8124 60.9301 73.8678C62.3347 70.6887 63.537 67.4525 64.4676 64.1592C63.6873 91.7668 56.4274 127.816 56.4274 127.816V127.81Z" fill="var(--fill-0, #FF9E10)"/>
</g>
<path id="Vector_14" d="M38.0172 35.7526C38.3698 35.7526 38.6531 35.4729 38.6531 35.1248C38.6531 33.1842 39.6762 31.5461 40.8842 31.5461C42.0923 31.5461 43.1153 33.1842 43.1153 35.1248C43.1153 35.4729 43.3986 35.7526 43.7512 35.7526C44.1038 35.7526 44.387 35.4729 44.387 35.1248C44.387 32.4137 42.8495 30.2905 40.8842 30.2905C38.919 30.2905 37.3814 32.4137 37.3814 35.1248C37.3814 35.4729 37.6647 35.7526 38.0172 35.7526Z" fill="var(--fill-0, #593A42)"/>
<path id="Vector_15" d="M20.9023 35.7526C21.2548 35.7526 21.5381 35.473 21.5381 35.1248C21.5381 33.1842 22.5612 31.5462 23.7692 31.5462C24.9773 31.5462 26.0004 33.1842 26.0004 35.1248C26.0004 35.473 26.2836 35.7526 26.6362 35.7526C26.9888 35.7526 27.272 35.473 27.272 35.1248C27.272 32.4137 25.7345 30.2905 23.7692 30.2905C21.804 30.2905 20.2664 32.4137 20.2664 35.1248C20.2664 35.473 20.5497 35.7526 20.9023 35.7526Z" fill="var(--fill-0, #593A42)"/>
<path id="Vector_16" d="M43.7459 48.3663C40.931 53.2805 36.2606 55.6548 30.5845 55.3809C25.0471 55.1183 19.4057 51.3856 18.6311 45.678C18.556 45.1015 19.4404 44.8561 19.5213 45.4383C20.3016 51.1801 25.8505 54.2451 31.255 54.5019C36.3241 54.7416 40.4974 52.1961 42.954 47.904C43.2488 47.3903 44.0465 47.8526 43.7517 48.3663H43.7459Z" fill="var(--fill-0, #593A42)"/>
<path id="Vector_17" d="M31.3362 54.856C31.3247 52.4702 31.6021 50.073 31.1975 47.6987C31.0993 47.1222 31.9894 46.8768 32.0877 47.4589C32.5096 49.9189 32.2438 52.3789 32.2611 54.856C32.2611 55.4438 31.342 55.4438 31.3362 54.856Z" fill="var(--fill-0, #593A42)"/>
<g id="Group_4">
<path id="Vector_18" d="M23.862 43.6919C23.862 47.0936 27.3763 49.8561 31.7057 49.8561C36.035 49.8561 39.5493 47.0993 39.5493 43.6919C39.5493 40.2844 36.035 37.5277 31.7057 37.5277C27.3763 37.5277 23.862 40.2844 23.862 43.6919Z" fill="var(--fill-0, #593A42)"/>
<g id="Group_5">
<path id="Vector_19" d="M34.3992 38.5893C36.0581 39.0116 37.3644 40.2216 37.9656 41.7969C38.3875 42.8985 36.6015 43.3722 36.1853 42.2821C35.8154 41.3118 34.9137 40.604 33.9137 40.3529C32.7577 40.0618 33.249 38.2982 34.405 38.595L34.3992 38.5893Z" fill="var(--fill-0, #936170)"/>
<path id="Vector_20" d="M37.4573 42.927C37.9082 42.8071 38.5035 43.0754 38.5902 43.5662C38.6364 43.8059 38.7 44.0456 38.7405 44.2854C38.8272 44.7762 38.6133 45.2671 38.0931 45.4098C37.6423 45.5353 37.0469 45.2614 36.9602 44.7705C36.9198 44.5308 36.8562 44.2968 36.8099 44.0514C36.7175 43.5662 36.9371 43.0696 37.4573 42.9327V42.927Z" fill="var(--fill-0, #936170)"/>
</g>
</g>
</g>
</svg>
