<svg preserveAspectRatio="none" width="100%" height="100%" overflow="visible" style="display: block;" viewBox="0 0 87.1189 182.264" fill="none" xmlns="http://www.w3.org/2000/svg">
<g id="Group">
<g id="Group_2">
<path id="Vector" d="M1.59555 33.2279C0.601364 19.3756 3.28335 0.295205 5.61275 0.00411856C7.81499 -0.264138 16.5372 12.8747 20.3001 18.725C15.9303 19.6896 12.1674 22.5662 8.83229 25.38C6.09828 27.7429 3.64172 30.3513 1.59555 33.2222V33.2279Z" fill="var(--fill-0, #FA9700)"/>
<path id="Vector_2" d="M8.83244 25.3855C12.1676 22.5717 15.9305 19.6894 20.3003 18.7305C21.3754 20.4028 22.0516 21.4816 22.0516 21.4816L2.78641 41.2127C2.19106 38.9582 1.80956 36.2128 1.5957 33.2335C3.64765 30.3625 6.09843 27.7542 8.83244 25.3912V25.3855Z" fill="var(--fill-0, #F27006)"/>
<path id="Vector_3" d="M52.5245 33.2279C52.3106 36.2073 51.9291 38.9526 51.3338 41.2071L32.0685 21.476C32.0685 21.476 32.7448 20.3973 33.8199 18.725C38.1897 19.6896 41.9468 22.5662 45.2877 25.38C48.0217 27.7429 50.4783 30.3513 52.5245 33.2222V33.2279Z" fill="var(--fill-0, #F27006)"/>
<path id="Vector_4" d="M48.5074 0.00394961C50.8368 0.295036 53.5188 19.3698 52.5246 33.2278C50.4784 30.3569 48.0219 27.7485 45.2878 25.3856C41.9469 22.5717 38.184 19.6894 33.82 18.7305C37.5887 12.8802 46.3051 -0.264308 48.5074 0.00965623V0.00394961Z" fill="var(--fill-0, #FA9700)"/>
</g>
<g id="Group_3">
<path id="Vector_5" d="M36.028 106.781C26.485 111.319 15.7224 108.773 6.01749 105.183L7.73419 76.6454L45.4323 74.0257C47.386 77.6043 49.2876 81.28 51.1315 85.0185C49.068 94.025 44.6982 102.581 36.0222 106.781H36.028Z" fill="var(--fill-0, #F27006)"/>
<path id="Vector_6" d="M36.0281 106.781C44.6984 102.581 49.0681 94.0249 51.1374 85.0183C72.9864 129.275 87.1189 182.264 87.1189 182.264H1.38196L6.01763 105.189C15.7225 108.779 26.4793 111.325 36.0281 106.787V106.781Z" fill="var(--fill-0, #FA9700)"/>
</g>
<path id="Vector_7" d="M5.05784 0.415184C10.1733 5.32941 10.6704 13.9307 9.67617 20.9568C8.73979 27.0068 5.78613 31.7897 1.82673 35.8364C0.364357 22.943 2.72844 3.46874 5.05206 0.415184H5.05784Z" fill="var(--fill-0, #FEB8AC)"/>
<path id="Vector_8" d="M49.0623 0.41497C43.9469 5.32919 43.444 13.9305 44.4439 20.9565C45.3803 27.0066 48.334 31.7895 52.2934 35.8362C53.7558 22.9428 51.3917 3.46852 49.0681 0.41497H49.0623Z" fill="var(--fill-0, #FEB8AC)"/>
<path id="Vector_9" d="M27.0629 106.325C48.4032 106.325 52.3972 69.6652 53.9925 52.0345C55.5821 34.4038 42.675 19.3871 27.0629 19.3871C11.4507 19.3871 -1.45637 34.4038 0.133165 52.0345C1.7227 69.6652 5.72257 106.325 27.0629 106.325Z" fill="var(--fill-0, #FFF3DB)"/>
<g id="Group_4">
<path id="Vector_10" d="M30.4906 19.6382C44.5075 21.6415 55.4608 35.7107 53.9869 52.0287C53.195 60.8298 51.7962 74.3795 47.9409 85.7376C44.1491 70.6354 31.7738 63.1071 30.6467 54.4715C29.5427 46.0186 30.1611 27.5717 30.4906 19.6324V19.6382Z" fill="var(--fill-0, #FA9700)"/>
<path id="Vector_11" d="M23.6294 19.6382C23.9531 27.5774 24.5774 46.0243 23.4734 54.4773C22.3462 63.1128 9.97094 70.6411 6.17916 85.7434C2.32381 74.3853 0.930793 60.8355 0.133133 52.0344C-1.3408 35.7107 9.61257 21.6473 23.6294 19.6439V19.6382Z" fill="var(--fill-0, #FA9700)"/>
</g>
<path id="Vector_12" d="M15.1443 60.1505C12.2716 60.1505 10.0289 57.0513 10.0289 53.0902C10.0289 52.5823 10.445 52.1713 10.9595 52.1713C11.4739 52.1713 11.8901 52.5823 11.8901 53.0902C11.8901 55.9212 13.3813 58.3127 15.1501 58.3127C16.9188 58.3127 18.4043 55.9212 18.4043 53.0902C18.4043 52.5823 18.8205 52.1713 19.3349 52.1713C19.8493 52.1713 20.2655 52.5823 20.2655 53.0902C20.2655 57.0513 18.017 60.1505 15.1501 60.1505H15.1443Z" fill="var(--fill-0, #593A42)"/>
<path id="Vector_13" d="M41.2475 60.1505C38.3806 60.1505 36.1321 57.0513 36.1321 53.0902C36.1321 52.5822 36.5483 52.1713 37.0627 52.1713C37.5771 52.1713 37.9933 52.5822 37.9933 53.0902C37.9933 55.9212 39.4846 58.3127 41.2533 58.3127C43.022 58.3127 44.5075 55.9212 44.5075 53.0902C44.5075 52.5822 44.9237 52.1713 45.4381 52.1713C45.9526 52.1713 46.3687 52.5822 46.3687 53.0902C46.3687 57.0513 44.1203 60.1505 41.2533 60.1505H41.2475Z" fill="var(--fill-0, #593A42)"/>
<g id="Group_5">
<path id="Vector_14" d="M37.0567 93.5914C37.0567 97.9292 32.5771 101.445 27.0629 101.445C21.5486 101.445 17.0632 97.9292 17.0632 93.5914C17.0632 89.2537 21.537 85.7378 27.0629 85.7378C32.5887 85.7378 37.0567 89.2537 37.0567 93.5914Z" fill="var(--fill-0, #593A42)"/>
<g id="Group_6">
<path id="Vector_15" d="M23.6297 87.0959C21.5142 87.6324 19.8553 89.1792 19.0923 91.1826C18.5547 92.5866 20.8321 93.1916 21.3639 91.799C21.8321 90.5604 22.9823 89.6643 24.2597 89.339C25.7279 88.9623 25.1036 86.7249 23.6355 87.0959H23.6297Z" fill="var(--fill-0, #936170)"/>
<path id="Vector_16" d="M19.7396 92.621C19.1616 92.4669 18.4101 92.8093 18.2887 93.4315C18.2309 93.7397 18.1558 94.0365 18.098 94.3447C17.9824 94.9668 18.2598 95.5946 18.9188 95.7773C19.491 95.9314 20.254 95.5889 20.3638 94.9668C20.4216 94.6586 20.4968 94.3561 20.5546 94.0536C20.6702 93.4315 20.3927 92.8036 19.7338 92.621H19.7396Z" fill="var(--fill-0, #936170)"/>
</g>
</g>
<path id="Vector_17" d="M14.0866 148.738C16.1674 138.019 26.5544 94.4701 43.1838 117.272C50.5709 127.306 54.0389 140.302 56.8076 151.928C59.2295 161.865 60.8942 172.093 62.2988 182.264H9.90755C10.8497 171.026 12.0173 159.816 14.0866 148.738Z" fill="var(--fill-0, #FFF3DB)"/>
</g>
</svg>
