<svg preserveAspectRatio="none" width="100%" height="100%" overflow="visible" style="display: block;" viewBox="0 0 81.8812 157.632" fill="none" xmlns="http://www.w3.org/2000/svg">
<g id="Group">
<g id="Group_2">
<path id="Vector" d="M38.5122 19.4177C38.8416 19.6631 40.645 25.8387 41.7259 29.6342L32.7436 32.5622V27.1628C32.7436 27.1628 38.0382 19.0638 38.5122 19.4177Z" fill="var(--fill-0, #FEB8AC)"/>
<path id="Vector_2" d="M20.9234 24.5603C21.8771 22.4485 35.0674 12.0265 39.3505 12.7285C43.6336 13.4306 46.0671 28.2246 46.0671 28.2246L41.7319 29.6401C40.6511 25.8388 38.8477 19.6689 38.5182 19.4235C38.0442 19.0696 32.7496 27.1687 32.7496 27.1687C32.7496 27.1687 25.2065 36.0896 24.1372 36.4435C23.0679 36.7974 19.9755 26.6778 20.9292 24.566L20.9234 24.5603Z" fill="var(--fill-0, #352328)"/>
</g>
<g id="Group_3">
<path id="Vector_3" d="M64.3099 8.03115C63.9515 7.32912 56.5703 5.79949 56.5703 5.79949C56.5703 5.79949 53.0039 5.21161 52.7669 4.62373C52.53 4.03585 57.2812 -0.050777 60.4141 0.000591238C67.2924 3.2425 77.9799 19.9999 70.4946 53.1039L67.7895 49.6622C72.4772 21.3583 64.3157 8.03115 64.3157 8.03115H64.3099Z" fill="var(--fill-0, #352328)"/>
<path id="Vector_4" d="M56.5759 5.79962C56.5759 5.79962 63.9571 7.32354 64.3155 8.03128C64.3155 8.03128 72.4771 21.3585 67.7894 49.6624L51.5934 29.0409L56.5759 5.79962Z" fill="var(--fill-0, #FEB8AC)"/>
</g>
<path id="Vector_5" d="M0.976444 53.0067C2.67003 45.3186 23.6578 41.6429 23.6578 41.6429C36.8596 17.9108 58.5236 23.9266 68.6793 41.6429C78.835 59.3593 81.8812 157.632 81.8812 157.632H19.733L32.3337 71.8874C2.9706 71.4194 -0.717139 60.6948 0.976444 53.0067Z" fill="var(--fill-0, #593A42)"/>
<path id="Vector_6" d="M54.4725 157.632H19.7338L32.3345 71.8875C32.3345 71.8875 36.7737 72.4183 42.7214 71.9902C42.7214 71.9902 51.3281 135.704 54.4725 157.632Z" fill="var(--fill-0, #352328)"/>
<path id="Vector_7" d="M39.3506 42.2767C39.3506 47.6418 42.8649 51.9909 47.1943 51.9909C51.5236 51.9909 55.0379 47.6418 55.0379 42.2767C55.0379 36.9115 51.5236 32.5624 47.1943 32.5624C42.8649 32.5624 39.3506 36.9115 39.3506 42.2767Z" fill="var(--fill-0, #352328)"/>
<path id="Vector_8" d="M43.987 42.2765C43.987 43.9602 44.9175 45.33 46.0678 45.33C47.218 45.33 48.1487 43.9659 48.1487 42.2765C48.1487 40.587 47.218 39.2229 46.0678 39.2229C44.9175 39.2229 43.987 40.587 43.987 42.2765Z" fill="var(--fill-0, #191113)"/>
<path id="Vector_9" d="M30.6636 41.7229C30.6636 43.4067 31.5942 44.7708 32.7444 44.7708C33.8947 44.7708 34.8253 43.4067 34.8253 41.7229C34.8253 40.0392 33.8947 38.6694 32.7444 38.6694C31.5942 38.6694 30.6636 40.0335 30.6636 41.7229Z" fill="var(--fill-0, #191113)"/>
<g id="Group_4">
<path id="Vector_10" d="M0 51.9909C0 55.3926 3.51433 58.155 7.84366 58.155C12.173 58.155 15.6873 55.3926 15.6873 51.9909C15.6873 48.5891 12.173 45.8267 7.84366 45.8267C3.51433 45.8267 0 48.5834 0 51.9909Z" fill="var(--fill-0, #191113)"/>
<g id="Group_5">
<path id="Vector_11" d="M10.173 46.8941C11.8319 47.3164 13.1382 48.5264 13.7394 50.1017C14.1613 51.2033 12.3752 51.677 11.9591 50.5869C11.5891 49.6166 10.6874 48.9089 9.68747 48.6577C8.53722 48.3666 9.02277 46.603 10.1788 46.8998L10.173 46.8941Z" fill="var(--fill-0, #593A42)"/>
<path id="Vector_12" d="M13.2253 51.232C13.6762 51.1121 14.2716 51.3804 14.3583 51.8712C14.4045 52.1109 14.4623 52.3507 14.5085 52.5904C14.5952 53.0812 14.3814 53.5721 13.8612 53.7091C13.4103 53.8289 12.815 53.5607 12.7282 53.0698C12.6878 52.8301 12.6242 52.5904 12.578 52.3507C12.4913 51.8598 12.7051 51.369 13.2253 51.2263V51.232Z" fill="var(--fill-0, #593A42)"/>
</g>
</g>
<g id="Group_6">
<path id="Vector_13" d="M34.5769 61.2713C34.5769 61.2713 44.8136 66.1341 42.3165 72.1214C39.8195 78.1086 27.0454 65.8716 27.0454 65.8716C27.0454 65.8716 30.6349 65.1296 34.5769 61.277V61.2713Z" fill="var(--fill-0, #FEB8AC)"/>
<path id="Vector_14" d="M37.2931 69.9812C35.3625 67.9493 33.0273 66.1343 30.5245 64.8272C29.9986 64.5533 30.4667 63.7656 30.9927 64.0396C33.5476 65.3752 35.9694 67.2587 37.9462 69.3362C38.3508 69.7643 37.7035 70.4092 37.2931 69.9812Z" fill="var(--fill-0, #FC8686)"/>
<path id="Vector_15" d="M37.5362 56.7453C36.2819 60.6778 33.6057 63.4517 29.8948 65.2553C24.8372 67.7153 19.9472 67.1046 14.7393 65.5179C14.1728 65.3466 14.4156 64.462 14.9821 64.6389C19.6178 66.0544 23.7679 66.6594 28.4093 64.9072C32.3572 63.4175 35.3686 60.5009 36.6403 56.5056C36.8195 55.9463 37.7096 56.186 37.5304 56.7453H37.5362Z" fill="var(--fill-0, #352328)"/>
</g>
</g>
</svg>
