<svg preserveAspectRatio="none" width="100%" height="100%" overflow="visible" style="display: block;" viewBox="0 0 74.1419 96.4063" fill="none" xmlns="http://www.w3.org/2000/svg">
<g id="Group">
<g id="Group_2">
<path id="Vector" d="M49.0675 24.5766C49.0675 24.5766 49.5762 19.0003 51.3564 14.0119C52.761 15.5415 54.3043 16.9513 55.9921 18.167L52.3622 23.6691L49.0617 24.5766H49.0675Z" fill="var(--fill-0, #EFDCBD)"/>
<path id="Vector_2" d="M51.3623 14.0118C51.894 12.5164 52.5414 11.0781 53.3275 9.85665C53.6108 9.41717 53.9402 9.00622 54.3044 8.6124C54.1945 7.7106 54.2639 6.70607 54.7437 6.02116C55.0211 5.57026 55.5298 5.26205 55.9633 5.69583C56.2985 6.03258 56.2523 6.56338 56.1945 7.00286C56.2118 6.99144 56.2292 6.98574 56.2407 6.96862C56.6338 5.63304 56.7609 4.01209 57.732 2.97331C58.1713 2.54524 58.6915 2.48245 58.9805 3.07604C59.3389 3.78949 59.0036 4.82257 58.836 5.53602C59.2984 5.01663 61.622 2.25415 62.5122 2.04297C63.3098 1.86604 63.2289 2.54524 62.9861 3.08176C62.7376 3.64681 62.3156 4.13195 61.859 4.57714C65.7664 3.69246 69.5755 4.22327 70.4714 6.52343C72.3211 11.2493 58.9458 13.675 58.9458 13.675L55.9922 18.1555C54.3044 16.9398 52.7611 15.5243 51.3565 14.0004L51.3623 14.0118Z" fill="var(--fill-0, #FFF3DB)"/>
</g>
<path id="Vector_3" d="M35.4786 17.0366C35.4786 17.0366 38.9062 10.0961 40.6229 11.1121C42.3338 12.128 39.253 17.0366 39.253 17.0366C39.253 17.0366 46.6227 11.8598 47.6516 14.0229C48.6804 16.1918 43.1951 19.0684 43.1951 19.0684C43.1951 19.0684 55.0213 21.4371 57.9345 22.453C60.8476 23.469 65.1307 26.8536 59.8188 29.2222L58.2755 37.1729C58.2755 37.1729 72.1594 35.141 73.7027 42.2526C75.246 49.3586 72.3328 53.7591 70.9629 53.7591C69.593 53.7591 68.5641 51.7272 68.5641 51.7272C68.5641 51.7272 69.2924 57.8572 66.674 58.5421C64.9342 58.9987 63.9342 55.2773 63.9342 55.2773C63.9342 55.2773 62.888 62.3262 59.9922 62.2177C58.4489 62.1607 57.8998 57.8286 57.8998 57.8286C57.8998 57.8286 53.6514 63.4049 51.2526 62.2177C48.8538 61.0363 45.0794 55.2773 45.0794 55.2773C45.0794 55.2773 50.5648 68.3077 49.8827 74.061C49.1949 79.8142 46.7961 79.9854 44.7384 77.9535C44.7384 77.9535 45.7672 88.1073 41.9986 96.4004H6.36505e-05C6.36505e-05 96.4004 26.7332 30.0612 29.4788 22.6129C29.4788 22.6129 27.7216 12.5732 30.6811 11.7799C33.5943 10.9979 35.4786 17.0251 35.4786 17.0251V17.0366Z" fill="var(--fill-0, #FFF3DB)"/>
<path id="Vector_4" d="M35.1202 90.2648C35.6057 85.6303 34.311 73.4788 42.0795 76.5153C41.1084 73.1592 38.5189 65.4825 44.8309 67.5601C43.3743 65.0031 37.7097 55.5685 40.6229 53.0115C42.6864 51.1793 45.536 55.1119 47.5822 58.7133C46.1834 56.9782 45.0736 55.2831 45.0736 55.2831C45.0736 55.2831 50.559 68.3135 49.8769 74.0667C49.1891 79.82 46.7903 79.9912 44.7326 77.9593C44.7326 77.9593 45.7615 88.1131 41.9928 96.4062H21.138C21.4964 94.4599 22.2189 92.6221 23.4674 91.0582C26.2188 87.5423 32.051 86.7433 35.126 90.2591L35.1202 90.2648Z" fill="var(--fill-0, #EFDCBD)"/>
<path id="Vector_5" d="M68.5873 7.28808C67.7954 9.95923 58.6165 12.4192 58.6165 12.4192L50.6399 22.9725C50.6399 22.9725 54.8826 10.9809 55.6398 9.79371C56.397 8.60653 69.5699 3.93773 68.5815 7.28237L68.5873 7.28808Z" fill="var(--fill-0, #FEB8AC)"/>
<path id="Vector_6" d="M20.7104 9.13154C21.1902 9.16578 21.5081 9.59956 21.7566 9.96485C21.7566 9.94772 21.7682 9.9306 21.774 9.90777C21.1786 8.64639 20.1902 7.34506 20.2307 5.92958C20.2769 5.32458 20.6237 4.93647 21.2364 5.19331C21.9821 5.49581 22.4213 6.49464 22.7681 7.1396C22.7681 6.44898 22.6814 2.85891 23.2074 2.12263C23.6872 1.47197 24.086 2.03702 24.2594 2.59636C24.4502 3.18424 24.456 3.8235 24.4097 4.45704C26.7564 1.24938 29.9818 -0.828181 32.1898 0.319043C36.733 2.67627 28.2882 13.1953 28.2882 13.1953L29.9933 24.9872L28.1148 27.8181C28.1148 27.8181 22.4791 20.17 21.4965 13.9716C21.4156 13.4579 21.3925 12.9328 21.404 12.402C20.722 11.7913 20.1035 10.9922 20.0052 10.1646C19.9185 9.64523 20.0919 9.08588 20.7046 9.12583L20.7104 9.13154Z" fill="var(--fill-0, #FFF3DB)"/>
<path id="Vector_7" d="M31.2706 2.11708C32.4555 4.63983 27.1898 12.4592 27.1898 12.4592L28.9008 25.0045C28.9008 25.0045 23.427 13.8005 23.2073 12.4136C22.9877 11.0266 29.7851 -1.05633 31.2764 2.11138L31.2706 2.11708Z" fill="var(--fill-0, #FEB8AC)"/>
<g id="Group_3">
<path id="Vector_8" d="M46.3107 31.8307C45.9986 32.3386 45.5535 32.6411 44.9986 32.7325C43.4206 32.995 41.7502 31.4311 40.045 28.058C39.9641 27.8924 40.0277 27.6984 40.1953 27.6185C40.3572 27.5329 40.5595 27.6014 40.6404 27.7669C42.5883 31.6081 44.0333 32.2302 44.8888 32.0875C45.253 32.0304 45.5304 31.8364 45.7385 31.4939C46.3396 30.5122 46.1893 28.5945 45.8483 27.5842C45.8021 27.4415 45.8541 27.2817 45.987 27.2018C46.1142 27.1219 46.2818 27.139 46.3974 27.2418C47.1662 27.9552 47.8425 28.8114 48.4725 29.8616C48.5765 30.0385 48.6864 30.2211 48.7962 30.4095C49.3511 31.3627 49.9753 32.4471 50.8886 32.9436C51.2065 33.1149 51.5071 33.1491 51.7787 33.0407C52.1024 32.9094 52.3741 32.5841 52.5186 32.1332C52.8538 31.1857 52.5186 30.1698 52.1949 29.1824L52.1255 28.9655C52.0793 28.8285 52.1313 28.6744 52.2585 28.5888C52.3799 28.5089 52.5417 28.5146 52.6573 28.6116C52.8481 28.7714 53.0388 28.9312 53.2295 29.0967C54.1197 29.8559 55.0387 30.6435 56.0965 31.0145C56.6109 31.18 56.9924 31.1686 57.2178 30.9802C57.5531 30.7006 57.6571 29.9586 57.5069 28.9598C57.478 28.7828 57.6051 28.6116 57.7901 28.5831C57.9693 28.5488 58.1427 28.6801 58.1716 28.8627C58.3103 29.7474 58.3276 30.9232 57.6571 31.4882C57.241 31.8364 56.6514 31.8877 55.8884 31.648C54.8364 31.277 53.9521 30.5807 53.1139 29.8673C53.3336 30.6663 53.455 31.5111 53.166 32.3444C52.9637 32.9779 52.5533 33.4573 52.0388 33.6571C51.8539 33.7313 51.6631 33.7655 51.4666 33.7655C51.1776 33.7655 50.877 33.6856 50.5822 33.5258C49.5071 32.9322 48.8309 31.7679 48.2297 30.7405C48.1257 30.5522 48.0159 30.3752 47.9176 30.204C47.5534 29.5933 47.172 29.0568 46.7673 28.5774C46.9061 29.6675 46.8541 30.9974 46.3338 31.8421L46.3107 31.8307Z" fill="var(--fill-0, #EFDCBD)"/>
<path id="Vector_9" d="M39.7905 40.0382C39.831 39.8613 40.0044 39.7528 40.1894 39.7871C40.3686 39.827 40.4842 40.004 40.4437 40.1809C40.253 41.0428 40.2934 41.9674 40.5709 43.0062C41.1315 44.9924 41.7327 45.4319 42.1315 45.449C42.9349 45.449 43.1893 43.8166 43.2471 43.3087C43.3569 42.561 43.2702 41.8646 42.987 41.2425C42.9176 41.1112 42.8656 41.0085 42.8309 40.9343C42.7615 40.7745 42.8309 40.5862 42.987 40.5062C43.1488 40.4263 43.3396 40.4891 43.4263 40.6432C43.4898 40.7574 43.5476 40.8658 43.5997 40.9857C43.958 41.6363 44.6401 42.5439 45.2065 42.7208C45.3568 42.7665 45.4782 42.755 45.5938 42.6865C45.7325 42.6066 45.8019 42.4982 45.825 42.3441C45.9291 41.5564 44.7499 40.0154 44.1257 39.399C43.9927 39.2677 43.9927 39.0622 44.1257 38.931C44.2586 38.7997 44.4667 38.7997 44.5996 38.931C44.6227 38.9538 46.6689 41.0428 46.4897 42.424C46.4435 42.7836 46.2527 43.0689 45.9406 43.2516C45.6632 43.4171 45.3395 43.4513 45.01 43.3486C44.6343 43.2288 44.2759 42.9491 43.958 42.6123C43.958 42.8692 43.9465 43.126 43.906 43.3943C43.6979 45.1465 43.0679 46.1111 42.1142 46.1111C40.7269 46.054 40.12 43.8966 39.9235 43.1831C39.6229 42.0359 39.5767 41.0085 39.7905 40.0439V40.0382Z" fill="var(--fill-0, #EFDCBD)"/>
<path id="Vector_10" d="M26.849 69.0668C27.0166 69.1353 27.0976 69.3294 27.0282 69.5006C26.7161 70.2369 26.8895 71.7323 27.4039 72.8224C27.7103 73.4616 28.0918 73.884 28.4732 73.9982C28.9472 74.1237 29.3576 74.0096 29.7333 73.6614C30.5714 72.8681 30.9587 71.0359 30.7333 69.9914C30.6928 69.8145 30.8084 69.6433 30.9818 69.6033C31.161 69.5577 31.3402 69.6718 31.3807 69.843C31.8373 71.6581 32.6407 73.3304 33.0627 73.3475C33.1552 73.3475 33.3806 73.1591 33.6291 72.4571C34.3805 70.2254 34.3805 66.9892 33.6291 64.7519C33.5771 64.6035 33.6407 64.438 33.7794 64.3638C33.9181 64.2839 34.0915 64.3124 34.1956 64.4323C35.0742 65.4254 36.8082 66.8979 37.7388 66.1502C38.0278 65.9219 38.1723 65.6251 38.1781 65.237C38.2128 63.9414 36.7157 62.0579 35.9412 61.3787C35.8025 61.2588 35.7909 61.0477 35.9123 60.9164C36.0337 60.7794 36.2475 60.768 36.3863 60.8879C37.1724 61.5785 38.8891 63.6389 38.8428 65.2541C38.8255 65.8363 38.5943 66.3157 38.155 66.6582C37.0452 67.5543 35.5481 66.5954 34.5771 65.745C35.0395 67.971 34.9297 70.6478 34.2534 72.6626C34.1378 72.9936 33.7852 74.0039 33.0569 74.0039C33.0453 74.0039 33.0338 74.0039 33.0222 74.0039C32.317 73.9753 31.7217 72.8966 31.3113 71.8464C31.1321 72.7083 30.7622 73.5815 30.1784 74.1351C29.7796 74.5118 29.3229 74.7002 28.8201 74.7002C28.6409 74.7002 28.4617 74.6774 28.2767 74.6317C27.6929 74.4548 27.1785 73.924 26.7854 73.1021C26.1785 71.8236 26.0109 70.1627 26.3924 69.2495C26.4618 69.0782 26.6641 69.004 26.8317 69.0725L26.849 69.0668Z" fill="var(--fill-0, #EFDCBD)"/>
<path id="Vector_11" d="M21.7162 50.5571C21.855 50.4372 22.063 50.4429 22.1902 50.5799C22.3116 50.7112 22.3058 50.9224 22.1671 51.0422C21.0168 52.0753 20.3463 53.8789 21.2018 55.1003C21.5371 55.5113 21.959 55.7167 22.381 55.6825C22.8376 55.6425 23.2595 55.3286 23.5428 54.8149C23.6179 54.6837 23.7682 54.6209 23.9185 54.6494C24.0688 54.6894 24.1728 54.8207 24.1728 54.9691C24.1728 56.5786 24.4791 58.0226 24.8433 58.1767C25.0398 58.2452 25.1496 58.2053 25.2132 58.1653C25.6872 57.8799 25.8606 56.6071 25.9357 56.0649L25.9589 55.9165C25.982 55.7339 26.1438 55.6083 26.3346 55.6368C26.5138 55.6597 26.6409 55.8309 26.6178 56.0078L26.5947 56.1562C26.4906 56.9039 26.2999 58.2909 25.5543 58.7361C25.4329 58.8103 25.2595 58.8787 25.034 58.8787C24.9069 58.8787 24.7566 58.8559 24.5947 58.7988C23.8433 58.4792 23.6063 56.961 23.5312 55.8766C23.2133 56.1505 22.8376 56.3103 22.4388 56.3446C21.7798 56.3959 21.1613 56.1049 20.6643 55.4941C19.5487 53.9017 20.3752 51.7614 21.7162 50.5571Z" fill="var(--fill-0, #EFDCBD)"/>
<path id="Vector_12" d="M29.3633 40.9857C29.1494 41.0998 28.924 41.1569 28.6985 41.1569C28.4731 41.1569 28.2419 41.0998 28.0165 40.9857C27.6697 40.8144 27.4211 40.5062 27.294 40.0782C26.9876 39.085 27.3807 37.5725 27.7679 36.9047C27.8604 36.7449 28.0627 36.6879 28.2246 36.7792C28.3864 36.8705 28.4442 37.0703 28.346 37.2301C28.0685 37.7152 27.6755 39.0565 27.9356 39.8898C28.0107 40.1409 28.1379 40.3065 28.3228 40.3978C28.5887 40.5233 28.8199 40.529 29.0511 40.4035C29.791 40.0039 30.317 38.4458 30.3979 37.6867C30.4152 37.5097 30.5713 37.3842 30.7678 37.3956C30.9528 37.4127 31.08 37.5782 31.0626 37.7609C30.9759 38.5314 30.4268 40.4092 29.369 40.9799L29.3633 40.9857Z" fill="var(--fill-0, #EFDCBD)"/>
<path id="Vector_13" d="M28.3286 35.649C28.3286 35.649 28.2882 35.649 28.2708 35.649C27.7853 35.649 27.3576 35.3865 27.0917 34.907C26.427 33.5943 28.2419 30.9231 29.0454 30.1298C29.1783 30.0042 29.3864 30.0042 29.5193 30.1298C29.6465 30.261 29.6465 30.4665 29.5193 30.5978C28.6581 31.4482 27.2651 33.7769 27.6812 34.5988C27.8315 34.8671 28.0454 35.004 28.2997 34.9869C28.687 34.9698 29.1032 34.6445 29.3112 34.1879C29.3864 34.0223 29.5829 33.9481 29.7505 34.0223C29.9182 34.0965 29.9933 34.2906 29.9182 34.4561C29.6118 35.141 28.9702 35.6205 28.3286 35.649Z" fill="var(--fill-0, #EFDCBD)"/>
<path id="Vector_14" d="M37.0913 80.5163C37.2416 80.6247 37.2705 80.8302 37.1665 80.9786C36.3457 82.0916 34.8602 86.1668 36.311 87.217C36.5133 87.354 36.7041 87.3711 36.9237 87.2797C37.3977 87.0686 37.8601 86.3494 38.0451 85.7387C38.0797 85.5846 38.1086 85.4533 38.1318 85.3449C38.1664 85.1737 38.3283 85.0481 38.5075 85.0766C38.6866 85.1052 38.808 85.265 38.7907 85.4419C38.7791 85.5675 38.7444 85.7159 38.704 85.87C38.6693 86.0298 38.6231 86.201 38.5826 86.3951C38.2647 87.7135 37.6 90.4646 38.3109 90.9554C38.6693 91.1837 38.9063 91.1038 39.0508 91.0239C40.1606 90.4189 40.8022 86.9487 40.8022 85.9613C40.8022 85.7787 40.9525 85.6303 41.1374 85.6303C41.3224 85.6303 41.4727 85.7787 41.4727 85.9613C41.4727 86.7261 40.9004 90.7728 39.3745 91.6004C39.2126 91.686 39.0046 91.7602 38.756 91.7602C38.5075 91.7602 38.2416 91.6917 37.941 91.5034C37.1318 90.944 37.2474 89.4315 37.6231 87.6279C37.4959 87.7364 37.3572 87.8277 37.2069 87.8905C36.7734 88.0845 36.3341 88.0446 35.9353 87.7649C34.0105 86.3722 35.7272 81.8519 36.6405 80.6019C36.7503 80.4535 36.9584 80.4192 37.1087 80.5277L37.0913 80.5163Z" fill="var(--fill-0, #FFF3DB)"/>
<path id="Vector_15" d="M14.5661 74.0726L14.6297 73.947C14.7106 73.7815 14.9129 73.7187 15.0805 73.7986C15.2424 73.8785 15.3117 74.0783 15.2308 74.2381L15.1672 74.3636C14.3927 75.8876 12.7858 79.0667 13.7626 80.6134C13.9071 80.8246 14.121 81.0643 14.3233 81.0358C14.7106 80.9787 15.2655 80.0769 15.6123 78.9411C15.6643 78.7642 15.8551 78.6672 16.0285 78.7185C16.2076 78.7699 16.3059 78.9525 16.2539 79.1295C16.0863 79.6888 15.4504 81.5381 14.4274 81.6865C14.3811 81.6922 14.3291 81.6979 14.2829 81.6979C13.8956 81.6979 13.5314 81.4582 13.202 80.9673C12.0228 79.1009 13.7395 75.6992 14.5719 74.0669L14.5661 74.0726Z" fill="var(--fill-0, #EFDCBD)"/>
<path id="Vector_16" d="M18.1268 79.2662C18.3059 79.3118 18.4158 79.4888 18.3695 79.6657C17.6586 82.4738 17.5834 84.6941 18.1961 85.0651C18.4967 85.2477 19.1325 84.9623 19.9475 84.2774C20.0862 84.1633 20.3001 84.1747 20.4215 84.3174C20.5429 84.4544 20.5255 84.6655 20.381 84.7797C19.5834 85.4475 18.936 85.7785 18.41 85.7785C18.2019 85.7785 18.0169 85.7272 17.8435 85.6244C16.5372 84.8254 17.3233 81.0755 17.7222 79.5002C17.7684 79.3232 17.9476 79.2148 18.1268 79.2605V79.2662Z" fill="var(--fill-0, #EFDCBD)"/>
</g>
<path id="Vector_17" d="M55.3506 44.5872C56.1309 47.7378 60.6972 49.3473 65.5468 48.1772C70.3963 47.0072 73.6968 43.497 72.9165 40.3464C72.1362 37.1959 67.5698 35.5863 62.7203 36.7564C57.8708 37.9264 54.5703 41.4366 55.3506 44.5872Z" fill="var(--fill-0, #593A42)"/>
<g id="Group_4">
<path id="Vector_18" d="M68.2634 37.4242C69.8183 37.8009 71.2402 39.0395 71.5754 40.6148C71.7604 41.4823 70.3847 41.6478 70.1997 40.7917C69.9974 39.8614 68.9744 38.9995 68.0611 38.7826C67.1999 38.5771 67.3848 37.2187 68.2576 37.4242H68.2634Z" fill="var(--fill-0, #936170)"/>
<path id="Vector_19" d="M71.7375 41.8417C71.9224 42.3212 71.9051 42.8234 71.6739 43.2858C71.2808 44.0734 70.0034 43.5312 70.4022 42.7378C70.4774 42.5894 70.5121 42.5095 70.4543 42.3554C70.1364 41.5278 71.4253 41.0141 71.7375 41.8417Z" fill="var(--fill-0, #936170)"/>
</g>
<g id="Group_5">
<path id="Vector_20" d="M55.2351 35.3181C55.2351 36.3968 55.8304 37.2643 56.5645 37.2643C57.2986 37.2643 57.894 36.3911 57.894 35.3181C57.894 34.245 57.2986 33.3661 56.5645 33.3661C55.8304 33.3661 55.2351 34.2393 55.2351 35.3181Z" fill="var(--fill-0, #593A42)"/>
<path id="Vector_21" d="M46.7267 35.3181C46.7267 36.3968 47.322 37.2643 48.0561 37.2643C48.7902 37.2643 49.3855 36.3911 49.3855 35.3181C49.3855 34.245 48.7902 33.3661 48.0561 33.3661C47.322 33.3661 46.7267 34.2393 46.7267 35.3181Z" fill="var(--fill-0, #593A42)"/>
</g>
</g>
</svg>
