<svg preserveAspectRatio="none" width="100%" height="100%" overflow="visible" style="display: block;" viewBox="0 0 27.5 24.75" fill="none" xmlns="http://www.w3.org/2000/svg">
<g id="Message">
<path id="Vector" d="M20.5411 0C22.385 0 24.1587 0.72875 25.4636 2.03637C26.7699 3.34125 27.5 5.10125 27.5 6.94375V17.8062C27.5 21.6425 24.3788 24.75 20.5411 24.75H6.9575C3.11988 24.75 0 21.6425 0 17.8062V6.94375C0 3.1075 3.10612 0 6.9575 0H20.5411ZM22.0962 7.15C21.8075 7.13487 21.5325 7.2325 21.3249 7.425L15.125 12.375C14.3275 13.0364 13.1849 13.0364 12.375 12.375L6.1875 7.425C5.75988 7.10875 5.16863 7.15 4.8125 7.52125C4.44125 7.8925 4.4 8.48375 4.71487 8.89625L4.895 9.075L11.1512 13.9562C11.9212 14.5612 12.8549 14.8912 13.8325 14.8912C14.8074 14.8912 15.7575 14.5612 16.5261 13.9562L22.7288 8.9925L22.8388 8.8825C23.1674 8.48375 23.1674 7.90625 22.8236 7.5075C22.6325 7.30263 22.3699 7.1775 22.0962 7.15Z" fill="var(--fill-0, #F4D35E)"/>
</g>
</svg>
