<svg preserveAspectRatio="none" width="100%" height="100%" overflow="visible" style="display: block;" viewBox="0 0 741.404 427.989" fill="none" xmlns="http://www.w3.org/2000/svg">
<path id="Union" d="M428.114 0C417.22 -3.1017e-07 408.453 5.06157 390.919 15.1847L26.3181 225.687C25.966 225.89 25.6174 226.092 25.2724 226.291L20.9376 213.286L2.6843 207.381L0 211.676V246.572L0.0461736 246.542C0.0270173 246.747 0.017439 246.954 0.0174385 247.161C0.0174517 253.451 8.78434 258.513 26.3181 268.636L276.024 412.804C293.558 422.927 302.325 427.988 313.219 427.989C324.113 427.988 332.88 422.927 350.414 412.804L715.015 202.301C732.323 192.308 741.088 187.248 741.311 181.069L741.404 181.075V145.642L726.909 149.937L709.872 156.383L465.309 15.1847C447.775 5.06157 439.008 3.1017e-07 428.114 0Z" fill="var(--fill-0, #E44449)"/>
</svg>
