<svg preserveAspectRatio="none" width="100%" height="100%" overflow="visible" style="display: block;" viewBox="0 0 82.0674 195.005" fill="none" xmlns="http://www.w3.org/2000/svg">
<g id="Group">
<path id="Vector" d="M50.8844 39.8625C54.1265 40.4655 57.0552 21.9184 64.8634 19.7788C72.6716 17.6392 85.9536 14.8432 80.9823 10.3612C76.0164 5.8792 56.2988 3.89964 51.3599 11.0282C46.4264 18.1621 43.2761 38.4539 50.8844 39.8679V39.8625Z" fill="var(--fill-0, #352328)"/>
<path id="Vector_2" d="M51.3599 11.0175C56.2934 3.88897 76.0164 5.87387 80.9823 10.3506C82.1981 11.4444 82.3116 12.4422 81.6956 13.3492C80.2636 13.2959 78.8209 13.3439 77.3403 13.5253C67.3221 14.4217 52.8189 21.3208 46.3292 30.2582C46.2859 23.5512 48.523 15.1154 51.3599 11.0175Z" fill="var(--fill-0, #593A42)"/>
<g id="Group_2">
<path id="Vector_3" d="M34.1549 73.9046C38.2994 77.3835 44.8702 79.7579 44.8702 79.7579C44.1785 99.6442 49.3011 123.703 55.3694 144.683C26.7736 108.389 34.1549 73.9099 34.1549 73.9099V73.9046Z" fill="var(--fill-0, #EFDCBD)"/>
<path id="Vector_4" d="M14.6804 57.5398C17.9928 40.9724 23.7962 24.6077 44.8053 28.4921C65.8144 32.3765 63.9826 53.2446 63.3612 53.2446C62.7398 53.2446 84.9053 76.9726 73.1687 83.9251C61.4321 90.8776 44.8702 79.7525 44.8702 79.7525C44.8702 79.7525 38.2994 77.3781 34.1549 73.8992C34.1549 73.8992 26.7736 108.379 55.3693 144.673C63.4369 172.546 73.1741 194.989 73.1741 194.989H0.182577C-1.68166 146.716 11.2653 74.6196 14.6858 57.5345L14.6804 57.5398Z" fill="var(--fill-0, #FFF3DB)"/>
</g>
<path id="Vector_5" d="M35.1275 65.0953C35.1275 65.0953 25.5956 62.374 23.6882 67.7044C21.7807 73.0402 37.316 72.4212 37.316 72.4212C37.316 72.4212 35.4139 69.8708 35.1275 65.0953Z" fill="var(--fill-0, #FEB8AC)"/>
<path id="Vector_6" d="M79.7557 73.6431C79.7557 77.09 76.2001 79.8806 71.8124 79.8806C67.4247 79.8806 63.8692 77.09 63.8692 73.6431C63.8692 70.1962 67.4247 67.4056 71.8124 67.4056C76.2001 67.4056 79.7557 70.2016 79.7557 73.6431Z" fill="var(--fill-0, #593A42)"/>
<path id="Vector_7" d="M47.1289 56.8195C49.4092 56.8195 51.1924 54.3544 51.1924 51.2117C51.1924 50.8115 50.8628 50.4807 50.4521 50.4807C50.0414 50.4807 49.7118 50.8061 49.7118 51.2117C49.7118 53.4633 48.5284 55.3629 47.1235 55.3629C45.7185 55.3629 44.5352 53.4633 44.5352 51.2117C44.5352 50.8115 44.2055 50.4807 43.7949 50.4807C43.3842 50.4807 43.0546 50.8061 43.0546 51.2117C43.0546 54.3544 44.8378 56.8195 47.1181 56.8195H47.1289Z" fill="var(--fill-0, #593A42)"/>
<path id="Vector_8" d="M60.5514 56.8195C62.8317 56.8195 64.6149 54.3544 64.6149 51.2117C64.6149 50.8115 64.2852 50.4807 63.8746 50.4807C63.4639 50.4807 63.1343 50.8061 63.1343 51.2117C63.1343 53.4633 61.9509 55.3629 60.546 55.3629C59.141 55.3629 57.9576 53.4633 57.9576 51.2117C57.9576 50.8115 57.628 50.4807 57.2174 50.4807C56.8067 50.4807 56.4771 50.8061 56.4771 51.2117C56.4771 54.3544 58.2602 56.8195 60.5406 56.8195H60.5514Z" fill="var(--fill-0, #593A42)"/>
<path id="Vector_9" d="M28.2002 68.4034C30.7344 68.1953 33.3714 68.3874 35.857 68.9583C36.365 69.0757 36.1488 69.8441 35.6409 69.7267C33.2255 69.1664 30.675 68.9957 28.2002 69.1985C27.6814 69.2411 27.6868 68.4461 28.2002 68.4034Z" fill="var(--fill-0, #FC8686)"/>
<g id="Group_3">
<path id="Vector_10" d="M69.089 68.4835C67.4085 68.9103 66.09 70.1375 65.4794 71.7276C65.058 72.8428 66.8628 73.323 67.2842 72.2185C67.6571 71.2314 68.5703 70.5217 69.5862 70.2656C70.7533 69.9668 70.2562 68.1847 69.089 68.4835Z" fill="var(--fill-0, #936170)"/>
<path id="Vector_11" d="M65.9982 72.8748C65.5389 72.7521 64.9391 73.0242 64.8472 73.5204C64.804 73.7658 64.7391 74.0059 64.6959 74.2461C64.604 74.7369 64.8256 75.2385 65.3498 75.3826C65.8037 75.5053 66.4088 75.2332 66.5007 74.7369C66.5439 74.4915 66.6088 74.2514 66.652 74.0113C66.7439 73.5204 66.5223 73.0188 66.0036 72.8748H65.9982Z" fill="var(--fill-0, #936170)"/>
</g>
<path id="Vector_12" d="M30.421 40.3108C33.5605 39.3183 28.9242 21.1021 34.7655 15.5583C40.6014 10.0091 49.2147 1.83476 42.6871 0.223369C36.1596 -1.38803 17.8577 6.13003 16.9499 14.7206C16.0421 23.3111 23.0505 42.6425 30.421 40.3161V40.3108Z" fill="var(--fill-0, #352328)"/>
<g id="Group_4">
<path id="Vector_13" d="M36.1056 143.04C34.7925 133.628 41.7739 126.792 50.0414 124.055C51.6193 131.088 53.4457 138.04 55.3639 144.683C57.1255 150.777 58.9735 156.614 60.7729 162.014C50.2251 162.649 37.343 152.847 36.1002 143.045L36.1056 143.04Z" fill="var(--fill-0, #593A42)"/>
<path id="Vector_14" d="M17.8793 75.1051C16.1988 82.303 13.6483 88.6419 8.75806 91.5179C11.2005 75.8201 13.5024 63.4252 14.6804 57.5452C15.2748 54.5839 15.9448 51.6278 16.7716 48.7946C22.2238 56.7822 20.7756 63.676 17.8793 75.1051Z" fill="var(--fill-0, #593A42)"/>
<path id="Vector_15" d="M31.1343 194.999H0.182589C-0.217276 184.579 0.0691108 173.043 0.803998 161.192C4.65135 161.779 8.72024 163.049 12.8756 164.639C26.6385 170.076 34.2846 181.548 31.1397 195.005L31.1343 194.999Z" fill="var(--fill-0, #593A42)"/>
</g>
<path id="Vector_16" d="M36.5811 60.8267C34.8087 64.7805 35.603 68.6489 37.7104 72.2932C39.5422 75.4573 42.6925 77.106 45.9239 78.5733C46.394 78.7868 45.9833 79.4751 45.5186 79.2617C41.7793 77.5702 38.7371 75.676 36.6567 72.0797C34.5385 68.4141 34.1495 64.3056 35.884 60.4318C36.0948 59.9623 36.7918 60.3678 36.5811 60.832V60.8267Z" fill="var(--fill-0, #593A42)"/>
<path id="Vector_17" d="M50.0414 124.055V124.066C50.4197 125.747 50.8087 127.417 51.214 129.081C51.2896 129.391 51.3653 129.7 51.4409 130.01C51.7597 131.306 52.084 132.598 52.4136 133.878C52.5325 134.348 52.6567 134.812 52.7756 135.276C53.0782 136.439 53.3916 137.597 53.705 138.75C53.8239 139.198 53.9482 139.646 54.0725 140.089C54.4994 141.631 54.9262 143.168 55.3639 144.678C50.6466 138.691 46.9127 132.752 43.957 127.006C45.8158 125.763 47.88 124.765 50.036 124.05L50.0414 124.055Z" fill="var(--fill-0, #352328)"/>
<path id="Vector_18" d="M16.9499 14.7152C17.8577 6.12466 36.1596 -1.38807 42.6871 0.217991C44.5622 0.6822 45.1836 1.68532 44.9837 3.01392C39.3045 6.25805 33.9766 10.1691 29.9185 15.2168C23.2667 23.6312 24.9256 32.0457 28.7243 40.4602C22.013 39.6971 16.1123 22.6388 16.9499 14.7152Z" fill="var(--fill-0, #593A42)"/>
</g>
</svg>
