<svg preserveAspectRatio="none" width="100%" height="100%" overflow="visible" style="display: block;" viewBox="0 0 60.3344 119.489" fill="none" xmlns="http://www.w3.org/2000/svg">
<g id="Group">
<g id="Group_2">
<path id="Vector" d="M8.69068 21.3056C7.35059 22.7356 6.08074 24.1869 4.9514 25.7183C6.48601 9.94582 12.1544 0.00533859 14.1915 2.84847e-06C16.7258 2.84847e-06 19.2168 9.34289 20.4975 15.0361C15.6883 15.6764 12.2841 17.5439 8.69607 21.3056H8.69068Z" fill="var(--fill-0, #FA9700)"/>
<path id="Vector_2" d="M8.69068 21.3056C12.2787 17.5439 15.6829 15.6817 20.4921 15.0361C21.0541 17.5279 21.3837 19.3261 21.3837 19.3261L4.61097 30.8673C4.67041 29.0905 4.78928 27.3724 4.94599 25.7183C6.08074 24.1869 7.34518 22.7356 8.68527 21.3056H8.69068Z" fill="var(--fill-0, #FF740C)"/>
<path id="Vector_3" d="M55.5073 27.0896C55.6046 28.3168 55.6802 29.576 55.7234 30.8673L38.9507 19.3261C38.9507 19.3261 39.2479 17.6987 39.7613 15.399C42.9494 16.3754 46.0835 18.435 48.5907 20.0891C51.2709 21.9672 53.6376 24.3897 55.5019 27.0949L55.5073 27.0896Z" fill="var(--fill-0, #FF740C)"/>
<path id="Vector_4" d="M46.1483 2.84847e-06C48.2395 2.84847e-06 54.178 10.5328 55.5073 27.0949C53.6431 24.3897 51.2763 21.9672 48.5961 20.0891C46.0889 18.4403 42.9548 16.3754 39.7667 15.399C41.0203 9.7484 43.56 2.84847e-06 46.1537 2.84847e-06H46.1483Z" fill="var(--fill-0, #FA9700)"/>
</g>
<path id="Vector_5" d="M14.1861 4.26326C14.9858 4.1192 18.7467 18.4723 17.8335 19.6088C16.9203 20.7454 8.5772 27.271 8.14491 26.2839C7.71263 25.2914 12.6083 4.54606 14.1915 4.26326H14.1861Z" fill="var(--fill-0, #FEB8AC)"/>
<path id="Vector_6" d="M46.1483 4.26326C45.3486 4.1192 41.5877 18.4723 42.5009 19.6088C43.4141 20.7454 51.7572 27.271 52.1895 26.2839C52.6218 25.2914 47.7261 4.54606 46.1429 4.26326H46.1483Z" fill="var(--fill-0, #FEB8AC)"/>
<path id="Vector_7" d="M7.58293 119.483C7.58293 119.483 -3.42956 64.8453 1.08783 41.4267C5.60523 18.0081 23.3938 15.5003 30.1699 15.5003C36.946 15.5003 54.7346 18.0081 59.2466 41.4267C63.7639 64.8453 52.7515 119.483 52.7515 119.483H7.57754H7.58293Z" fill="var(--fill-0, #FFF3DB)"/>
<path id="Vector_8" d="M31.1966 15.5217C38.5887 15.7831 54.9399 19.1073 59.2466 41.4267C63.764 64.8453 52.7515 119.483 52.7515 119.483H51.4114C62.0726 83.4243 60.257 38.1239 31.1966 15.5217Z" fill="var(--fill-0, #FFF9EE)"/>
<g id="Group_3">
<path id="Vector_9" d="M32.5531 38.0758C29.5865 31.1234 31.5912 18.8992 29.5811 18.8992C27.571 18.8992 29.5811 31.1234 26.6091 38.0758C24.318 43.4543 9.62026 37.3769 3.07112 34.3462C9.44734 17.4959 24.1451 15.5003 30.1647 15.5003C36.1842 15.5003 50.6118 17.4479 57.0853 33.8766C51.1846 36.6779 34.9685 43.7424 32.5531 38.0758Z" fill="var(--fill-0, #FA9700)"/>
<path id="Vector_10" d="M0.0665553 59.9737C1.86054 66.3126 4.69203 72.4167 8.14491 78.2967C15.0507 90.094 23.2533 101.032 26.7116 114.393C27.0845 115.775 27.5924 117.557 28.0139 119.483H7.58294C7.58294 119.483 0.796039 85.788 0.0665553 59.9737Z" fill="var(--fill-0, #FA9700)"/>
<path id="Vector_11" d="M52.1895 78.2967C55.6424 72.4167 58.4738 66.3073 60.2678 59.9737C59.5384 85.7827 52.7515 119.483 52.7515 119.483H32.3205C32.7474 117.557 33.2499 115.775 33.6228 114.393C37.0757 101.038 45.2783 90.094 52.1895 78.2967Z" fill="var(--fill-0, #FA9700)"/>
<path id="Vector_12" d="M31.1968 15.5165C37.6594 15.7459 50.963 18.3231 57.0853 33.8768C55.1346 34.8052 52.0546 36.1925 48.7206 37.4357C44.5814 28.9466 38.8266 21.4498 31.1914 15.5165H31.1968Z" fill="var(--fill-0, #FF9E10)"/>
<path id="Vector_13" d="M52.7515 119.483H51.4114C56.1179 103.556 58.3928 85.8307 56.9609 69.0552C58.2739 66.0832 59.3979 63.0578 60.2678 59.9791C59.5384 85.7881 52.7515 119.489 52.7515 119.489V119.483Z" fill="var(--fill-0, #FF9E10)"/>
</g>
<path id="Vector_14" d="M35.5411 33.4231C35.8707 33.4231 36.1355 33.1616 36.1355 32.8362C36.1355 31.022 37.0919 29.4906 38.2212 29.4906C39.3506 29.4906 40.307 31.022 40.307 32.8362C40.307 33.1616 40.5718 33.4231 40.9014 33.4231C41.231 33.4231 41.4958 33.1616 41.4958 32.8362C41.4958 30.3017 40.0585 28.3168 38.2212 28.3168C36.384 28.3168 34.9467 30.3017 34.9467 32.8362C34.9467 33.1616 35.2114 33.4231 35.5411 33.4231Z" fill="var(--fill-0, #593A42)"/>
<path id="Vector_15" d="M19.5411 33.4231C19.8707 33.4231 20.1355 33.1616 20.1355 32.8362C20.1355 31.022 21.0919 29.4906 22.2212 29.4906C23.3506 29.4906 24.307 31.022 24.307 32.8362C24.307 33.1616 24.5718 33.4231 24.9014 33.4231C25.231 33.4231 25.4958 33.1616 25.4958 32.8362C25.4958 30.3017 24.0584 28.3168 22.2212 28.3168C20.384 28.3168 18.9467 30.3017 18.9467 32.8362C18.9467 33.1616 19.2114 33.4231 19.5411 33.4231Z" fill="var(--fill-0, #593A42)"/>
<path id="Vector_16" d="M40.896 45.2151C38.2645 49.8091 33.8984 52.0288 28.592 51.7727C23.4154 51.5273 18.1415 48.0377 17.4175 42.7019C17.3472 42.163 18.174 41.9336 18.2496 42.4778C18.9791 47.8456 24.1665 50.7109 29.2189 50.951C33.9578 51.1751 37.8592 48.7954 40.1557 44.7829C40.4313 44.3027 41.177 44.7349 40.9014 45.2151H40.896Z" fill="var(--fill-0, #593A42)"/>
<path id="Vector_17" d="M29.2945 51.2818C29.2837 49.0515 29.5431 46.8105 29.1648 44.5908C29.073 44.0519 29.9051 43.8224 29.997 44.3667C30.3914 46.6664 30.1429 48.9661 30.1591 51.2818C30.1591 51.8314 29.2999 51.8314 29.2945 51.2818Z" fill="var(--fill-0, #593A42)"/>
<g id="Group_4">
<path id="Vector_18" d="M22.3077 40.8451C22.3077 44.0252 25.5931 46.6077 29.6404 46.6077C33.6876 46.6077 36.973 44.0305 36.973 40.8451C36.973 37.6597 33.6876 35.0825 29.6404 35.0825C25.5931 35.0825 22.3077 37.6597 22.3077 40.8451Z" fill="var(--fill-0, #593A42)"/>
<g id="Group_5">
<path id="Vector_19" d="M32.1584 36.0749C33.7092 36.4698 34.9305 37.601 35.4925 39.0736C35.8869 40.1034 34.2172 40.5463 33.8281 39.5272C33.4823 38.6201 32.6394 37.9585 31.7045 37.7237C30.6238 37.4516 31.0831 35.8028 32.1638 36.0803L32.1584 36.0749Z" fill="var(--fill-0, #936170)"/>
<path id="Vector_20" d="M35.0169 40.1301C35.4384 40.0181 35.9949 40.2688 36.076 40.7277C36.1192 40.9518 36.1787 41.1759 36.2165 41.4C36.2975 41.8589 36.0976 42.3178 35.6113 42.4512C35.1898 42.5685 34.6333 42.3124 34.5522 41.8536C34.5144 41.6295 34.4549 41.4107 34.4117 41.1813C34.3253 40.7277 34.5306 40.2635 35.0169 40.1355V40.1301Z" fill="var(--fill-0, #936170)"/>
</g>
</g>
</g>
</svg>
