<svg preserveAspectRatio="none" width="100%" height="100%" overflow="visible" style="display: block;" viewBox="0 0 81.4429 170.39" fill="none" xmlns="http://www.w3.org/2000/svg">
<g id="Group">
<g id="Group_2">
<path id="Vector" d="M1.49157 31.0631C0.56215 18.1133 3.06941 0.275906 5.24706 0.0037829C7.30582 -0.246997 15.4598 12.0359 18.9776 17.505C14.8924 18.4068 11.3747 21.096 8.25685 23.7265C5.70096 25.9355 3.40443 28.3739 1.49157 31.0578V31.0631Z" fill="var(--fill-0, #FA9700)"/>
<path id="Vector_2" d="M8.25685 23.7318C11.3747 21.1013 14.8924 18.4068 18.9776 17.5104C19.9826 19.0737 20.6148 20.0822 20.6148 20.0822L2.60471 38.5278C2.04814 36.4202 1.6915 33.8537 1.49157 31.0685C3.40984 28.3846 5.70096 25.9462 8.25685 23.7372V23.7318Z" fill="var(--fill-0, #F27006)"/>
<path id="Vector_3" d="M49.1025 31.0631C48.9026 33.8484 48.5459 36.4149 47.9894 38.5225L29.9792 20.0768C29.9792 20.0768 30.6115 19.0684 31.6165 17.505C35.7016 18.4068 39.214 21.096 42.3372 23.7265C44.8931 25.9355 47.1896 28.3739 49.1025 31.0578V31.0631Z" fill="var(--fill-0, #F27006)"/>
<path id="Vector_4" d="M45.347 0.00382266C47.5247 0.275945 50.0319 18.108 49.1025 31.0632C47.1896 28.3793 44.8931 25.9409 42.3372 23.7319C39.214 21.1013 35.6962 18.4068 31.6165 17.5104C35.1397 12.0413 43.2883 -0.246958 45.347 0.00915751V0.00382266Z" fill="var(--fill-0, #FA9700)"/>
</g>
<g id="Group_3">
<path id="Vector_5" d="M33.6807 99.8248C24.7594 104.067 14.6979 101.687 5.62531 98.3308L7.23017 71.6521L42.4723 69.203C44.2987 72.5485 46.0765 75.9847 47.8002 79.4797C45.8712 87.8995 41.7861 95.8977 33.6753 99.8248H33.6807Z" fill="var(--fill-0, #F27006)"/>
<path id="Vector_6" d="M33.6807 99.8248C41.7861 95.8977 45.8712 87.8995 47.8056 79.4797C68.2312 120.853 81.4429 170.39 81.4429 170.39H1.29164L5.62531 98.3362C14.6979 101.692 24.754 104.072 33.6807 99.8302V99.8248Z" fill="var(--fill-0, #FA9700)"/>
</g>
<path id="Vector_7" d="M4.72831 0.387957C9.51048 4.98203 9.97519 13.023 9.04577 19.5913C8.17039 25.2472 5.40916 29.7185 1.70771 33.5016C0.340604 21.4481 2.55067 3.24258 4.72291 0.387957H4.72831Z" fill="var(--fill-0, #FEB8AC)"/>
<path id="Vector_8" d="M45.8658 0.387957C41.0836 4.98203 40.6135 13.023 41.5483 19.5913C42.4237 25.2472 45.1849 29.7185 48.8864 33.5016C50.2535 21.4481 48.0434 3.24258 45.8712 0.387957H45.8658Z" fill="var(--fill-0, #FEB8AC)"/>
<path id="Vector_9" d="M25.2997 99.398C45.2498 99.398 48.9836 65.1265 50.475 48.6444C51.961 32.1623 39.8948 18.124 25.2997 18.124C10.7047 18.124 -1.36152 32.1623 0.124462 48.6444C1.61045 65.1265 5.34973 99.398 25.2997 99.398Z" fill="var(--fill-0, #FFF3DB)"/>
<g id="Group_4">
<path id="Vector_10" d="M28.5041 18.3587C41.6077 20.2316 51.8475 33.3842 50.4696 48.6391C49.7293 56.8668 48.4217 69.5338 44.8175 80.152C41.2727 66.0336 29.7037 58.9957 28.65 50.9228C27.6179 43.0205 28.1961 25.7754 28.5041 18.3534V18.3587Z" fill="var(--fill-0, #FA9700)"/>
<path id="Vector_11" d="M22.09 18.3588C22.3926 25.7808 22.9762 43.0259 21.9441 50.9281C20.8904 59.0011 9.32135 66.039 5.7766 80.1573C2.17242 69.5392 0.870154 56.8722 0.12446 48.6444C-1.25345 33.3842 8.98633 20.237 22.09 18.3641V18.3588Z" fill="var(--fill-0, #FA9700)"/>
</g>
<path id="Vector_12" d="M14.1576 56.2318C11.472 56.2318 9.37539 53.3345 9.37539 49.6315C9.37539 49.1566 9.76445 48.7725 10.2454 48.7725C10.7263 48.7725 11.1153 49.1566 11.1153 49.6315C11.1153 52.278 12.5095 54.5137 14.163 54.5137C15.8165 54.5137 17.2052 52.278 17.2052 49.6315C17.2052 49.1566 17.5942 48.7725 18.0752 48.7725C18.5561 48.7725 18.9451 49.1566 18.9451 49.6315C18.9451 53.3345 16.8431 56.2318 14.163 56.2318H14.1576Z" fill="var(--fill-0, #593A42)"/>
<path id="Vector_13" d="M38.5601 56.2318C35.8799 56.2318 33.778 53.3345 33.778 49.6315C33.778 49.1566 34.167 48.7725 34.6479 48.7725C35.1289 48.7725 35.5179 49.1566 35.5179 49.6315C35.5179 52.278 36.912 54.5137 38.5655 54.5137C40.219 54.5137 41.6077 52.278 41.6077 49.6315C41.6077 49.1566 41.9968 48.7725 42.4777 48.7725C42.9586 48.7725 43.3477 49.1566 43.3477 49.6315C43.3477 53.3345 41.2457 56.2318 38.5655 56.2318H38.5601Z" fill="var(--fill-0, #593A42)"/>
<g id="Group_5">
<path id="Vector_14" d="M34.6425 87.4939C34.6425 91.5491 30.4548 94.8359 25.2997 94.8359C20.1447 94.8359 15.9515 91.5491 15.9515 87.4939C15.9515 83.4388 20.1339 80.152 25.2997 80.152C30.4656 80.152 34.6425 83.4388 34.6425 87.4939Z" fill="var(--fill-0, #593A42)"/>
<g id="Group_6">
<path id="Vector_15" d="M22.09 81.4219C20.1123 81.9234 18.5615 83.3694 17.8482 85.2423C17.3457 86.5549 19.4747 87.1204 19.9718 85.8185C20.4095 84.6607 21.4848 83.8229 22.679 83.5188C24.0515 83.1666 23.4679 81.075 22.0954 81.4219H22.09Z" fill="var(--fill-0, #936170)"/>
<path id="Vector_16" d="M18.4534 86.5869C17.9131 86.4428 17.2106 86.7629 17.0971 87.3445C17.0431 87.6327 16.9728 87.9101 16.9188 88.1983C16.8107 88.7799 17.0701 89.3668 17.6861 89.5375C18.2211 89.6816 18.9343 89.3614 19.037 88.7798C19.091 88.4917 19.1613 88.2089 19.2153 87.9261C19.3234 87.3445 19.064 86.7576 18.448 86.5869H18.4534Z" fill="var(--fill-0, #936170)"/>
</g>
</g>
<path id="Vector_17" d="M13.1687 139.048C15.114 129.027 24.8242 88.3156 40.3703 109.632C47.2761 119.012 50.5182 131.162 53.1066 142.031C55.3707 151.32 56.9269 160.882 58.24 170.39H9.26192C10.1427 159.884 11.2342 149.405 13.1687 139.048Z" fill="var(--fill-0, #FFF3DB)"/>
</g>
</svg>
