<svg preserveAspectRatio="none" width="100%" height="100%" overflow="visible" style="display: block;" viewBox="0 0 76.5472 147.363" fill="none" xmlns="http://www.w3.org/2000/svg">
<g id="Group">
<g id="Group_2">
<path id="Vector" d="M36.0041 18.1526C36.3121 18.3821 37.998 24.1553 39.0084 27.7036L30.6113 30.4409V25.3932C30.6113 25.3932 35.561 17.8218 36.0041 18.1526Z" fill="var(--fill-0, #FEB8AC)"/>
<path id="Vector_2" d="M19.5609 22.9601C20.4525 20.9859 32.7835 11.2429 36.7876 11.8992C40.7916 12.5555 43.0665 26.3857 43.0665 26.3857L39.0138 27.709C38.0034 24.1554 36.3175 18.3874 36.0094 18.158C35.5664 17.8272 30.6167 25.3986 30.6167 25.3986C30.6167 25.3986 23.565 33.7383 22.5653 34.0692C21.5657 34.4 18.6748 24.9397 19.5664 22.9655L19.5609 22.9601Z" fill="var(--fill-0, #352328)"/>
</g>
<g id="Group_3">
<path id="Vector_3" d="M60.1202 7.50784C59.7852 6.85154 52.8849 5.42156 52.8849 5.42156C52.8849 5.42156 49.5508 4.87198 49.3293 4.3224C49.1078 3.77282 53.5495 -0.0475729 56.4782 0.00044882C62.9085 3.03115 72.8997 18.6969 65.9021 49.6442L63.3732 46.4267C67.7555 19.9668 60.1256 7.50784 60.1256 7.50784H60.1202Z" fill="var(--fill-0, #352328)"/>
<path id="Vector_4" d="M52.8902 5.42156C52.8902 5.42156 59.7906 6.84621 60.1256 7.50784C60.1256 7.50784 67.7555 19.9668 63.3732 46.4267L48.2324 27.1487L52.8902 5.42156Z" fill="var(--fill-0, #FEB8AC)"/>
</g>
<path id="Vector_5" d="M0.913204 49.5535C2.49645 42.3662 22.1169 38.93 22.1169 38.93C34.4587 16.744 54.7113 22.3679 64.2053 38.93C73.6994 55.4922 76.5471 147.363 76.5471 147.363H18.4478L30.2276 67.2041C2.77744 66.7666 -0.670045 56.7407 0.913204 49.5535Z" fill="var(--fill-0, #593A42)"/>
<path id="Vector_6" d="M50.9234 147.363H18.4478L30.2276 67.2041C30.2276 67.2041 34.3776 67.7003 39.9379 67.3002C39.9379 67.3002 47.9838 126.863 50.9234 147.363Z" fill="var(--fill-0, #352328)"/>
<path id="Vector_7" d="M36.7876 39.5223C36.7876 44.5379 40.073 48.6037 44.1202 48.6037C48.1675 48.6037 51.4529 44.5379 51.4529 39.5223C51.4529 34.5067 48.1675 30.4409 44.1202 30.4409C40.073 30.4409 36.7876 34.5067 36.7876 39.5223Z" fill="var(--fill-0, #352328)"/>
<path id="Vector_8" d="M41.1213 39.5223C41.1213 41.0963 41.9912 42.3769 43.0665 42.3769C44.1418 42.3769 45.0118 41.1017 45.0118 39.5223C45.0118 37.9429 44.1418 36.6677 43.0665 36.6677C41.9912 36.6677 41.1213 37.9429 41.1213 39.5223Z" fill="var(--fill-0, #191113)"/>
<path id="Vector_9" d="M28.666 39.0047C28.666 40.5788 29.536 41.854 30.6113 41.854C31.6866 41.854 32.5566 40.5788 32.5566 39.0047C32.5566 37.4307 31.6866 36.1501 30.6113 36.1501C29.536 36.1501 28.666 37.4253 28.666 39.0047Z" fill="var(--fill-0, #191113)"/>
<g id="Group_4">
<path id="Vector_10" d="M0 48.6037C0 51.7838 3.28538 54.3663 7.33266 54.3663C11.3799 54.3663 14.6653 51.7838 14.6653 48.6037C14.6653 45.4236 11.3799 42.8411 7.33266 42.8411C3.28538 42.8411 0 45.4183 0 48.6037Z" fill="var(--fill-0, #191113)"/>
<g id="Group_5">
<path id="Vector_11" d="M9.51032 43.8389C11.0612 44.2337 12.2824 45.3649 12.8443 46.8376C13.2388 47.8674 11.5691 48.3103 11.18 47.2911C10.8342 46.3841 9.99123 45.7224 9.05641 45.4876C7.9811 45.2155 8.43502 43.5668 9.51573 43.8442L9.51032 43.8389Z" fill="var(--fill-0, #593A42)"/>
<path id="Vector_12" d="M12.3634 47.8941C12.7849 47.782 13.3415 48.0328 13.4225 48.4917C13.4657 48.7158 13.5198 48.9399 13.563 49.164C13.6441 49.6228 13.4441 50.0817 12.9578 50.2098C12.5363 50.3218 11.9798 50.071 11.8987 49.6122C11.8609 49.3881 11.8014 49.164 11.7582 48.9399C11.6771 48.481 11.8771 48.0221 12.3634 47.8887V47.8941Z" fill="var(--fill-0, #593A42)"/>
</g>
</g>
<g id="Group_6">
<path id="Vector_13" d="M32.3242 57.2796C32.3242 57.2796 41.894 61.8257 39.5596 67.4229C37.2253 73.0201 25.2834 61.5802 25.2834 61.5802C25.2834 61.5802 28.639 60.8866 32.3242 57.285V57.2796Z" fill="var(--fill-0, #FEB8AC)"/>
<path id="Vector_14" d="M34.8639 65.422C33.0591 63.5224 30.8761 61.8257 28.5363 60.6038C28.0446 60.3477 28.4823 59.6113 28.974 59.8675C31.3624 61.116 33.6265 62.8768 35.4745 64.819C35.8528 65.2192 35.2476 65.8222 34.8639 65.422Z" fill="var(--fill-0, #FC8686)"/>
<path id="Vector_15" d="M35.0909 53.0484C33.9183 56.7247 31.4164 59.3179 27.9473 61.004C23.2192 63.3037 18.6478 62.7328 13.7791 61.2494C13.2496 61.0894 13.4766 60.2623 14.0061 60.4277C18.3398 61.751 22.2195 62.3166 26.5586 60.6785C30.2493 59.2859 33.0645 56.5593 34.2533 52.8243C34.4208 52.3014 35.253 52.5255 35.0855 53.0484H35.0909Z" fill="var(--fill-0, #352328)"/>
</g>
</g>
</svg>
