<svg preserveAspectRatio="none" width="100%" height="100%" overflow="visible" style="display: block;" viewBox="0 0 86.2299 104.146" fill="none" xmlns="http://www.w3.org/2000/svg">
<g id="Group">
<path id="Vector" d="M85.9072 104.146C85.9072 104.146 89.5222 45.906 72.5549 18.1548C55.5823 -9.59105 35.5512 0.573531 27.7593 12.1094C27.7593 12.1094 16.3523 19.5261 5.50192 19.254C5.50192 19.254 10.511 39.0336 32.2118 30.2456C32.2118 30.2456 50.8488 31.6169 54.4691 53.5948C58.0841 75.5727 31.3797 104.146 31.3797 104.146H85.9072Z" fill="var(--fill-0, #FF740C)"/>
<path id="Vector_2" d="M27.1973 12.4616C37.5938 19.3447 32.2118 30.2456 32.2118 30.2456C10.511 39.0389 5.50192 19.254 5.50192 19.254C14.9366 19.4941 24.7873 13.9182 27.1973 12.4562V12.4616Z" fill="var(--fill-0, #FFF3DB)"/>
<path id="Vector_3" d="M66.3679 60.2751C75.8133 79.2864 76.9697 94.7227 76.3483 104.146H31.3743C31.3743 104.146 58.0842 75.5727 54.4638 53.5948C50.8488 31.6169 32.2064 30.2456 32.2064 30.2456C32.2064 30.2456 50.4219 28.186 66.3624 60.2751H66.3679Z" fill="var(--fill-0, #ED4714)"/>
<path id="Vector_4" d="M2.0004 20.2731C4.21047 22.6261 7.34455 23.3038 9.00345 21.7831C10.6569 20.2678 10.203 17.1303 7.99297 14.7773C5.78291 12.4242 2.64883 11.7519 0.995337 13.2673C-0.658159 14.7826 -0.204252 17.92 2.00581 20.2731H2.0004Z" fill="var(--fill-0, #593A42)"/>
<path id="Vector_5" d="M47.2122 4.38858C47.6769 3.0173 54.9231 -0.952496 57.0251 0.210696C59.127 1.37389 62.688 21.479 59.9376 25.4968C57.1818 29.5093 50.0977 10.8608 49.0494 9.56959C48.0011 8.27301 48.3955 13.8435 47.2122 13.1926C46.0288 12.5469 46.1639 7.49398 47.2122 4.38858Z" fill="var(--fill-0, #593A42)"/>
<path id="Vector_6" d="M33.6059 13.5927C33.6059 15.1028 34.3841 16.33 35.3459 16.33C36.3077 16.33 37.0858 15.1028 37.0858 13.5927C37.0858 12.0827 36.3077 10.8555 35.3459 10.8555C34.3841 10.8555 33.6059 12.0774 33.6059 13.5927Z" fill="var(--fill-0, #593A42)"/>
<path id="Vector_7" d="M29.0994 20.6679C30.5475 23.9067 30.3584 28.5381 26.0571 29.2211C25.3439 29.3332 25.0359 28.2554 25.7545 28.1433C29.2669 27.5831 29.2939 23.864 28.1213 21.2335C27.8295 20.5826 28.8076 20.0116 29.0994 20.6679Z" fill="var(--fill-0, #593A42)"/>
<g id="Group_2">
<path id="Vector_8" d="M4.8643 13.2352C5.36684 13.5127 5.82074 13.8168 6.22601 14.2277C7.25269 15.2628 5.57217 16.7675 4.5509 15.7377C4.28612 15.4709 3.9565 15.3002 3.63229 15.1188C2.35704 14.4144 3.59446 12.5363 4.8643 13.2406V13.2352Z" fill="var(--fill-0, #936170)"/>
<path id="Vector_9" d="M7.89031 15.6043C8.24155 15.8818 8.49011 16.1539 8.73867 16.5221C9.0791 17.0343 8.76569 17.7706 8.26315 18.0321C7.67416 18.3362 7.07437 18.0694 6.73395 17.5625C6.70693 17.5359 6.68531 17.5092 6.6583 17.4825C6.17738 17.1037 5.96123 16.4847 6.32327 15.9351C6.63668 15.4656 7.40939 15.2255 7.89031 15.6043Z" fill="var(--fill-0, #936170)"/>
</g>
</g>
</svg>
