<svg preserveAspectRatio="none" width="100%" height="100%" overflow="visible" style="display: block;" viewBox="0 0 69.3116 90.1255" fill="none" xmlns="http://www.w3.org/2000/svg">
<g id="Group">
<g id="Group_2">
<path id="Vector" d="M45.871 22.9752C45.871 22.9752 46.3465 17.7621 48.0108 13.0987C49.3239 14.5287 50.7666 15.8466 52.3445 16.9831L48.951 22.1268L45.8656 22.9752H45.871Z" fill="var(--fill-0, #EFDCBD)"/>
<path id="Vector_2" d="M48.0162 13.0987C48.5133 11.7007 49.1185 10.3561 49.8534 9.21427C50.1182 8.80342 50.4262 8.41925 50.7666 8.05109C50.664 7.20804 50.7288 6.26894 51.1773 5.62865C51.4367 5.20713 51.9122 4.91901 52.3175 5.32452C52.6309 5.63933 52.5876 6.13555 52.5336 6.5464C52.5498 6.53573 52.566 6.5304 52.5768 6.51439C52.9443 5.26583 53.0632 3.75048 53.971 2.77937C54.3816 2.37919 54.868 2.32049 55.1381 2.87541C55.4732 3.54238 55.1597 4.50815 55.003 5.17512C55.4353 4.68957 57.6076 2.10706 58.4397 1.90964C59.1854 1.74423 59.1098 2.37919 58.8828 2.88075C58.6505 3.40899 58.256 3.86252 57.8291 4.27871C61.4819 3.45167 65.0429 3.9479 65.8804 6.0982C67.6096 10.5162 55.1057 12.7839 55.1057 12.7839L52.3445 16.9724C50.7666 15.8359 49.3239 14.5127 48.0108 13.088L48.0162 13.0987Z" fill="var(--fill-0, #FFF3DB)"/>
</g>
<path id="Vector_3" d="M33.1672 15.9266C33.1672 15.9266 36.3715 9.43838 37.9764 10.3881C39.5758 11.3379 36.6957 15.9266 36.6957 15.9266C36.6957 15.9266 43.5853 11.0871 44.5471 13.1094C45.509 15.137 40.381 17.8262 40.381 17.8262C40.381 17.8262 51.4367 20.0405 54.1601 20.9903C56.8835 21.94 60.8875 25.1041 55.9216 27.3185L54.4789 34.7511C54.4789 34.7511 67.4583 32.8516 68.9011 39.5C70.3438 46.143 67.6204 50.2568 66.3398 50.2568C65.0591 50.2568 64.0973 48.3573 64.0973 48.3573C64.0973 48.3573 64.7781 54.0879 62.3303 54.7281C60.7038 55.155 59.769 51.6761 59.769 51.6761C59.769 51.6761 58.791 58.2657 56.0838 58.1644C54.641 58.111 54.1277 54.0612 54.1277 54.0612C54.1277 54.0612 50.156 59.2742 47.9135 58.1644C45.6711 57.0599 42.1425 51.6761 42.1425 51.6761C42.1425 51.6761 47.2705 63.8576 46.6329 69.236C45.9899 74.6145 43.7474 74.7745 41.8237 72.875C41.8237 72.875 42.7855 82.3673 39.2624 90.1201H0C0 90.1201 24.9916 28.1028 27.5583 21.1397C27.5583 21.1397 25.9156 11.7541 28.6822 11.0124C31.4056 10.2814 33.1672 15.916 33.1672 15.916V15.9266Z" fill="var(--fill-0, #FFF3DB)"/>
<path id="Vector_4" d="M32.8322 84.3842C33.2861 80.0516 32.0757 68.6918 39.3381 71.5304C38.4303 68.393 36.0095 61.2164 41.9102 63.1586C40.5485 60.7682 35.253 51.9482 37.9764 49.5578C39.9054 47.8451 42.5694 51.5214 44.4823 54.8882C43.1746 53.2662 42.1371 51.6814 42.1371 51.6814C42.1371 51.6814 47.2651 63.8629 46.6275 69.2414C45.9845 74.6198 43.742 74.7799 41.8183 72.8804C41.8183 72.8804 42.7801 82.3726 39.257 90.1255H19.7609C20.0959 88.306 20.7714 86.5879 21.9385 85.1259C24.5106 81.8391 29.9629 81.0921 32.8376 84.3789L32.8322 84.3842Z" fill="var(--fill-0, #EFDCBD)"/>
<path id="Vector_5" d="M64.1189 6.81319C63.3786 9.31032 54.7977 11.61 54.7977 11.61L47.3408 21.4758C47.3408 21.4758 51.307 10.2654 52.0149 9.15558C52.7227 8.04575 65.0375 3.68112 64.1135 6.80786L64.1189 6.81319Z" fill="var(--fill-0, #FEB8AC)"/>
<path id="Vector_6" d="M19.361 8.53664C19.8095 8.56865 20.1067 8.97417 20.3391 9.31566C20.3391 9.29965 20.3499 9.28364 20.3553 9.2623C19.7987 8.0831 18.8747 6.86655 18.9125 5.54328C18.9558 4.9777 19.28 4.61487 19.8528 4.85498C20.5498 5.13777 20.9605 6.07153 21.2847 6.67447C21.2847 6.02884 21.2036 2.67266 21.6954 1.98435C22.1439 1.37607 22.5167 1.90431 22.6788 2.42721C22.8571 2.97679 22.8625 3.5744 22.8193 4.16667C25.0132 1.16798 28.0284 -0.774226 30.0925 0.298258C34.3397 2.50192 26.4451 12.3357 26.4451 12.3357L28.0392 23.3593L26.283 26.0059C26.283 26.0059 21.0145 18.856 20.0959 13.0613C20.0203 12.5811 19.9986 12.0902 20.0095 11.594C19.3718 11.0231 18.7937 10.2761 18.7018 9.50241C18.6207 9.01686 18.7828 8.49395 19.3556 8.5313L19.361 8.53664Z" fill="var(--fill-0, #FFF3DB)"/>
<path id="Vector_7" d="M29.2334 1.97902C30.3411 4.33741 25.4184 11.6474 25.4184 11.6474L27.0179 23.3753C27.0179 23.3753 21.9007 12.9013 21.6954 11.6047C21.49 10.3081 27.8446 -0.987653 29.2388 1.97368L29.2334 1.97902Z" fill="var(--fill-0, #FEB8AC)"/>
<g id="Group_3">
<path id="Vector_8" d="M43.2935 29.7569C43.0017 30.2318 42.5856 30.5146 42.0669 30.5999C40.5917 30.8454 39.0301 29.3834 37.436 26.23C37.3603 26.0752 37.4198 25.8938 37.5765 25.8191C37.7278 25.7391 37.9169 25.8031 37.9926 25.9578C39.8136 29.5488 41.1645 30.1304 41.9642 29.997C42.3046 29.9436 42.564 29.7622 42.7585 29.4421C43.3205 28.5243 43.18 26.7315 42.8612 25.7871C42.818 25.6537 42.8666 25.5043 42.9909 25.4296C43.1098 25.3549 43.2665 25.3709 43.3745 25.4669C44.0932 26.1339 44.7254 26.9343 45.3144 27.916C45.4117 28.0815 45.5144 28.2522 45.617 28.4283C46.1358 29.3194 46.7194 30.3331 47.5731 30.7973C47.8703 30.9574 48.1513 30.9894 48.4053 30.8881C48.7079 30.7653 48.9618 30.4612 49.0969 30.0397C49.4103 29.1539 49.0969 28.2042 48.7943 27.2811L48.7295 27.0783C48.6863 26.9503 48.7349 26.8062 48.8538 26.7262C48.9672 26.6515 49.1185 26.6568 49.2266 26.7475C49.4049 26.8969 49.5832 27.0463 49.7616 27.2011C50.5937 27.9107 51.4529 28.647 52.4417 28.9939C52.9227 29.1486 53.2793 29.1379 53.49 28.9619C53.8034 28.7004 53.9007 28.0068 53.7602 27.073C53.7332 26.9076 53.8521 26.7475 54.025 26.7208C54.1925 26.6888 54.3546 26.8116 54.3816 26.9823C54.5113 27.8093 54.5275 28.9085 53.9007 29.4367C53.5117 29.7622 52.9605 29.8102 52.2472 29.5861C51.2638 29.2393 50.437 28.5884 49.6535 27.9214C49.8588 28.6684 49.9723 29.4581 49.7021 30.2371C49.513 30.8294 49.1293 31.2776 48.6484 31.4643C48.4755 31.5337 48.2972 31.5657 48.1135 31.5657C47.8433 31.5657 47.5623 31.491 47.2867 31.3416C46.2817 30.7867 45.6494 29.6982 45.0875 28.7378C44.9902 28.5617 44.8875 28.3963 44.7957 28.2362C44.4553 27.6653 44.0986 27.1637 43.7204 26.7155C43.8501 27.7346 43.8014 28.9779 43.3151 29.7676L43.2935 29.7569Z" fill="var(--fill-0, #EFDCBD)"/>
<path id="Vector_9" d="M37.1982 37.4297C37.2361 37.2643 37.3982 37.1629 37.5711 37.1949C37.7386 37.2323 37.8467 37.3977 37.8088 37.5631C37.6305 38.3688 37.6684 39.2332 37.9277 40.2043C38.4519 42.0611 39.0138 42.472 39.3867 42.488C40.1378 42.488 40.3755 40.962 40.4296 40.4871C40.5322 39.7881 40.4512 39.1371 40.1864 38.5555C40.1216 38.4328 40.0729 38.3368 40.0405 38.2674C39.9757 38.118 40.0405 37.9419 40.1864 37.8672C40.3377 37.7925 40.516 37.8512 40.5971 37.9953C40.6565 38.102 40.7106 38.2034 40.7592 38.3154C41.0942 38.9237 41.7318 39.7721 42.2614 39.9375C42.4019 39.9802 42.5154 39.9695 42.6234 39.9055C42.7531 39.8308 42.818 39.7294 42.8396 39.5853C42.9368 38.849 41.8345 37.4083 41.2509 36.8321C41.1266 36.7094 41.1266 36.5173 41.2509 36.3946C41.3752 36.2718 41.5697 36.2718 41.694 36.3946C41.7156 36.4159 43.6285 38.3688 43.461 39.66C43.4178 39.9962 43.2394 40.263 42.9477 40.4337C42.6883 40.5884 42.3857 40.6205 42.0777 40.5244C41.7264 40.4124 41.3914 40.1509 41.0942 39.8361C41.0942 40.0762 41.0834 40.3163 41.0456 40.5671C40.8511 42.2052 40.2621 43.1069 39.3705 43.1069C38.0736 43.0535 37.5062 41.0367 37.3225 40.3697C37.0415 39.2972 36.9983 38.3368 37.1982 37.435V37.4297Z" fill="var(--fill-0, #EFDCBD)"/>
<path id="Vector_10" d="M25.0996 64.5673C25.2563 64.6313 25.332 64.8127 25.2671 64.9728C24.9753 65.6611 25.1375 67.0591 25.6184 68.0782C25.9048 68.6758 26.2614 69.0706 26.618 69.1773C27.0611 69.2947 27.4448 69.188 27.796 68.8625C28.5795 68.1209 28.9416 66.4081 28.7308 65.4317C28.693 65.2662 28.8011 65.1062 28.9632 65.0688C29.1307 65.0261 29.2982 65.1329 29.336 65.2929C29.7629 66.9897 30.514 68.5531 30.9085 68.5691C30.9949 68.5691 31.2057 68.393 31.438 67.7367C32.1405 65.6504 32.1405 62.625 31.438 60.5334C31.3894 60.3947 31.4488 60.24 31.5785 60.1706C31.7082 60.0959 31.8703 60.1226 31.9676 60.2346C32.7889 61.1631 34.41 62.5397 35.28 61.8407C35.5501 61.6273 35.6852 61.3498 35.6906 60.987C35.7231 59.7758 34.3235 58.015 33.5995 57.38C33.4698 57.268 33.459 57.0705 33.5724 56.9478C33.6859 56.8198 33.8858 56.8091 34.0155 56.9211C34.7504 57.5668 36.3553 59.493 36.3121 61.003C36.2958 61.5472 36.0797 61.9954 35.669 62.3156C34.6315 63.1533 33.232 62.2569 32.3242 61.4619C32.7565 63.5428 32.6538 66.0453 32.0216 67.9288C31.9135 68.2383 31.5839 69.1827 30.9031 69.1827C30.8923 69.1827 30.8815 69.1827 30.8706 69.1827C30.2114 69.156 29.6548 68.1475 29.2712 67.1658C29.1037 67.9715 28.7578 68.7878 28.2121 69.3054C27.8392 69.6576 27.4124 69.8336 26.9422 69.8336C26.7747 69.8336 26.6072 69.8123 26.4343 69.7696C25.8885 69.6042 25.4076 69.108 25.0402 68.3396C24.4728 67.1444 24.3161 65.5917 24.6727 64.738C24.7376 64.5779 24.9267 64.5086 25.0834 64.5726L25.0996 64.5673Z" fill="var(--fill-0, #EFDCBD)"/>
<path id="Vector_11" d="M20.3012 47.2634C20.4309 47.1514 20.6255 47.1567 20.7443 47.2848C20.8578 47.4075 20.8524 47.6049 20.7227 47.717C19.6474 48.6828 19.0206 50.3688 19.8203 51.5107C20.1337 51.8949 20.5282 52.087 20.9227 52.055C21.3495 52.0176 21.744 51.7241 22.0088 51.2439C22.079 51.1212 22.2195 51.0625 22.36 51.0892C22.5005 51.1265 22.5978 51.2493 22.5978 51.388C22.5978 52.8927 22.8842 54.2426 23.2246 54.3867C23.4083 54.4507 23.511 54.4134 23.5704 54.376C24.0135 54.1092 24.1756 52.9193 24.2459 52.4124L24.2675 52.2737C24.2891 52.103 24.4404 51.9856 24.6187 52.0123C24.7862 52.0336 24.9051 52.1937 24.8835 52.3591L24.8619 52.4978C24.7646 53.1968 24.5863 54.4934 23.8892 54.9096C23.7758 54.9789 23.6136 55.043 23.4029 55.043C23.284 55.043 23.1435 55.0216 22.9922 54.9683C22.2898 54.6695 22.0682 53.2502 21.998 52.2364C21.7008 52.4925 21.3495 52.6419 20.9767 52.6739C20.3607 52.7219 19.7825 52.4498 19.3178 51.8789C18.2749 50.3902 19.0476 48.3893 20.3012 47.2634Z" fill="var(--fill-0, #EFDCBD)"/>
<path id="Vector_12" d="M27.4502 38.3154C27.2503 38.4221 27.0395 38.4755 26.8288 38.4755C26.618 38.4755 26.4019 38.4221 26.1912 38.3154C25.8669 38.1553 25.6346 37.8672 25.5157 37.467C25.2293 36.5386 25.5968 35.1246 25.9588 34.5004C26.0453 34.351 26.2344 34.2976 26.3857 34.383C26.537 34.4684 26.591 34.6551 26.4992 34.8045C26.2398 35.258 25.8723 36.5119 26.1155 37.2909C26.1857 37.5257 26.3046 37.6805 26.4775 37.7658C26.7261 37.8832 26.9422 37.8885 27.1584 37.7712C27.85 37.3977 28.3418 35.941 28.4174 35.2314C28.4336 35.066 28.5795 34.9486 28.7633 34.9592C28.9362 34.9752 29.055 35.13 29.0388 35.3007C28.9578 36.0211 28.4444 37.7765 27.4556 38.3101L27.4502 38.3154Z" fill="var(--fill-0, #EFDCBD)"/>
<path id="Vector_13" d="M26.4829 33.3265C26.4829 33.3265 26.4451 33.3265 26.4289 33.3265C25.975 33.3265 25.5751 33.0811 25.3266 32.6329C24.7052 31.4056 26.4019 28.9085 27.153 28.1668C27.2773 28.0495 27.4718 28.0495 27.5961 28.1668C27.715 28.2896 27.715 28.4816 27.5961 28.6044C26.7909 29.3994 25.4887 31.5764 25.8777 32.3447C26.0182 32.5955 26.2182 32.7236 26.4559 32.7076C26.818 32.6915 27.207 32.3874 27.4016 31.9605C27.4718 31.8058 27.6555 31.7364 27.8122 31.8058C27.9689 31.8752 28.0392 32.0566 27.9689 32.2113C27.6825 32.8516 27.0827 33.2998 26.4829 33.3265Z" fill="var(--fill-0, #EFDCBD)"/>
<path id="Vector_14" d="M34.6748 75.2708C34.8153 75.3721 34.8423 75.5642 34.745 75.703C33.9777 76.7434 32.589 80.5531 33.9453 81.5349C34.1344 81.663 34.3127 81.679 34.5181 81.5936C34.9612 81.3962 35.3934 80.7239 35.5664 80.153C35.5988 80.0089 35.6258 79.8862 35.6474 79.7848C35.6798 79.6247 35.8311 79.5073 35.9986 79.534C36.1662 79.5607 36.2796 79.7101 36.2634 79.8755C36.2526 79.9929 36.2202 80.1316 36.1824 80.2757C36.1499 80.4251 36.1067 80.5852 36.0689 80.7666C35.7717 81.9991 35.1503 84.571 35.8149 85.0298C36.1499 85.2433 36.3715 85.1686 36.5066 85.0939C37.5441 84.5283 38.1439 81.2841 38.1439 80.3611C38.1439 80.1903 38.2844 80.0516 38.4573 80.0516C38.6302 80.0516 38.7707 80.1903 38.7707 80.3611C38.7707 81.076 38.2357 84.8591 36.8092 85.6328C36.6579 85.7128 36.4634 85.7822 36.231 85.7822C35.9986 85.7822 35.7501 85.7181 35.4691 85.5421C34.7126 85.0192 34.8207 83.6052 35.1719 81.9191C35.053 82.0205 34.9233 82.1058 34.7828 82.1645C34.3776 82.346 33.9669 82.3086 33.5941 82.0471C31.7947 80.7452 33.3995 76.5193 34.2533 75.3508C34.356 75.2121 34.5505 75.1801 34.691 75.2814L34.6748 75.2708Z" fill="var(--fill-0, #FFF3DB)"/>
<path id="Vector_15" d="M13.617 69.2467L13.6765 69.1293C13.7521 68.9746 13.9412 68.9159 14.0979 68.9906C14.2492 69.0653 14.3141 69.252 14.2384 69.4014L14.179 69.5188C13.4549 70.9435 11.9527 73.9155 12.8659 75.3615C13.001 75.5589 13.2009 75.783 13.3901 75.7563C13.7521 75.703 14.2709 74.8599 14.5951 73.7981C14.6437 73.6327 14.822 73.542 14.9841 73.59C15.1516 73.638 15.2435 73.8088 15.1949 73.9742C15.0382 74.4971 14.4438 76.2259 13.4873 76.3646C13.4441 76.3699 13.3955 76.3753 13.3522 76.3753C12.9902 76.3753 12.6498 76.1512 12.3418 75.6923C11.2394 73.9475 12.8443 70.7674 13.6224 69.2414L13.617 69.2467Z" fill="var(--fill-0, #EFDCBD)"/>
<path id="Vector_16" d="M16.9456 74.1022C17.1131 74.1449 17.2158 74.3103 17.1726 74.4757C16.5079 77.1009 16.4377 79.1765 17.0105 79.5233C17.2915 79.6941 17.8858 79.4273 18.6478 78.787C18.7774 78.6803 18.9774 78.691 19.0908 78.8243C19.2043 78.9524 19.1881 79.1498 19.053 79.2565C18.3073 79.8808 17.7021 80.1903 17.2104 80.1903C17.0159 80.1903 16.843 80.1423 16.6809 80.0462C15.4596 79.2992 16.1945 75.7936 16.5674 74.321C16.6106 74.1556 16.7781 74.0542 16.9456 74.0969V74.1022Z" fill="var(--fill-0, #EFDCBD)"/>
</g>
<path id="Vector_17" d="M51.7447 41.6823C52.4742 44.6276 56.743 46.1323 61.2766 45.0385C65.8102 43.9446 68.8956 40.6631 68.1662 37.7178C67.4367 34.7725 63.1678 33.2678 58.6342 34.3616C54.1006 35.4555 51.0152 38.7369 51.7447 41.6823Z" fill="var(--fill-0, #593A42)"/>
<g id="Group_4">
<path id="Vector_18" d="M63.8163 34.9859C65.2698 35.3381 66.5991 36.4959 66.9125 37.9686C67.0855 38.7796 65.7994 38.9344 65.6265 38.134C65.4374 37.2643 64.4809 36.4586 63.6272 36.2558C62.822 36.0637 62.9949 34.7938 63.8109 34.9859H63.8163Z" fill="var(--fill-0, #936170)"/>
<path id="Vector_19" d="M67.0638 39.1158C67.2367 39.564 67.2205 40.0335 67.0044 40.4657C66.6369 41.2021 65.4428 40.6952 65.8156 39.9535C65.8858 39.8148 65.9183 39.7401 65.8642 39.596C65.567 38.8223 66.772 38.3421 67.0638 39.1158Z" fill="var(--fill-0, #936170)"/>
</g>
<g id="Group_5">
<path id="Vector_20" d="M51.6366 33.017C51.6366 34.0255 52.1932 34.8365 52.8794 34.8365C53.5657 34.8365 54.1223 34.0201 54.1223 33.017C54.1223 32.0139 53.5657 31.1922 52.8794 31.1922C52.1932 31.1922 51.6366 32.0086 51.6366 33.017Z" fill="var(--fill-0, #593A42)"/>
<path id="Vector_21" d="M43.6825 33.017C43.6825 34.0255 44.2391 34.8365 44.9254 34.8365C45.6116 34.8365 46.1682 34.0201 46.1682 33.017C46.1682 32.0139 45.6116 31.1922 44.9254 31.1922C44.2391 31.1922 43.6825 32.0086 43.6825 33.017Z" fill="var(--fill-0, #593A42)"/>
</g>
</g>
</svg>
