<svg preserveAspectRatio="none" width="100%" height="100%" overflow="visible" style="display: block;" viewBox="0 0 15 15.5555" fill="none" xmlns="http://www.w3.org/2000/svg">
<g id="Group 18">
<path id="Polygon 2" d="M9.51669 14.6557C8.45183 15.8279 6.57806 15.8391 5.49907 14.6798C5.01714 14.162 5.39146 13.3325 6.10901 13.3282L8.89044 13.3116C9.60798 13.3073 9.99232 14.1322 9.51669 14.6557Z" fill="var(--fill-0, white)"/>
<path id="Subtract" fill-rule="evenodd" clip-rule="evenodd" d="M12.1366 13.2161C11.575 13.6524 10.7819 13.5083 10.3065 12.9817L8.79607 11.3085C8.18733 10.6341 7.11879 10.6341 6.51005 11.3084L4.87535 13.1193C4.4119 13.6327 3.64468 13.785 3.08191 13.3796C1.21373 12.0338 0 9.85652 0 7.39956C0 3.3129 3.35786 0 7.5 0C11.6421 0 15 3.3129 15 7.39956C15 9.75939 13.8803 11.8612 12.1366 13.2161ZM5.23576 8.22851L6.65333 9.88356C7.10357 10.4092 7.89643 10.4092 8.34667 9.88356L9.76424 8.22851C10.2193 7.69724 9.98465 6.8564 9.32603 6.65816C8.13337 6.29917 6.86663 6.29917 5.67397 6.65816C5.01535 6.8564 4.78071 7.69724 5.23576 8.22851ZM5.27789 4.7222C5.27789 5.33584 4.78043 5.83331 4.16678 5.83331C3.55313 5.83331 3.05566 5.33584 3.05566 4.7222C3.05566 4.10855 3.55313 3.61108 4.16678 3.61108C4.78043 3.61108 5.27789 4.10855 5.27789 4.7222ZM10.8338 5.83331C11.4474 5.83331 11.9449 5.33584 11.9449 4.7222C11.9449 4.10855 11.4474 3.61108 10.8338 3.61108C10.2201 3.61108 9.72266 4.10855 9.72266 4.7222C9.72266 5.33584 10.2201 5.83331 10.8338 5.83331Z" fill="var(--fill-0, white)"/>
</g>
</svg>
